RisingSun-Italic.ufo
<glyph name="exclam" format="2">
  <advance width="258"/>
  <unicode hex="0021"/>
  <outline>
    <contour>
      <point x="5" y="52" type="qcurve" smooth="yes"/>
      <point x="2" y="39"/>
      <point x="7" y="17"/>
      <point x="21" y="0"/>
      <point x="41" y="-10"/>
      <point x="54" y="-10" type="qcurve" smooth="yes"/>
      <point x="67" y="-10"/>
      <point x="91" y="0"/>
      <point x="112" y="17"/>
      <point x="126" y="39"/>
      <point x="129" y="52" type="qcurve" smooth="yes"/>
      <point x="132" y="65"/>
      <point x="127" y="87"/>
      <point x="113" y="104"/>
      <point x="93" y="113"/>
      <point x="80" y="113" type="qcurve" smooth="yes"/>
      <point x="67" y="113"/>
      <point x="43" y="104"/>
      <point x="22" y="87"/>
      <point x="8" y="65"/>
    </contour>
    <contour>
      <point x="139" y="240" type="line"/>
      <point x="205" y="500" type="line"/>
      <point x="251" y="717" type="line"/>
      <point x="163" y="717" type="line"/>
      <point x="117" y="500" type="line"/>
      <point x="71" y="240" type="line"/>
    </contour>
  </outline>
</glyph>
<glyph name="quotedbl" format="2">
  <advance width="338"/>
  <unicode hex="0022"/>
  <outline>
    <contour>
      <point x="102" y="514" type="line"/>
      <point x="145" y="514" type="line"/>
      <point x="259" y="721" type="line"/>
      <point x="176" y="721" type="line"/>
    </contour>
    <contour>
      <point x="240" y="514" type="line"/>
      <point x="283" y="514" type="line"/>
      <point x="397" y="721" type="line"/>
      <point x="314" y="721" type="line"/>
    </contour>
  </outline>
</glyph>
<glyph name="dollar" format="2">
  <advance width="596"/>
  <unicode hex="0024"/>
  <outline>
    <contour>
      <point x="192" y="-107" type="line"/>
      <point x="235" y="-107" type="line"/>
      <point x="266" y="38" type="line"/>
      <point x="223" y="39" type="line"/>
    </contour>
    <contour>
      <point x="262" y="48" type="line"/>
      <point x="393" y="666" type="line"/>
      <point x="360" y="659" type="line"/>
      <point x="230" y="50" type="line"/>
    </contour>
    <contour>
      <point x="356" y="665" type="line"/>
      <point x="401" y="672" type="line"/>
      <point x="431" y="815" type="line"/>
      <point x="388" y="815" type="line"/>
    </contour>
    <contour>
      <point x="597" y="634" type="line"/>
      <point x="580" y="652"/>
      <point x="537" y="682"/>
      <point x="486" y="703"/>
      <point x="426" y="715"/>
      <point x="392" y="715" type="qcurve" smooth="yes"/>
      <point x="332" y="715"/>
      <point x="225" y="681"/>
      <point x="146" y="618"/>
      <point x="99" y="527"/>
      <point x="99" y="469" type="qcurve" smooth="yes"/>
      <point x="99" y="437"/>
      <point x="122" y="390"/>
      <point x="166" y="355"/>
      <point x="230" y="329"/>
      <point x="271" y="318" type="qcurve" smooth="yes"/>
      <point x="310" y="308"/>
      <point x="372" y="287"/>
      <point x="415" y="260"/>
      <point x="438" y="225"/>
      <point x="438" y="201" type="qcurve" smooth="yes"/>
      <point x="438" y="171"/>
      <point x="414" y="124"/>
      <point x="369" y="91"/>
      <point x="305" y="74"/>
      <point x="264" y="74" type="qcurve" smooth="yes"/>
      <point x="226" y="74"/>
      <point x="157" y="91"/>
      <point x="102" y="118"/>
      <point x="61" y="152"/>
      <point x="50" y="169" type="qcurve"/>
      <point x="-9" y="93" type="line"/>
      <point x="14" y="69"/>
      <point x="70" y="31"/>
      <point x="135" y="6"/>
      <point x="206" y="-7"/>
      <point x="245" y="-7" type="qcurve" smooth="yes"/>
      <point x="305" y="-7"/>
      <point x="411" y="22"/>
      <point x="491" y="80"/>
      <point x="538" y="169"/>
      <point x="538" y="229" type="qcurve" smooth="yes"/>
      <point x="538" y="266"/>
      <point x="511" y="318"/>
      <point x="462" y="356"/>
      <point x="392" y="383"/>
      <point x="349" y="394" type="qcurve" smooth="yes"/>
      <point x="312" y="403"/>
      <point x="255" y="422"/>
      <point x="217" y="445"/>
      <point x="198" y="476"/>
      <point x="198" y="498" type="qcurve" smooth="yes"/>
      <point x="198" y="528"/>
      <point x="219" y="578"/>
      <point x="262" y="614"/>
      <point x="328" y="635"/>
      <point x="373" y="635" type="qcurve" smooth="yes"/>
      <point x="403" y="635"/>
      <point x="457" y="622"/>
      <point x="500" y="601"/>
      <point x="532" y="575"/>
      <point x="540" y="561" type="qcurve"/>
    </contour>
  </outline>
</glyph>
<glyph name="percent" format="2">
  <advance width="707"/>
  <unicode hex="0025"/>
  <outline>
    <contour>
      <point x="212" y="428" type="qcurve" smooth="yes"/>
      <point x="247" y="428"/>
      <point x="312" y="456"/>
      <point x="363" y="502"/>
      <point x="394" y="565"/>
      <point x="394" y="599" type="qcurve" smooth="yes"/>
      <point x="394" y="625"/>
      <point x="377" y="669"/>
      <point x="345" y="701"/>
      <point x="301" y="720"/>
      <point x="274" y="720" type="qcurve" smooth="yes"/>
      <point x="240" y="720"/>
      <point x="174" y="692"/>
      <point x="123" y="646"/>
      <point x="92" y="584"/>
      <point x="92" y="549" type="qcurve" smooth="yes"/>
      <point x="92" y="524"/>
      <point x="110" y="479"/>
      <point x="141" y="447"/>
      <point x="185" y="428"/>
    </contour>
    <contour>
      <point x="222" y="476" type="qcurve" smooth="yes"/>
      <point x="193" y="476"/>
      <point x="157" y="522"/>
      <point x="157" y="555" type="qcurve" smooth="yes"/>
      <point x="157" y="578"/>
      <point x="176" y="620"/>
      <point x="206" y="652"/>
      <point x="244" y="672"/>
      <point x="264" y="672" type="qcurve" smooth="yes"/>
      <point x="293" y="672"/>
      <point x="329" y="626"/>
      <point x="329" y="593" type="qcurve" smooth="yes"/>
      <point x="329" y="571"/>
      <point x="310" y="528"/>
      <point x="280" y="496"/>
      <point x="242" y="476"/>
    </contour>
    <contour>
      <point x="456" y="-10" type="qcurve" smooth="yes"/>
      <point x="491" y="-10"/>
      <point x="556" y="18"/>
      <point x="607" y="64"/>
      <point x="637" y="127"/>
      <point x="637" y="161" type="qcurve" smooth="yes"/>
      <point x="637" y="187"/>
      <point x="620" y="231"/>
      <point x="589" y="263"/>
      <point x="545" y="282"/>
      <point x="518" y="282" type="qcurve" smooth="yes"/>
      <point x="484" y="282"/>
      <point x="418" y="254"/>
      <point x="367" y="208"/>
      <point x="336" y="146"/>
      <point x="336" y="111" type="qcurve" smooth="yes"/>
      <point x="336" y="86"/>
      <point x="354" y="41"/>
      <point x="385" y="9"/>
      <point x="429" y="-10"/>
    </contour>
    <contour>
      <point x="466" y="38" type="qcurve" smooth="yes"/>
      <point x="437" y="38"/>
      <point x="400" y="84"/>
      <point x="400" y="117" type="qcurve" smooth="yes"/>
      <point x="400" y="140"/>
      <point x="419" y="182"/>
      <point x="449" y="214"/>
      <point x="487" y="234"/>
      <point x="507" y="234" type="qcurve" smooth="yes"/>
      <point x="536" y="234"/>
      <point x="573" y="188"/>
      <point x="573" y="155" type="qcurve" smooth="yes"/>
      <point x="573" y="132"/>
      <point x="554" y="90"/>
      <point x="524" y="57"/>
      <point x="486" y="38"/>
    </contour>
    <contour>
      <point x="49" y="-5" type="line"/>
      <point x="381" y="343" type="line"/>
      <point x="715" y="678" type="line"/>
      <point x="680" y="715" type="line"/>
      <point x="353" y="370" type="line"/>
      <point x="15" y="33" type="line"/>
    </contour>
  </outline>
</glyph>
<glyph name="ampersand" format="2">
  <advance width="672"/>
  <unicode hex="0026"/>
  <outline>
    <contour>
      <point x="184" y="-10" type="qcurve" smooth="yes"/>
      <point x="245" y="-10"/>
      <point x="363" y="53"/>
      <point x="463" y="167"/>
      <point x="538" y="323"/>
      <point x="555" y="416" type="qcurve"/>
      <point x="477" y="416" type="line"/>
      <point x="464" y="341"/>
      <point x="408" y="211"/>
      <point x="335" y="115"/>
      <point x="248" y="60"/>
      <point x="203" y="60" type="qcurve" smooth="yes"/>
      <point x="161" y="60"/>
      <point x="103" y="114"/>
      <point x="103" y="165" type="qcurve" smooth="yes"/>
      <point x="103" y="197"/>
      <point x="130" y="251"/>
      <point x="176" y="299"/>
      <point x="241" y="343"/>
      <point x="278" y="365" type="qcurve"/>
      <point x="236" y="418" type="line"/>
      <point x="196" y="394"/>
      <point x="117" y="341"/>
      <point x="55" y="279"/>
      <point x="17" y="202"/>
      <point x="17" y="154" type="qcurve" smooth="yes"/>
      <point x="17" y="118"/>
      <point x="42" y="58"/>
      <point x="86" y="15"/>
      <point x="147" y="-10"/>
    </contour>
    <contour>
      <point x="469" y="0" type="line"/>
      <point x="578" y="0" type="line"/>
      <point x="288" y="415" type="line" smooth="yes"/>
      <point x="270" y="441"/>
      <point x="247" y="481"/>
      <point x="233" y="513"/>
      <point x="228" y="538"/>
      <point x="228" y="548" type="qcurve" smooth="yes"/>
      <point x="228" y="568"/>
      <point x="247" y="606"/>
      <point x="278" y="635"/>
      <point x="320" y="652"/>
      <point x="343" y="652" type="qcurve" smooth="yes"/>
      <point x="381" y="652"/>
      <point x="442" y="599"/>
      <point x="456" y="560" type="qcurve"/>
      <point x="516" y="614" type="line"/>
      <point x="506" y="638"/>
      <point x="473" y="677"/>
      <point x="433" y="704"/>
      <point x="384" y="719"/>
      <point x="357" y="719" type="qcurve" smooth="yes"/>
      <point x="315" y="719"/>
      <point x="238" y="690"/>
      <point x="179" y="640"/>
      <point x="145" y="573"/>
      <point x="145" y="534" type="qcurve" smooth="yes"/>
      <point x="145" y="517"/>
      <point x="153" y="482"/>
      <point x="171" y="441"/>
      <point x="199" y="395"/>
      <point x="218" y="367" type="qcurve" smooth="yes"/>
    </contour>
    <contour>
      <point x="472" y="347" type="line"/>
      <point x="638" y="347" type="line"/>
      <point x="653" y="416" type="line"/>
      <point x="487" y="416" type="line"/>
    </contour>
  </outline>
</glyph>
<glyph name="parenleft" format="2">
  <advance width="278"/>
  <unicode hex="0028"/>
  <outline>
    <contour>
      <point x="42" y="261" type="qcurve" smooth="yes"/>
      <point x="42" y="224"/>
      <point x="51" y="146"/>
      <point x="68" y="68"/>
      <point x="92" y="-8"/>
      <point x="107" y="-42" type="qcurve"/>
      <point x="179" y="-8" type="line"/>
      <point x="166" y="25"/>
      <point x="146" y="96"/>
      <point x="132" y="168"/>
      <point x="125" y="237"/>
      <point x="125" y="268" type="qcurve" smooth="yes"/>
      <point x="125" y="330"/>
      <point x="170" y="460"/>
      <point x="234" y="580"/>
      <point x="307" y="681"/>
      <point x="334" y="714" type="qcurve"/>
      <point x="273" y="744" type="line"/>
      <point x="225" y="683"/>
      <point x="141" y="566"/>
      <point x="78" y="449"/>
      <point x="42" y="327"/>
    </contour>
  </outline>
</glyph>
<glyph name="comma" format="2">
  <advance width="268"/>
  <unicode hex="002C"/>
  <outline>
    <contour>
      <point x="-48" y="-170" type="line"/>
      <point x="95" y="90" type="line"/>
      <point x="18" y="100" type="line"/>
      <point x="-87" y="-160" type="line"/>
    </contour>
  </outline>
</glyph>
<glyph name="period" format="2">
  <advance width="268"/>
  <unicode hex="002E"/>
  <outline>
    <contour>
      <point x="23" y="46" type="qcurve" smooth="yes"/>
      <point x="18" y="23"/>
      <point x="43" y="-10"/>
      <point x="67" y="-10" type="qcurve" smooth="yes"/>
      <point x="90" y="-10"/>
      <point x="130" y="23"/>
      <point x="135" y="46" type="qcurve" smooth="yes"/>
      <point x="140" y="69"/>
      <point x="114" y="102"/>
      <point x="91" y="102" type="qcurve" smooth="yes"/>
      <point x="67" y="102"/>
      <point x="28" y="69"/>
    </contour>
  </outline>
</glyph>
<glyph name="zero.tnum" format="2">
  <advance width="586"/>
  <unicode hex="0030"/>
  <outline>
    <contour>
      <point x="225" y="-11" type="qcurve" smooth="yes"/>
      <point x="294" y="-11"/>
      <point x="414" y="68"/>
      <point x="460" y="131" type="qcurve" smooth="yes"/>
      <point x="505" y="194"/>
      <point x="557" y="347"/>
      <point x="557" y="422" type="qcurve" smooth="yes"/>
      <point x="557" y="473"/>
      <point x="535" y="575"/>
      <point x="512" y="617" type="qcurve" smooth="yes"/>
      <point x="488" y="659"/>
      <point x="414" y="710"/>
      <point x="362" y="710" type="qcurve" smooth="yes"/>
      <point x="293" y="710"/>
      <point x="173" y="630"/>
      <point x="128" y="567" type="qcurve" smooth="yes"/>
      <point x="83" y="504"/>
      <point x="30" y="350"/>
      <point x="30" y="275" type="qcurve" smooth="yes"/>
      <point x="30" y="224"/>
      <point x="52" y="123"/>
      <point x="76" y="81" type="qcurve" smooth="yes"/>
      <point x="100" y="39"/>
      <point x="174" y="-11"/>
    </contour>
    <contour>
      <point x="243" y="71" type="qcurve" smooth="yes"/>
      <point x="211" y="71"/>
      <point x="164" y="104"/>
      <point x="150" y="132" type="qcurve"/>
      <point x="135" y="159"/>
      <point x="122" y="231"/>
      <point x="122" y="270" type="qcurve" smooth="yes"/>
      <point x="122" y="324"/>
      <point x="153" y="448"/>
      <point x="182" y="502" type="qcurve" smooth="yes"/>
      <point x="211" y="556"/>
      <point x="293" y="628"/>
      <point x="344" y="628" type="qcurve" smooth="yes"/>
      <point x="375" y="628"/>
      <point x="420" y="591"/>
      <point x="435" y="561" type="qcurve" smooth="yes"/>
      <point x="450" y="531"/>
      <point x="465" y="455"/>
      <point x="465" y="415" type="qcurve" smooth="yes"/>
      <point x="465" y="363"/>
      <point x="432" y="243"/>
      <point x="403" y="192" type="qcurve" smooth="yes"/>
      <point x="374" y="140"/>
      <point x="292" y="71"/>
    </contour>
  </outline>
</glyph>
<glyph name="one" format="2">
  <advance width="385"/>
  <unicode hex="0031"/>
  <outline>
    <contour>
      <point x="130" y="0" type="line"/>
      <point x="220" y="0" type="line"/>
      <point x="373" y="718" type="line"/>
      <point x="283" y="718" type="line"/>
      <point x="280" y="714"/>
      <point x="179" y="621"/>
      <point x="111" y="621" type="curve"/>
      <point x="94" y="539" type="line"/>
      <point x="145" y="539"/>
      <point x="236" y="594"/>
      <point x="263" y="625" type="curve"/>
    </contour>
  </outline>
</glyph>
<glyph name="one.tnum" format="2">
  <advance width="586"/>
  <unicode hex="0031"/>
  <outline>
    <contour>
      <point x="-22" y="-1" type="line"/>
      <point x="472" y="-1" type="line"/>
      <point x="488" y="79" type="line"/>
      <point x="289" y="79" type="line"/>
      <point x="413" y="718" type="line"/>
      <point x="330" y="718" type="line"/>
      <point x="329" y="717"/>
      <point x="296" y="686"/>
      <point x="273" y="668" type="qcurve" smooth="yes"/>
      <point x="249" y="650"/>
      <point x="194" y="621"/>
      <point x="170" y="621" type="qcurve"/>
      <point x="154" y="538" type="line"/>
      <point x="171" y="538"/>
      <point x="216" y="556"/>
      <point x="238" y="570" type="qcurve" smooth="yes"/>
      <point x="260" y="584"/>
      <point x="297" y="613"/>
      <point x="306" y="625" type="qcurve"/>
      <point x="199" y="79" type="line"/>
      <point x="-7" y="79" type="line"/>
    </contour>
  </outline>
</glyph>
<glyph name="two" format="2">
  <advance width="586"/>
  <unicode hex="0032"/>
  <outline>
    <contour>
      <point x="12" y="-2" type="qcurve"/>
      <point x="462" y="-2" type="line"/>
      <point x="479" y="78" type="line"/>
      <point x="138" y="78" type="line"/>
      <point x="144" y="112"/>
      <point x="171" y="166"/>
      <point x="218" y="214"/>
      <point x="288" y="257"/>
      <point x="339" y="281" type="qcurve" smooth="yes"/>
      <point x="383" y="301"/>
      <point x="467" y="346"/>
      <point x="534" y="409"/>
      <point x="575" y="493"/>
      <point x="575" y="553" type="qcurve" smooth="yes"/>
      <point x="575" y="588"/>
      <point x="554" y="648"/>
      <point x="512" y="693"/>
      <point x="446" y="719"/>
      <point x="403" y="719" type="qcurve" smooth="yes"/>
      <point x="351" y="719"/>
      <point x="264" y="689"/>
      <point x="195" y="646"/>
      <point x="149" y="606"/>
      <point x="139" y="596" type="qcurve"/>
      <point x="181" y="539" type="line"/>
      <point x="196" y="554"/>
      <point x="236" y="587"/>
      <point x="285" y="616"/>
      <point x="343" y="635"/>
      <point x="374" y="635" type="qcurve" smooth="yes"/>
      <point x="400" y="635"/>
      <point x="438" y="620"/>
      <point x="463" y="593"/>
      <point x="475" y="556"/>
      <point x="475" y="535" type="qcurve" smooth="yes"/>
      <point x="475" y="485"/>
      <point x="433" y="421"/>
      <point x="369" y="376"/>
      <point x="290" y="343"/>
      <point x="251" y="325" type="qcurve" smooth="yes"/>
      <point x="203" y="302"/>
      <point x="127" y="246"/>
      <point x="68" y="170"/>
      <point x="27" y="68"/>
    </contour>
  </outline>
</glyph>
<glyph name="three" format="2">
  <advance width="519"/>
  <unicode hex="0033"/>
  <outline>
    <contour>
      <point x="173" y="-9" type="curve" smooth="yes"/>
      <point x="332" y="-9"/>
      <point x="451" y="93"/>
      <point x="451" y="236" type="curve" smooth="yes"/>
      <point x="451" y="308"/>
      <point x="414" y="362"/>
      <point x="351" y="374" type="curve"/>
      <point x="441" y="389"/>
      <point x="509" y="478"/>
      <point x="509" y="568" type="curve" smooth="yes"/>
      <point x="509" y="656"/>
      <point x="444" y="714"/>
      <point x="338" y="714" type="curve" smooth="yes"/>
      <point x="243" y="714"/>
      <point x="148" y="669"/>
      <point x="100" y="602" type="curve"/>
      <point x="142" y="546" type="line"/>
      <point x="184" y="602"/>
      <point x="244" y="635"/>
      <point x="312" y="635" type="curve" smooth="yes"/>
      <point x="373" y="635"/>
      <point x="414" y="607"/>
      <point x="414" y="552" type="curve" smooth="yes"/>
      <point x="414" y="473"/>
      <point x="349" y="408"/>
      <point x="245" y="408" type="curve" smooth="yes"/>
      <point x="175" y="408" type="line"/>
      <point x="159" y="334" type="line"/>
      <point x="227" y="334" type="line" smooth="yes"/>
      <point x="314" y="334"/>
      <point x="358" y="291"/>
      <point x="358" y="225" type="curve" smooth="yes"/>
      <point x="358" y="127"/>
      <point x="292" y="71"/>
      <point x="189" y="71" type="curve" smooth="yes"/>
      <point x="111" y="71"/>
      <point x="71" y="105"/>
      <point x="53" y="159" type="curve"/>
      <point x="-17" y="100" type="line"/>
      <point x="9" y="31"/>
      <point x="77" y="-9"/>
    </contour>
  </outline>
</glyph>
<glyph name="five" format="2">
  <advance width="586"/>
  <unicode hex="0035"/>
  <outline>
    <contour>
      <point x="213" y="-12" type="curve" smooth="yes"/>
      <point x="370" y="-12"/>
      <point x="500" y="113"/>
      <point x="500" y="271" type="curve" smooth="yes"/>
      <point x="500" y="373"/>
      <point x="432" y="453"/>
      <point x="327" y="453" type="curve" smooth="yes"/>
      <point x="279" y="453"/>
      <point x="233" y="436"/>
      <point x="199" y="401" type="curve"/>
      <point x="283" y="629" type="line"/>
      <point x="540" y="629" type="line"/>
      <point x="558" y="710" type="line"/>
      <point x="237" y="710" type="line"/>
      <point x="81" y="302" type="line"/>
      <point x="157" y="302" type="line"/>
      <point x="191" y="344"/>
      <point x="243" y="375"/>
      <point x="298" y="375" type="curve" smooth="yes"/>
      <point x="370" y="375"/>
      <point x="408" y="321"/>
      <point x="408" y="253" type="curve" smooth="yes"/>
      <point x="408" y="157"/>
      <point x="327" y="69"/>
      <point x="229" y="69" type="curve" smooth="yes"/>
      <point x="163" y="69"/>
      <point x="113" y="109"/>
      <point x="92" y="171" type="curve"/>
      <point x="28" y="123" type="line"/>
      <point x="52" y="37"/>
      <point x="125" y="-12"/>
    </contour>
  </outline>
</glyph>
<glyph name="six.tnum" format="2">
  <advance width="586"/>
  <unicode hex="0036"/>
  <outline>
    <contour>
      <point x="220" y="-12" type="qcurve" smooth="yes"/>
      <point x="169" y="-12"/>
      <point x="98" y="27"/>
      <point x="53" y="90"/>
      <point x="34" y="171"/>
      <point x="34" y="214" type="qcurve" smooth="yes"/>
      <point x="34" y="262"/>
      <point x="50" y="374"/>
      <point x="86" y="486"/>
      <point x="140" y="588"/>
      <point x="218" y="668"/>
      <point x="317" y="715"/>
      <point x="379" y="715" type="qcurve" smooth="yes"/>
      <point x="445" y="715"/>
      <point x="534" y="648"/>
      <point x="552" y="587" type="qcurve"/>
      <point x="488" y="536" type="line"/>
      <point x="477" y="582"/>
      <point x="412" y="636"/>
      <point x="362" y="636" type="qcurve" smooth="yes"/>
      <point x="311" y="636"/>
      <point x="232" y="578"/>
      <point x="171" y="493"/>
      <point x="132" y="397"/>
      <point x="121" y="358" type="qcurve"/>
      <point x="136" y="383"/>
      <point x="182" y="426"/>
      <point x="238" y="457"/>
      <point x="299" y="474"/>
      <point x="329" y="474" type="qcurve" smooth="yes"/>
      <point x="373" y="474"/>
      <point x="441" y="442"/>
      <point x="487" y="388"/>
      <point x="512" y="317"/>
      <point x="512" y="278" type="qcurve" smooth="yes"/>
      <point x="512" y="222"/>
      <point x="466" y="116"/>
      <point x="386" y="36"/>
      <point x="279" y="-12"/>
    </contour>
    <contour>
      <point x="237" y="66" type="qcurve" smooth="yes"/>
      <point x="277" y="66"/>
      <point x="345" y="102"/>
      <point x="397" y="159"/>
      <point x="426" y="229"/>
      <point x="426" y="263" type="qcurve" smooth="yes"/>
      <point x="426" y="288"/>
      <point x="411" y="338"/>
      <point x="381" y="377"/>
      <point x="336" y="401"/>
      <point x="306" y="401" type="qcurve" smooth="yes"/>
      <point x="266" y="401"/>
      <point x="198" y="365"/>
      <point x="146" y="309"/>
      <point x="118" y="239"/>
      <point x="118" y="205" type="qcurve" smooth="yes"/>
      <point x="118" y="180"/>
      <point x="132" y="130"/>
      <point x="162" y="91"/>
      <point x="207" y="66"/>
    </contour>
  </outline>
</glyph>
<glyph name="seven" format="2">
  <advance width="586"/>
  <unicode hex="0037"/>
  <outline>
    <contour>
      <point x="59" y="0" type="line"/>
      <point x="154" y="0" type="line"/>
      <point x="627" y="710" type="line"/>
      <point x="113" y="710" type="line"/>
      <point x="97" y="629" type="line"/>
      <point x="475" y="629" type="line"/>
    </contour>
  </outline>
</glyph>
<glyph name="eight" format="2">
  <advance width="586"/>
  <unicode hex="0038"/>
  <outline>
    <contour>
      <point x="509" y="233" type="curve" smooth="yes"/>
      <point x="509" y="297"/>
      <point x="476" y="353"/>
      <point x="417" y="380" type="curve"/>
      <point x="488" y="409"/>
      <point x="556" y="473"/>
      <point x="556" y="555" type="curve" smooth="yes"/>
      <point x="556" y="654"/>
      <point x="469" y="710"/>
      <point x="377" y="710" type="curve" smooth="yes"/>
      <point x="260" y="710"/>
      <point x="123" y="629"/>
      <point x="123" y="500" type="curve" smooth="yes"/>
      <point x="123" y="449"/>
      <point x="151" y="402"/>
      <point x="197" y="380" type="curve"/>
      <point x="108" y="345"/>
      <point x="31" y="271"/>
      <point x="31" y="170" type="curve" smooth="yes"/>
      <point x="31" y="58"/>
      <point x="119" y="-8"/>
      <point x="225" y="-8" type="curve" smooth="yes"/>
      <point x="361" y="-8"/>
      <point x="509" y="84"/>
    </contour>
    <contour>
      <point x="420" y="230" type="curve" smooth="yes"/>
      <point x="420" y="141"/>
      <point x="328" y="71"/>
      <point x="244" y="71" type="curve" smooth="yes"/>
      <point x="180" y="71"/>
      <point x="123" y="117"/>
      <point x="123" y="184" type="curve" smooth="yes"/>
      <point x="123" y="274"/>
      <point x="212" y="343"/>
      <point x="298" y="343" type="curve" smooth="yes"/>
      <point x="364" y="343"/>
      <point x="420" y="299"/>
    </contour>
    <contour>
      <point x="212" y="503" type="curve" smooth="yes"/>
      <point x="212" y="580"/>
      <point x="289" y="631"/>
      <point x="360" y="631" type="curve" smooth="yes"/>
      <point x="415" y="631"/>
      <point x="464" y="600"/>
      <point x="464" y="541" type="curve" smooth="yes"/>
      <point x="464" y="465"/>
      <point x="387" y="411"/>
      <point x="316" y="411" type="curve" smooth="yes"/>
      <point x="264" y="411"/>
      <point x="212" y="447"/>
    </contour>
  </outline>
</glyph>
<glyph name="nine" format="2">
  <advance width="586"/>
  <unicode hex="0039"/>
  <outline>
    <contour>
      <point x="207" y="-9" type="curve" smooth="yes"/>
      <point x="121" y="-9"/>
      <point x="59" y="36"/>
      <point x="34" y="119" type="curve"/>
      <point x="98" y="170" type="line"/>
      <point x="112" y="108"/>
      <point x="160" y="70"/>
      <point x="224" y="70" type="curve" smooth="yes"/>
      <point x="361" y="70"/>
      <point x="439" y="234"/>
      <point x="465" y="348" type="curve"/>
      <point x="423" y="279"/>
      <point x="338" y="232"/>
      <point x="257" y="232" type="curve" smooth="yes"/>
      <point x="145" y="232"/>
      <point x="74" y="320"/>
      <point x="74" y="428" type="curve" smooth="yes"/>
      <point x="74" y="583"/>
      <point x="213" y="718"/>
      <point x="367" y="718" type="curve" smooth="yes"/>
      <point x="499" y="718"/>
      <point x="552" y="610"/>
      <point x="552" y="492" type="curve" smooth="yes"/>
      <point x="552" y="290"/>
      <point x="453" y="-9"/>
    </contour>
    <contour>
      <point x="280" y="305" type="curve" smooth="yes"/>
      <point x="380" y="305"/>
      <point x="469" y="403"/>
      <point x="469" y="501" type="curve" smooth="yes"/>
      <point x="469" y="571"/>
      <point x="426" y="640"/>
      <point x="350" y="640" type="curve" smooth="yes"/>
      <point x="251" y="640"/>
      <point x="159" y="540"/>
      <point x="159" y="443" type="curve" smooth="yes"/>
      <point x="159" y="374"/>
      <point x="205" y="305"/>
    </contour>
  </outline>
</glyph>
<glyph name="question" format="2">
  <advance width="462"/>
  <unicode hex="003F"/>
  <outline>
    <contour>
      <point x="169" y="211" type="line"/>
      <point x="175" y="224"/>
      <point x="190" y="237"/>
      <point x="211" y="252" type="curve" smooth="yes"/>
      <point x="230" y="266"/>
      <point x="254" y="280"/>
      <point x="279" y="297" type="curve" smooth="yes"/>
      <point x="349" y="342"/>
      <point x="433" y="400"/>
      <point x="469" y="484" type="curve" smooth="yes"/>
      <point x="481" y="511"/>
      <point x="488" y="541"/>
      <point x="488" y="574" type="curve" smooth="yes"/>
      <point x="488" y="669"/>
      <point x="419" y="719"/>
      <point x="329" y="719" type="curve" smooth="yes"/>
      <point x="236" y="719"/>
      <point x="146" y="668"/>
      <point x="96" y="590" type="curve"/>
      <point x="146" y="551" type="line"/>
      <point x="184" y="603"/>
      <point x="245" y="646"/>
      <point x="311" y="646" type="curve" smooth="yes"/>
      <point x="365" y="646"/>
      <point x="410" y="614"/>
      <point x="410" y="557" type="curve" smooth="yes"/>
      <point x="410" y="539"/>
      <point x="406" y="522"/>
      <point x="400" y="506" type="curve" smooth="yes"/>
      <point x="389" y="478"/>
      <point x="370" y="454"/>
      <point x="348" y="432" type="curve" smooth="yes"/>
      <point x="269" y="354"/>
      <point x="142" y="301"/>
      <point x="142" y="238" type="curve" smooth="yes"/>
      <point x="142" y="228"/>
      <point x="146" y="219"/>
      <point x="151" y="211" type="curve"/>
    </contour>
    <contour>
      <point x="70" y="34" type="curve" smooth="yes"/>
      <point x="70" y="8"/>
      <point x="89" y="-10"/>
      <point x="114" y="-10" type="curve" smooth="yes"/>
      <point x="149" y="-10"/>
      <point x="182" y="23"/>
      <point x="182" y="58" type="curve" smooth="yes"/>
      <point x="182" y="84"/>
      <point x="163" y="102"/>
      <point x="138" y="102" type="curve" smooth="yes"/>
      <point x="103" y="102"/>
      <point x="70" y="69"/>
    </contour>
  </outline>
</glyph>
<glyph name="at" format="2">
  <advance width="808"/>
  <unicode hex="0040"/>
  <outline>
    <contour>
      <point x="569" y="28" type="qcurve" smooth="yes"/>
      <point x="552" y="28"/>
      <point x="537" y="46"/>
      <point x="537" y="66" type="qcurve" smooth="yes"/>
      <point x="537" y="72"/>
      <point x="539" y="89"/>
      <point x="541" y="99" type="qcurve" smooth="yes"/>
      <point x="616" y="450" type="line"/>
      <point x="560" y="450" type="line"/>
      <point x="542" y="362" type="line"/>
      <point x="528" y="403"/>
      <point x="461" y="458"/>
      <point x="407" y="458" type="qcurve" smooth="yes"/>
      <point x="360" y="458"/>
      <point x="272" y="412"/>
      <point x="205" y="336"/>
      <point x="164" y="236"/>
      <point x="164" y="183" type="qcurve" smooth="yes"/>
      <point x="164" y="146"/>
      <point x="186" y="79"/>
      <point x="226" y="28"/>
      <point x="285" y="-1"/>
      <point x="322" y="-1" type="qcurve" smooth="yes"/>
      <point x="367" y="-1"/>
      <point x="456" y="41"/>
      <point x="489" y="73" type="qcurve"/>
      <point x="487" y="67"/>
      <point x="487" y="55"/>
      <point x="487" y="50" type="qcurve" smooth="yes"/>
      <point x="487" y="13"/>
      <point x="527" y="-16"/>
      <point x="556" y="-16" type="qcurve" smooth="yes"/>
      <point x="593" y="-16"/>
      <point x="649" y="19"/>
      <point x="692" y="77"/>
      <point x="721" y="149"/>
      <point x="739" y="222"/>
      <point x="747" y="290"/>
      <point x="747" y="314" type="qcurve" smooth="yes"/>
      <point x="747" y="369"/>
      <point x="709" y="473"/>
      <point x="637" y="554"/>
      <point x="531" y="603"/>
      <point x="463" y="603" type="qcurve" smooth="yes"/>
      <point x="386" y="603"/>
      <point x="230" y="539"/>
      <point x="104" y="422"/>
      <point x="24" y="259"/>
      <point x="24" y="160" type="qcurve" smooth="yes"/>
      <point x="24" y="91"/>
      <point x="64" y="-21"/>
      <point x="137" y="-102"/>
      <point x="239" y="-146"/>
      <point x="300" y="-146" type="qcurve" smooth="yes"/>
      <point x="340" y="-146"/>
      <point x="425" y="-126"/>
      <point x="468" y="-106" type="qcurve"/>
      <point x="463" y="-68" type="line"/>
      <point x="424" y="-85"/>
      <point x="351" y="-106"/>
      <point x="309" y="-106" type="qcurve" smooth="yes"/>
      <point x="252" y="-106"/>
      <point x="162" y="-65"/>
      <point x="99" y="8"/>
      <point x="66" y="107"/>
      <point x="66" y="164" type="qcurve" smooth="yes"/>
      <point x="66" y="248"/>
      <point x="133" y="394"/>
      <point x="242" y="501"/>
      <point x="381" y="563"/>
      <point x="453" y="563" type="qcurve" smooth="yes"/>
      <point x="516" y="563"/>
      <point x="610" y="518"/>
      <point x="673" y="445"/>
      <point x="705" y="351"/>
      <point x="705" y="302" type="qcurve" smooth="yes"/>
      <point x="705" y="265"/>
      <point x="687" y="170"/>
      <point x="652" y="86"/>
      <point x="601" y="28"/>
    </contour>
    <contour>
      <point x="347" y="49" type="qcurve" smooth="yes"/>
      <point x="322" y="49"/>
      <point x="276" y="71"/>
      <point x="243" y="111"/>
      <point x="223" y="166"/>
      <point x="223" y="199" type="qcurve" smooth="yes"/>
      <point x="223" y="242"/>
      <point x="256" y="318"/>
      <point x="309" y="374"/>
      <point x="374" y="407"/>
      <point x="406" y="407" type="qcurve" smooth="yes"/>
      <point x="444" y="407"/>
      <point x="509" y="357"/>
      <point x="525" y="300" type="qcurve"/>
      <point x="501" y="163" type="line"/>
      <point x="492" y="141"/>
      <point x="460" y="99"/>
      <point x="419" y="68"/>
      <point x="371" y="49"/>
    </contour>
  </outline>
</glyph>
<glyph name="B" format="2">
  <advance width="647"/>
  <unicode hex="0042"/>
  <outline>
    <contour>
      <point x="20" y="0" type="line"/>
      <point x="341" y="0" type="line" smooth="yes"/>
      <point x="388" y="0"/>
      <point x="475" y="32"/>
      <point x="543" y="90"/>
      <point x="584" y="172"/>
      <point x="584" y="221" type="qcurve" smooth="yes"/>
      <point x="584" y="272"/>
      <point x="537" y="349"/>
      <point x="492" y="364" type="qcurve"/>
      <point x="523" y="377"/>
      <point x="573" y="420"/>
      <point x="609" y="473"/>
      <point x="629" y="534"/>
      <point x="629" y="565" type="qcurve" smooth="yes"/>
      <point x="629" y="593"/>
      <point x="614" y="645"/>
      <point x="584" y="686"/>
      <point x="539" y="710"/>
      <point x="509" y="710" type="qcurve" smooth="yes"/>
      <point x="171" y="710" type="line"/>
    </contour>
    <contour>
      <point x="127" y="78" type="line"/>
      <point x="178" y="322" type="line"/>
      <point x="416" y="322" type="line" smooth="yes"/>
      <point x="434" y="322"/>
      <point x="464" y="306"/>
      <point x="484" y="279"/>
      <point x="495" y="244"/>
      <point x="495" y="224" type="qcurve" smooth="yes"/>
      <point x="495" y="196"/>
      <point x="472" y="143"/>
      <point x="433" y="102"/>
      <point x="383" y="78"/>
      <point x="357" y="78" type="qcurve" smooth="yes"/>
    </contour>
    <contour>
      <point x="194" y="395" type="line"/>
      <point x="244" y="632" type="line"/>
      <point x="461" y="632" type="line" smooth="yes"/>
      <point x="478" y="632"/>
      <point x="506" y="618"/>
      <point x="525" y="593"/>
      <point x="535" y="559"/>
      <point x="535" y="539" type="qcurve" smooth="yes"/>
      <point x="535" y="510"/>
      <point x="513" y="458"/>
      <point x="477" y="418"/>
      <point x="430" y="395"/>
      <point x="405" y="395" type="qcurve" smooth="yes"/>
    </contour>
  </outline>
</glyph>
<glyph name="C" format="2">
  <advance width="653"/>
  <unicode hex="0043"/>
  <outline>
    <contour>
      <point x="302" y="-6" type="qcurve" smooth="yes"/>
      <point x="340" y="-6"/>
      <point x="422" y="14"/>
      <point x="500" y="54"/>
      <point x="570" y="117"/>
      <point x="597" y="159" type="qcurve"/>
      <point x="531" y="200" type="line"/>
      <point x="510" y="168"/>
      <point x="458" y="121"/>
      <point x="403" y="90"/>
      <point x="345" y="75"/>
      <point x="318" y="75" type="qcurve" smooth="yes"/>
      <point x="274" y="75"/>
      <point x="206" y="111"/>
      <point x="160" y="172"/>
      <point x="136" y="254"/>
      <point x="136" y="300" type="qcurve" smooth="yes"/>
      <point x="136" y="356"/>
      <point x="172" y="474"/>
      <point x="245" y="571"/>
      <point x="355" y="633"/>
      <point x="430" y="633" type="qcurve" smooth="yes"/>
      <point x="457" y="633"/>
      <point x="507" y="623"/>
      <point x="551" y="597"/>
      <point x="585" y="551"/>
      <point x="595" y="516" type="qcurve"/>
      <point x="670" y="559" type="line"/>
      <point x="661" y="592"/>
      <point x="624" y="649"/>
      <point x="568" y="690"/>
      <point x="491" y="714"/>
      <point x="442" y="714" type="qcurve" smooth="yes"/>
      <point x="352" y="714"/>
      <point x="205" y="637"/>
      <point x="101" y="516"/>
      <point x="45" y="364"/>
      <point x="45" y="289" type="qcurve" smooth="yes"/>
      <point x="45" y="234"/>
      <point x="77" y="127"/>
      <point x="142" y="45"/>
      <point x="238" y="-6"/>
    </contour>
  </outline>
</glyph>
<glyph name="G" format="2">
  <advance width="717"/>
  <unicode hex="0047"/>
  <outline>
    <contour>
      <point x="303" y="-5" type="curve" smooth="yes"/>
      <point x="409" y="-5"/>
      <point x="514" y="34"/>
      <point x="603" y="120" type="curve"/>
      <point x="653" y="357" type="line"/>
      <point x="375" y="357" type="line"/>
      <point x="358" y="277" type="line"/>
      <point x="550" y="277" type="line"/>
      <point x="522" y="149" type="line"/>
      <point x="469" y="98"/>
      <point x="407" y="76"/>
      <point x="314" y="76" type="curve" smooth="yes"/>
      <point x="170" y="76"/>
      <point x="111" y="217"/>
      <point x="140" y="354" type="curve" smooth="yes"/>
      <point x="169" y="493"/>
      <point x="288" y="634"/>
      <point x="432" y="634" type="curve" smooth="yes"/>
      <point x="529" y="634"/>
      <point x="581" y="565"/>
      <point x="602" y="506" type="curve"/>
      <point x="682" y="563" type="line"/>
      <point x="648" y="655"/>
      <point x="569" y="715"/>
      <point x="454" y="715" type="curve" smooth="yes"/>
      <point x="262" y="715"/>
      <point x="92" y="543"/>
      <point x="53" y="358" type="curve" smooth="yes"/>
      <point x="14" y="172"/>
      <point x="111" y="-5"/>
    </contour>
  </outline>
</glyph>
<glyph name="J" format="2">
  <advance width="500"/>
  <unicode hex="004A"/>
  <anchor x="428" y="708" name="m.uni0302"/>
  <anchor x="0" y="0" name="m.uni031B_1"/>
  <anchor x="0" y="0" name="b.uni0326_2"/>
  <anchor x="0" y="0" name="b.uni0328_3"/>
  <anchor x="0" y="0" name="b.uni0335_4"/>
  <outline>
    <contour>
      <point x="76" y="167" type="line"/>
      <point x="91" y="120"/>
      <point x="119" y="72"/>
      <point x="175" y="72" type="curve" smooth="yes"/>
      <point x="274" y="72"/>
      <point x="331" y="158"/>
      <point x="348" y="247" type="curve" smooth="yes"/>
      <point x="437" y="710" type="line"/>
      <point x="522" y="710" type="line"/>
      <point x="424" y="215" type="line" smooth="yes"/>
      <point x="399" y="87"/>
      <point x="298" y="-10"/>
      <point x="164" y="-10" type="curve" smooth="yes"/>
      <point x="76" y="-10"/>
      <point x="17" y="48"/>
      <point x="-5" y="130" type="curve"/>
    </contour>
  </outline>
</glyph>
<glyph name="L" format="2">
  <advance width="559"/>
  <unicode hex="004C"/>
  <outline>
    <contour>
      <point x="20" y="0" type="line"/>
      <point x="483" y="0" type="line"/>
      <point x="500" y="80" type="line"/>
      <point x="127" y="80" type="line"/>
      <point x="261" y="710" type="line"/>
      <point x="171" y="710" type="line"/>
    </contour>
  </outline>
</glyph>
<glyph name="P" format="2">
  <advance width="601"/>
  <unicode hex="0050"/>
  <outline>
    <contour>
      <point x="20" y="0" type="line"/>
      <point x="110" y="0" type="line"/>
      <point x="164" y="255" type="line"/>
      <point x="361" y="255" type="line" smooth="yes"/>
      <point x="413" y="255"/>
      <point x="505" y="302"/>
      <point x="574" y="378"/>
      <point x="615" y="474"/>
      <point x="615" y="522" type="qcurve" smooth="yes"/>
      <point x="615" y="558"/>
      <point x="593" y="626"/>
      <point x="551" y="678"/>
      <point x="491" y="710"/>
      <point x="453" y="710" type="qcurve" smooth="yes"/>
      <point x="171" y="710" type="line"/>
    </contour>
    <contour>
      <point x="181" y="335" type="line"/>
      <point x="244" y="630" type="line"/>
      <point x="430" y="630" type="line" smooth="yes"/>
      <point x="450" y="630"/>
      <point x="484" y="613"/>
      <point x="509" y="582"/>
      <point x="523" y="539"/>
      <point x="523" y="514" type="qcurve" smooth="yes"/>
      <point x="523" y="480"/>
      <point x="499" y="415"/>
      <point x="458" y="365"/>
      <point x="403" y="335"/>
      <point x="373" y="335" type="qcurve" smooth="yes"/>
    </contour>
  </outline>
</glyph>
<glyph name="Q" format="2">
  <advance width="721"/>
  <unicode hex="0051"/>
  <anchor x="314" y="0" name="bottom"/>
  <anchor x="361" y="355" name="center"/>
  <anchor x="336" y="0" name="ogonek"/>
  <anchor x="451" y="708" name="top"/>
  <anchor x="20" y="710" name="topleft"/>
  <anchor x="555" y="674" name="topright"/>
  <outline>
    <contour>
      <point x="295" y="-5" type="curve" smooth="yes"/>
      <point x="504" y="-5"/>
      <point x="699" y="205"/>
      <point x="699" y="420" type="curve" smooth="yes"/>
      <point x="699" y="571"/>
      <point x="611" y="715"/>
      <point x="450" y="715" type="curve" smooth="yes"/>
      <point x="241" y="715"/>
      <point x="44" y="505"/>
      <point x="44" y="288" type="curve" smooth="yes"/>
      <point x="44" y="135"/>
      <point x="134" y="-5"/>
    </contour>
    <contour>
      <point x="313" y="76" type="curve" smooth="yes"/>
      <point x="198" y="76"/>
      <point x="136" y="178"/>
      <point x="136" y="296" type="curve" smooth="yes"/>
      <point x="136" y="456"/>
      <point x="267" y="633"/>
      <point x="431" y="633" type="curve" smooth="yes"/>
      <point x="544" y="633"/>
      <point x="607" y="531"/>
      <point x="607" y="413" type="curve" smooth="yes"/>
      <point x="607" y="255"/>
      <point x="477" y="76"/>
    </contour>
    <contour>
      <point x="596" y="-10" type="line"/>
      <point x="660" y="44" type="line"/>
      <point x="434" y="312" type="line"/>
      <point x="370" y="258" type="line"/>
    </contour>
  </outline>
</glyph>
<glyph name="S" format="2">
  <advance width="588"/>
  <unicode hex="0053"/>
  <outline>
    <contour>
      <point x="242" y="-7" type="qcurve" smooth="yes"/>
      <point x="302" y="-7"/>
      <point x="408" y="22"/>
      <point x="488" y="80"/>
      <point x="535" y="169"/>
      <point x="535" y="229" type="qcurve" smooth="yes"/>
      <point x="535" y="266"/>
      <point x="508" y="318"/>
      <point x="459" y="356"/>
      <point x="389" y="383"/>
      <point x="346" y="394" type="qcurve" smooth="yes"/>
      <point x="309" y="403"/>
      <point x="252" y="422"/>
      <point x="214" y="445"/>
      <point x="195" y="476"/>
      <point x="195" y="498" type="qcurve" smooth="yes"/>
      <point x="195" y="528"/>
      <point x="216" y="578"/>
      <point x="259" y="614"/>
      <point x="325" y="635"/>
      <point x="370" y="635" type="qcurve" smooth="yes"/>
      <point x="400" y="635"/>
      <point x="454" y="622"/>
      <point x="497" y="601"/>
      <point x="529" y="575"/>
      <point x="537" y="561" type="qcurve"/>
      <point x="594" y="634" type="line"/>
      <point x="577" y="652"/>
      <point x="534" y="682"/>
      <point x="482" y="703"/>
      <point x="423" y="715"/>
      <point x="389" y="715" type="qcurve" smooth="yes"/>
      <point x="329" y="715"/>
      <point x="222" y="681"/>
      <point x="142" y="618"/>
      <point x="96" y="527"/>
      <point x="96" y="469" type="qcurve" smooth="yes"/>
      <point x="96" y="437"/>
      <point x="119" y="390"/>
      <point x="163" y="355"/>
      <point x="227" y="329"/>
      <point x="268" y="318" type="qcurve" smooth="yes"/>
      <point x="307" y="308"/>
      <point x="369" y="287"/>
      <point x="412" y="260"/>
      <point x="435" y="225"/>
      <point x="435" y="201" type="qcurve" smooth="yes"/>
      <point x="435" y="171"/>
      <point x="411" y="124"/>
      <point x="366" y="91"/>
      <point x="302" y="74"/>
      <point x="261" y="74" type="qcurve" smooth="yes"/>
      <point x="222" y="74"/>
      <point x="154" y="91"/>
      <point x="99" y="118"/>
      <point x="58" y="152"/>
      <point x="47" y="169" type="qcurve"/>
      <point x="-12" y="93" type="line"/>
      <point x="11" y="69"/>
      <point x="67" y="31"/>
      <point x="132" y="6"/>
      <point x="203" y="-7"/>
    </contour>
  </outline>
</glyph>
<glyph name="U" format="2">
  <advance width="725"/>
  <unicode hex="0055"/>
  <outline>
    <contour>
      <point x="298" y="-5" type="qcurve" smooth="yes"/>
      <point x="376" y="-5"/>
      <point x="497" y="52"/>
      <point x="587" y="150"/>
      <point x="646" y="279"/>
      <point x="661" y="351" type="qcurve" smooth="yes"/>
      <point x="737" y="710" type="line"/>
      <point x="647" y="710" type="line"/>
      <point x="571" y="351" type="line" smooth="yes"/>
      <point x="560" y="300"/>
      <point x="520" y="201"/>
      <point x="458" y="124"/>
      <point x="372" y="76"/>
      <point x="314" y="76" type="qcurve" smooth="yes"/>
      <point x="272" y="76"/>
      <point x="214" y="102"/>
      <point x="178" y="149"/>
      <point x="163" y="211"/>
      <point x="163" y="247" type="qcurve" smooth="yes"/>
      <point x="163" y="272"/>
      <point x="169" y="324"/>
      <point x="175" y="351" type="qcurve" smooth="yes"/>
      <point x="251" y="710" type="line"/>
      <point x="161" y="710" type="line"/>
      <point x="85" y="351" type="line" smooth="yes"/>
      <point x="78" y="320"/>
      <point x="71" y="261"/>
      <point x="71" y="232" type="qcurve" smooth="yes"/>
      <point x="71" y="183"/>
      <point x="95" y="96"/>
      <point x="149" y="32"/>
      <point x="235" y="-5"/>
    </contour>
  </outline>
</glyph>
<glyph name="c" format="2">
  <advance width="531"/>
  <unicode hex="0063"/>
  <outline>
    <contour>
      <point x="227" y="-10" type="qcurve" smooth="yes"/>
      <point x="264" y="-10"/>
      <point x="335" y="10"/>
      <point x="397" y="44"/>
      <point x="449" y="93"/>
      <point x="466" y="121" type="qcurve"/>
      <point x="385" y="147" type="line"/>
      <point x="376" y="131"/>
      <point x="344" y="101"/>
      <point x="305" y="79"/>
      <point x="260" y="66"/>
      <point x="239" y="66" type="qcurve" smooth="yes"/>
      <point x="211" y="66"/>
      <point x="164" y="89"/>
      <point x="131" y="131"/>
      <point x="113" y="188"/>
      <point x="113" y="222" type="qcurve" smooth="yes"/>
      <point x="113" y="270"/>
      <point x="148" y="355"/>
      <point x="207" y="418"/>
      <point x="282" y="455"/>
      <point x="322" y="455" type="qcurve" smooth="yes"/>
      <point x="363" y="455"/>
      <point x="419" y="415"/>
      <point x="431" y="377" type="qcurve"/>
      <point x="522" y="404" type="line"/>
      <point x="507" y="462"/>
      <point x="414" y="531"/>
      <point x="337" y="531" type="qcurve" smooth="yes"/>
      <point x="270" y="531"/>
      <point x="155" y="478"/>
      <point x="70" y="389"/>
      <point x="22" y="274"/>
      <point x="22" y="211" type="qcurve" smooth="yes"/>
      <point x="22" y="165"/>
      <point x="49" y="85"/>
      <point x="101" y="25"/>
      <point x="178" y="-10"/>
    </contour>
  </outline>
</glyph>
<glyph name="e" format="2">
  <advance width="539"/>
  <unicode hex="0065"/>
  <outline>
    <contour>
      <point x="228" y="-10" type="qcurve" smooth="yes"/>
      <point x="265" y="-10"/>
      <point x="336" y="10"/>
      <point x="400" y="45"/>
      <point x="454" y="93"/>
      <point x="472" y="122" type="qcurve"/>
      <point x="401" y="143" type="line"/>
      <point x="389" y="123"/>
      <point x="353" y="91"/>
      <point x="311" y="68"/>
      <point x="265" y="56"/>
      <point x="242" y="56" type="qcurve" smooth="yes"/>
      <point x="209" y="56"/>
      <point x="160" y="81"/>
      <point x="128" y="124"/>
      <point x="112" y="180"/>
      <point x="112" y="211" type="qcurve" smooth="yes"/>
      <point x="112" y="251"/>
      <point x="138" y="340"/>
      <point x="192" y="415"/>
      <point x="276" y="465"/>
      <point x="333" y="465" type="qcurve" smooth="yes"/>
      <point x="356" y="465"/>
      <point x="393" y="456"/>
      <point x="420" y="438"/>
      <point x="434" y="410"/>
      <point x="434" y="391" type="qcurve" smooth="yes"/>
      <point x="434" y="369"/>
      <point x="413" y="332"/>
      <point x="365" y="305"/>
      <point x="288" y="290"/>
      <point x="231" y="290" type="qcurve" smooth="yes"/>
      <point x="206" y="290"/>
      <point x="149" y="293"/>
      <point x="116" y="296" type="qcurve"/>
      <point x="92" y="236" type="line"/>
      <point x="131" y="232"/>
      <point x="200" y="229"/>
      <point x="228" y="229" type="qcurve" smooth="yes"/>
      <point x="374" y="229"/>
      <point x="513" y="310"/>
      <point x="513" y="390" type="qcurve" smooth="yes"/>
      <point x="513" y="425"/>
      <point x="487" y="478"/>
      <point x="441" y="513"/>
      <point x="377" y="531"/>
      <point x="339" y="531" type="qcurve" smooth="yes"/>
      <point x="271" y="531"/>
      <point x="155" y="478"/>
      <point x="71" y="389"/>
      <point x="23" y="274"/>
      <point x="23" y="211" type="qcurve" smooth="yes"/>
      <point x="23" y="165"/>
      <point x="50" y="84"/>
      <point x="103" y="24"/>
      <point x="179" y="-10"/>
    </contour>
  </outline>
</glyph>
<glyph name="f" format="2">
  <advance width="334"/>
  <unicode hex="0066"/>
  <outline>
    <contour>
      <point x="-15" y="-212" type="line"/>
      <point x="73" y="-212" type="line"/>
      <point x="214" y="453" type="line"/>
      <point x="345" y="453" type="line"/>
      <point x="360" y="522" type="line"/>
      <point x="229" y="522" type="line"/>
      <point x="232" y="536" type="line" smooth="yes"/>
      <point x="246" y="599"/>
      <point x="302" y="665"/>
      <point x="343" y="665" type="qcurve" smooth="yes"/>
      <point x="361" y="665"/>
      <point x="398" y="653"/>
      <point x="409" y="643" type="qcurve"/>
      <point x="445" y="708" type="line"/>
      <point x="424" y="723"/>
      <point x="370" y="740"/>
      <point x="341" y="740" type="qcurve" smooth="yes"/>
      <point x="306" y="740"/>
      <point x="242" y="712"/>
      <point x="190" y="658"/>
      <point x="152" y="581"/>
      <point x="143" y="533" type="qcurve" smooth="yes"/>
      <point x="141" y="522" type="line"/>
      <point x="74" y="522" type="line"/>
      <point x="59" y="453" type="line"/>
      <point x="126" y="453" type="line"/>
    </contour>
  </outline>
</glyph>
<glyph name="g" format="2">
  <advance width="599"/>
  <unicode hex="0067"/>
  <outline>
    <contour>
      <point x="164" y="-223" type="qcurve" smooth="yes"/>
      <point x="217" y="-223"/>
      <point x="317" y="-193"/>
      <point x="398" y="-135"/>
      <point x="455" y="-50"/>
      <point x="467" y="6" type="qcurve" smooth="yes"/>
      <point x="577" y="522" type="line"/>
      <point x="499" y="522" type="line"/>
      <point x="477" y="418" type="line"/>
      <point x="467" y="442"/>
      <point x="437" y="484"/>
      <point x="398" y="514"/>
      <point x="348" y="531"/>
      <point x="317" y="531" type="qcurve" smooth="yes"/>
      <point x="258" y="531"/>
      <point x="151" y="477"/>
      <point x="70" y="387"/>
      <point x="22" y="270"/>
      <point x="22" y="207" type="qcurve" smooth="yes"/>
      <point x="22" y="164"/>
      <point x="46" y="87"/>
      <point x="92" y="29"/>
      <point x="159" y="-6"/>
      <point x="201" y="-6" type="qcurve" smooth="yes"/>
      <point x="227" y="-6"/>
      <point x="282" y="9"/>
      <point x="333" y="36"/>
      <point x="380" y="74"/>
      <point x="398" y="98" type="qcurve"/>
      <point x="379" y="6" type="line" smooth="yes"/>
      <point x="370" y="-35"/>
      <point x="331" y="-95"/>
      <point x="277" y="-135"/>
      <point x="212" y="-155"/>
      <point x="178" y="-155" type="qcurve" smooth="yes"/>
      <point x="124" y="-155"/>
      <point x="42" y="-109"/>
      <point x="22" y="-63" type="qcurve"/>
      <point x="-38" y="-108" type="line"/>
      <point x="-26" y="-135"/>
      <point x="9" y="-177"/>
      <point x="57" y="-207"/>
      <point x="122" y="-223"/>
    </contour>
    <contour>
      <point x="244" y="66" type="qcurve" smooth="yes"/>
      <point x="214" y="66"/>
      <point x="166" y="91"/>
      <point x="132" y="133"/>
      <point x="113" y="189"/>
      <point x="113" y="221" type="qcurve" smooth="yes"/>
      <point x="113" y="262"/>
      <point x="145" y="345"/>
      <point x="201" y="412"/>
      <point x="276" y="455"/>
      <point x="319" y="455" type="qcurve" smooth="yes"/>
      <point x="343" y="455"/>
      <point x="387" y="437"/>
      <point x="421" y="404"/>
      <point x="445" y="360"/>
      <point x="449" y="333" type="qcurve"/>
      <point x="417" y="183" type="line"/>
      <point x="407" y="161"/>
      <point x="370" y="119"/>
      <point x="323" y="86"/>
      <point x="270" y="66"/>
    </contour>
  </outline>
</glyph>
<glyph name="k" format="2">
  <advance width="542"/>
  <unicode hex="006B"/>
  <outline>
    <contour>
      <point x="365" y="0" type="line"/>
      <point x="460" y="0" type="line"/>
      <point x="345" y="219" type="line"/>
      <point x="428" y="254"/>
      <point x="513" y="362"/>
      <point x="513" y="426" type="qcurve" smooth="yes"/>
      <point x="513" y="474"/>
      <point x="463" y="531"/>
      <point x="409" y="531" type="qcurve" smooth="yes"/>
      <point x="371" y="531"/>
      <point x="301" y="504"/>
      <point x="239" y="459"/>
      <point x="184" y="398"/>
      <point x="160" y="365" type="qcurve"/>
      <point x="140" y="227" type="line"/>
      <point x="157" y="275"/>
      <point x="212" y="360"/>
      <point x="279" y="423"/>
      <point x="352" y="459"/>
      <point x="386" y="459" type="qcurve" smooth="yes"/>
      <point x="407" y="459"/>
      <point x="433" y="440"/>
      <point x="433" y="414" type="qcurve" smooth="yes"/>
      <point x="433" y="366"/>
      <point x="336" y="276"/>
      <point x="241" y="255" type="qcurve"/>
    </contour>
    <contour>
      <point x="5" y="0" type="line"/>
      <point x="93" y="0" type="line"/>
      <point x="248" y="730" type="line"/>
      <point x="160" y="730" type="line"/>
    </contour>
  </outline>
</glyph>
<glyph name="l" format="2">
  <advance width="280"/>
  <unicode hex="006C"/>
  <outline>
    <contour>
      <point x="112" y="-7" type="qcurve" smooth="yes"/>
      <point x="135" y="-7"/>
      <point x="195" y="5"/>
      <point x="218" y="14" type="qcurve"/>
      <point x="221" y="85" type="line"/>
      <point x="207" y="80"/>
      <point x="177" y="73"/>
      <point x="166" y="73" type="qcurve" smooth="yes"/>
      <point x="144" y="73"/>
      <point x="121" y="96"/>
      <point x="121" y="116" type="qcurve" smooth="yes"/>
      <point x="121" y="121"/>
      <point x="122" y="130"/>
      <point x="123" y="135" type="qcurve" smooth="yes"/>
      <point x="249" y="730" type="line"/>
      <point x="162" y="730" type="line"/>
      <point x="29" y="103" type="line"/>
      <point x="27" y="95"/>
      <point x="25" y="79"/>
      <point x="25" y="71" type="qcurve" smooth="yes"/>
      <point x="25" y="34"/>
      <point x="70" y="-7"/>
    </contour>
  </outline>
</glyph>
<glyph name="m" format="2">
  <advance width="883"/>
  <unicode hex="006D"/>
  <outline>
    <contour>
      <point x="5" y="0" type="line"/>
      <point x="93" y="0" type="line"/>
      <point x="160" y="315" type="line"/>
      <point x="175" y="346"/>
      <point x="215" y="396"/>
      <point x="261" y="432"/>
      <point x="311" y="452"/>
      <point x="336" y="452" type="qcurve" smooth="yes"/>
      <point x="371" y="452"/>
      <point x="407" y="411"/>
      <point x="407" y="366" type="qcurve" smooth="yes"/>
      <point x="407" y="350"/>
      <point x="403" y="314"/>
      <point x="398" y="292" type="qcurve" smooth="yes"/>
      <point x="336" y="0" type="line"/>
      <point x="424" y="0" type="line"/>
      <point x="490" y="314" type="line"/>
      <point x="505" y="344"/>
      <point x="545" y="395"/>
      <point x="591" y="432"/>
      <point x="641" y="452"/>
      <point x="666" y="452" type="qcurve" smooth="yes"/>
      <point x="701" y="452"/>
      <point x="738" y="410"/>
      <point x="738" y="365" type="qcurve" smooth="yes"/>
      <point x="738" y="349"/>
      <point x="734" y="313"/>
      <point x="729" y="292" type="qcurve" smooth="yes"/>
      <point x="667" y="0" type="line"/>
      <point x="755" y="0" type="line"/>
      <point x="822" y="312" type="line" smooth="yes"/>
      <point x="827" y="337"/>
      <point x="833" y="383"/>
      <point x="833" y="404" type="qcurve" smooth="yes"/>
      <point x="833" y="433"/>
      <point x="821" y="479"/>
      <point x="793" y="513"/>
      <point x="749" y="531"/>
      <point x="717" y="531" type="qcurve" smooth="yes"/>
      <point x="687" y="531"/>
      <point x="630" y="515"/>
      <point x="576" y="483"/>
      <point x="526" y="435"/>
      <point x="503" y="404" type="qcurve"/>
      <point x="502" y="434"/>
      <point x="486" y="482"/>
      <point x="455" y="514"/>
      <point x="411" y="531"/>
      <point x="382" y="531" type="qcurve" smooth="yes"/>
      <point x="324" y="531"/>
      <point x="212" y="466"/>
      <point x="172" y="410" type="qcurve"/>
      <point x="196" y="522" type="line"/>
      <point x="116" y="522" type="line"/>
    </contour>
  </outline>
</glyph>
<glyph name="n" format="2">
  <advance width="567"/>
  <unicode hex="006E"/>
  <outline>
    <contour>
      <point x="5" y="0" type="line"/>
      <point x="93" y="0" type="line"/>
      <point x="160" y="315" type="line"/>
      <point x="175" y="345"/>
      <point x="219" y="395"/>
      <point x="271" y="431"/>
      <point x="326" y="452"/>
      <point x="351" y="452" type="qcurve" smooth="yes"/>
      <point x="386" y="452"/>
      <point x="422" y="411"/>
      <point x="422" y="367" type="qcurve" smooth="yes"/>
      <point x="422" y="351"/>
      <point x="418" y="314"/>
      <point x="413" y="292" type="qcurve" smooth="yes"/>
      <point x="351" y="0" type="line"/>
      <point x="439" y="0" type="line"/>
      <point x="505" y="312" type="line" smooth="yes"/>
      <point x="510" y="338"/>
      <point x="517" y="386"/>
      <point x="517" y="408" type="qcurve" smooth="yes"/>
      <point x="517" y="436"/>
      <point x="505" y="481"/>
      <point x="478" y="513"/>
      <point x="435" y="531"/>
      <point x="403" y="531" type="qcurve" smooth="yes"/>
      <point x="370" y="531"/>
      <point x="305" y="514"/>
      <point x="245" y="482"/>
      <point x="192" y="437"/>
      <point x="172" y="410" type="qcurve"/>
      <point x="196" y="522" type="line"/>
      <point x="116" y="522" type="line"/>
    </contour>
  </outline>
</glyph>
<glyph name="o" format="2">
  <advance width="578"/>
  <unicode hex="006F"/>
  <outline>
    <contour>
      <point x="229" y="-10" type="qcurve" smooth="yes"/>
      <point x="293" y="-10"/>
      <point x="406" y="41"/>
      <point x="490" y="128"/>
      <point x="539" y="245"/>
      <point x="539" y="310" type="qcurve" smooth="yes"/>
      <point x="539" y="356"/>
      <point x="513" y="436"/>
      <point x="461" y="496"/>
      <point x="383" y="531"/>
      <point x="330" y="531" type="qcurve" smooth="yes"/>
      <point x="267" y="531"/>
      <point x="155" y="480"/>
      <point x="71" y="392"/>
      <point x="22" y="276"/>
      <point x="22" y="210" type="qcurve" smooth="yes"/>
      <point x="22" y="165"/>
      <point x="47" y="85"/>
      <point x="99" y="25"/>
      <point x="177" y="-10"/>
    </contour>
    <contour>
      <point x="244" y="66" type="qcurve" smooth="yes"/>
      <point x="212" y="66"/>
      <point x="163" y="89"/>
      <point x="130" y="131"/>
      <point x="113" y="188"/>
      <point x="113" y="222" type="qcurve" smooth="yes"/>
      <point x="113" y="272"/>
      <point x="147" y="357"/>
      <point x="204" y="420"/>
      <point x="277" y="455"/>
      <point x="316" y="455" type="qcurve" smooth="yes"/>
      <point x="348" y="455"/>
      <point x="397" y="431"/>
      <point x="430" y="389"/>
      <point x="447" y="331"/>
      <point x="447" y="297" type="qcurve" smooth="yes"/>
      <point x="447" y="247"/>
      <point x="413" y="162"/>
      <point x="356" y="101"/>
      <point x="283" y="66"/>
    </contour>
  </outline>
</glyph>
<glyph name="p" format="2">
  <advance width="600"/>
  <unicode hex="0070"/>
  <outline>
    <contour>
      <point x="-40" y="-213" type="line"/>
      <point x="48" y="-213" type="line"/>
      <point x="115" y="103" type="line"/>
      <point x="124" y="79"/>
      <point x="152" y="37"/>
      <point x="192" y="7"/>
      <point x="243" y="-10"/>
      <point x="273" y="-10" type="qcurve" smooth="yes"/>
      <point x="331" y="-10"/>
      <point x="435" y="44"/>
      <point x="514" y="134"/>
      <point x="560" y="251"/>
      <point x="560" y="313" type="qcurve" smooth="yes"/>
      <point x="560" y="357"/>
      <point x="535" y="436"/>
      <point x="487" y="496"/>
      <point x="419" y="531"/>
      <point x="376" y="531" type="qcurve" smooth="yes"/>
      <point x="348" y="531"/>
      <point x="292" y="516"/>
      <point x="240" y="487"/>
      <point x="193" y="448"/>
      <point x="173" y="424" type="qcurve"/>
      <point x="194" y="522" type="line"/>
      <point x="116" y="522" type="line"/>
    </contour>
    <contour>
      <point x="262" y="66" type="qcurve" smooth="yes"/>
      <point x="237" y="66"/>
      <point x="194" y="85"/>
      <point x="161" y="118"/>
      <point x="138" y="163"/>
      <point x="133" y="189" type="qcurve"/>
      <point x="165" y="338" type="line"/>
      <point x="175" y="362"/>
      <point x="215" y="405"/>
      <point x="263" y="436"/>
      <point x="315" y="455"/>
      <point x="337" y="455" type="qcurve" smooth="yes"/>
      <point x="367" y="455"/>
      <point x="415" y="430"/>
      <point x="450" y="388"/>
      <point x="468" y="331"/>
      <point x="468" y="299" type="qcurve" smooth="yes"/>
      <point x="468" y="257"/>
      <point x="435" y="174"/>
      <point x="378" y="107"/>
      <point x="304" y="66"/>
    </contour>
  </outline>
</glyph>
<glyph name="q" format="2">
  <advance width="599"/>
  <unicode hex="0071"/>
  <outline>
    <contour>
      <point x="333" y="-213" type="line"/>
      <point x="421" y="-213" type="line"/>
      <point x="577" y="522" type="line"/>
      <point x="499" y="522" type="line"/>
      <point x="478" y="423" type="line"/>
      <point x="469" y="447"/>
      <point x="440" y="486"/>
      <point x="400" y="515"/>
      <point x="350" y="531"/>
      <point x="321" y="531" type="qcurve" smooth="yes"/>
      <point x="264" y="531"/>
      <point x="157" y="478"/>
      <point x="73" y="388"/>
      <point x="22" y="269"/>
      <point x="22" y="203" type="qcurve" smooth="yes"/>
      <point x="22" y="160"/>
      <point x="45" y="82"/>
      <point x="89" y="24"/>
      <point x="153" y="-10"/>
      <point x="194" y="-10" type="qcurve" smooth="yes"/>
      <point x="251" y="-10"/>
      <point x="355" y="47"/>
      <point x="400" y="103" type="qcurve"/>
    </contour>
    <contour>
      <point x="240" y="66" type="qcurve" smooth="yes"/>
      <point x="210" y="66"/>
      <point x="164" y="90"/>
      <point x="131" y="131"/>
      <point x="114" y="187"/>
      <point x="114" y="218" type="qcurve" smooth="yes"/>
      <point x="114" y="262"/>
      <point x="149" y="347"/>
      <point x="208" y="414"/>
      <point x="284" y="455"/>
      <point x="325" y="455" type="qcurve" smooth="yes"/>
      <point x="350" y="455"/>
      <point x="394" y="434"/>
      <point x="428" y="400"/>
      <point x="448" y="354"/>
      <point x="448" y="328" type="qcurve"/>
      <point x="416" y="178" type="line"/>
      <point x="399" y="155"/>
      <point x="359" y="114"/>
      <point x="315" y="84"/>
      <point x="266" y="66"/>
    </contour>
  </outline>
</glyph>
<glyph name="r" format="2">
  <advance width="354"/>
  <unicode hex="0072"/>
  <outline>
    <contour>
      <point x="5" y="0" type="line"/>
      <point x="93" y="0" type="line"/>
      <point x="161" y="322" type="line"/>
      <point x="193" y="379"/>
      <point x="302" y="443"/>
      <point x="365" y="445" type="qcurve"/>
      <point x="381" y="521" type="line"/>
      <point x="376" y="522"/>
      <point x="364" y="523"/>
      <point x="355" y="523" type="qcurve" smooth="yes"/>
      <point x="307" y="523"/>
      <point x="210" y="455"/>
      <point x="172" y="401" type="qcurve"/>
      <point x="198" y="522" type="line"/>
      <point x="116" y="522" type="line"/>
    </contour>
  </outline>
</glyph>
<glyph name="s" format="2">
  <advance width="475"/>
  <unicode hex="0073"/>
  <outline>
    <contour>
      <point x="181" y="-10" type="qcurve" smooth="yes"/>
      <point x="234" y="-10"/>
      <point x="320" y="17"/>
      <point x="380" y="63"/>
      <point x="413" y="127"/>
      <point x="413" y="163" type="qcurve" smooth="yes"/>
      <point x="413" y="193"/>
      <point x="391" y="234"/>
      <point x="349" y="265"/>
      <point x="287" y="288"/>
      <point x="246" y="299" type="qcurve" smooth="yes"/>
      <point x="219" y="307"/>
      <point x="181" y="319"/>
      <point x="157" y="334"/>
      <point x="147" y="354"/>
      <point x="147" y="370" type="qcurve" smooth="yes"/>
      <point x="147" y="393"/>
      <point x="168" y="428"/>
      <point x="204" y="452"/>
      <point x="253" y="464"/>
      <point x="282" y="464" type="qcurve" smooth="yes"/>
      <point x="323" y="464"/>
      <point x="384" y="438"/>
      <point x="410" y="409" type="qcurve"/>
      <point x="461" y="462" type="line"/>
      <point x="433" y="493"/>
      <point x="345" y="531"/>
      <point x="286" y="531" type="qcurve" smooth="yes"/>
      <point x="238" y="531"/>
      <point x="155" y="505"/>
      <point x="95" y="457"/>
      <point x="60" y="390"/>
      <point x="60" y="350" type="qcurve" smooth="yes"/>
      <point x="60" y="323"/>
      <point x="77" y="287"/>
      <point x="113" y="262"/>
      <point x="168" y="243"/>
      <point x="205" y="232" type="qcurve" smooth="yes"/>
      <point x="235" y="223"/>
      <point x="279" y="210"/>
      <point x="309" y="193"/>
      <point x="324" y="170"/>
      <point x="324" y="152" type="qcurve" smooth="yes"/>
      <point x="324" y="131"/>
      <point x="304" y="96"/>
      <point x="269" y="71"/>
      <point x="219" y="58"/>
      <point x="189" y="58" type="qcurve" smooth="yes"/>
      <point x="143" y="58"/>
      <point x="62" y="90"/>
      <point x="26" y="125" type="qcurve"/>
      <point x="-24" y="66" type="line"/>
      <point x="10" y="29"/>
      <point x="118" y="-10"/>
    </contour>
  </outline>
</glyph>
<glyph name="u" format="2">
  <advance width="571"/>
  <unicode hex="0075"/>
  <outline>
    <contour>
      <point x="161" y="-10" type="qcurve" smooth="yes"/>
      <point x="190" y="-10"/>
      <point x="249" y="6"/>
      <point x="306" y="36"/>
      <point x="356" y="79"/>
      <point x="376" y="107" type="qcurve"/>
      <point x="353" y="0" type="line"/>
      <point x="438" y="0" type="line"/>
      <point x="549" y="522" type="line"/>
      <point x="461" y="522" type="line"/>
      <point x="392" y="195" type="line"/>
      <point x="376" y="168"/>
      <point x="334" y="120"/>
      <point x="286" y="86"/>
      <point x="234" y="66"/>
      <point x="208" y="66" type="qcurve" smooth="yes"/>
      <point x="162" y="66"/>
      <point x="126" y="116"/>
      <point x="126" y="156" type="qcurve" smooth="yes"/>
      <point x="126" y="172"/>
      <point x="131" y="207"/>
      <point x="135" y="226" type="qcurve" smooth="yes"/>
      <point x="198" y="522" type="line"/>
      <point x="111" y="522" type="line"/>
      <point x="44" y="209" type="line" smooth="yes"/>
      <point x="39" y="186"/>
      <point x="33" y="142"/>
      <point x="33" y="122" type="qcurve" smooth="yes"/>
      <point x="33" y="93"/>
      <point x="46" y="44"/>
      <point x="76" y="9"/>
      <point x="125" y="-10"/>
    </contour>
  </outline>
</glyph>
<glyph name="v" format="2">
  <advance width="508"/>
  <unicode hex="0076"/>
  <outline>
    <contour>
      <point x="139" y="0" type="line"/>
      <point x="245" y="0" type="line"/>
      <point x="528" y="522" type="line"/>
      <point x="433" y="522" type="line"/>
      <point x="206" y="77" type="line"/>
      <point x="147" y="522" type="line"/>
      <point x="56" y="522" type="line"/>
    </contour>
  </outline>
</glyph>
<glyph name="y" format="2">
  <advance width="517"/>
  <unicode hex="0079"/>
  <outline>
    <contour>
      <point x="154" y="0" type="line"/>
      <point x="142" y="-19"/>
      <point x="112" y="-69"/>
      <point x="79" y="-126"/>
      <point x="44" y="-185"/>
      <point x="27" y="-213" type="qcurve"/>
      <point x="127" y="-213" type="line"/>
      <point x="548" y="522" type="line"/>
      <point x="464" y="522" type="line"/>
      <point x="219" y="79" type="line"/>
      <point x="148" y="522" type="line"/>
      <point x="56" y="522" type="line"/>
    </contour>
  </outline>
</glyph>
<glyph name="braceleft" format="2">
  <advance width="265"/>
  <unicode hex="007B"/>
  <outline>
    <contour>
      <point x="297" y="668" type="line"/>
      <point x="313" y="740" type="line"/>
      <point x="202" y="740" type="line" smooth="yes"/>
      <point x="197" y="740"/>
      <point x="178" y="729"/>
      <point x="174" y="710" type="qcurve" smooth="yes"/>
      <point x="119" y="450" type="line"/>
      <point x="118" y="443"/>
      <point x="108" y="423"/>
      <point x="94" y="405"/>
      <point x="76" y="393"/>
      <point x="66" y="393" type="qcurve"/>
      <point x="52" y="329" type="line"/>
      <point x="66" y="327"/>
      <point x="81" y="302"/>
      <point x="81" y="285" type="qcurve" smooth="yes"/>
      <point x="81" y="281"/>
      <point x="81" y="274"/>
      <point x="80" y="270" type="qcurve"/>
      <point x="23" y="-1" type="line"/>
      <point x="22" y="-4"/>
      <point x="22" y="-10"/>
      <point x="22" y="-12" type="qcurve" smooth="yes"/>
      <point x="22" y="-23"/>
      <point x="32" y="-31"/>
      <point x="38" y="-31" type="qcurve" smooth="yes"/>
      <point x="149" y="-31" type="line"/>
      <point x="164" y="41" type="line"/>
      <point x="112" y="41" type="line"/>
      <point x="166" y="296" type="line"/>
      <point x="167" y="300"/>
      <point x="167" y="307"/>
      <point x="167" y="311" type="qcurve" smooth="yes"/>
      <point x="167" y="324"/>
      <point x="160" y="350"/>
      <point x="151" y="360" type="qcurve"/>
      <point x="169" y="374"/>
      <point x="190" y="410"/>
      <point x="193" y="424" type="qcurve" smooth="yes"/>
      <point x="245" y="668" type="line"/>
    </contour>
  </outline>
</glyph>
<glyph name="braceright" format="2">
  <advance width="264"/>
  <unicode hex="007D"/>
  <outline>
    <contour>
      <point x="176" y="668" type="line"/>
      <point x="124" y="424" type="line"/>
      <point x="123" y="420"/>
      <point x="122" y="413"/>
      <point x="122" y="408" type="qcurve" smooth="yes"/>
      <point x="122" y="396"/>
      <point x="130" y="371"/>
      <point x="138" y="360" type="qcurve"/>
      <point x="121" y="346"/>
      <point x="100" y="310"/>
      <point x="97" y="296" type="qcurve" smooth="yes"/>
      <point x="43" y="41" type="line"/>
      <point x="-10" y="41" type="line"/>
      <point x="-25" y="-31" type="line"/>
      <point x="85" y="-31" type="line" smooth="yes"/>
      <point x="92" y="-31"/>
      <point x="110" y="-18"/>
      <point x="114" y="-1" type="qcurve" smooth="yes"/>
      <point x="171" y="270" type="line" smooth="yes"/>
      <point x="176" y="292"/>
      <point x="205" y="326"/>
      <point x="224" y="329" type="qcurve"/>
      <point x="238" y="393" type="line"/>
      <point x="221" y="393"/>
      <point x="208" y="423"/>
      <point x="208" y="438" type="qcurve" smooth="yes"/>
      <point x="208" y="441"/>
      <point x="208" y="447"/>
      <point x="209" y="450" type="qcurve"/>
      <point x="265" y="710" type="line"/>
      <point x="266" y="712"/>
      <point x="266" y="717"/>
      <point x="266" y="719" type="qcurve" smooth="yes"/>
      <point x="266" y="732"/>
      <point x="253" y="740"/>
      <point x="249" y="740" type="qcurve" smooth="yes"/>
      <point x="139" y="740" type="line"/>
      <point x="124" y="668" type="line"/>
    </contour>
  </outline>
</glyph>
<glyph name="asciitilde" format="2">
  <advance width="513"/>
  <unicode hex="007E"/>
  <outline>
    <contour>
      <point x="49" y="237" type="qcurve"/>
      <point x="101" y="237" type="line"/>
      <point x="101" y="238"/>
      <point x="110" y="255"/>
      <point x="129" y="276"/>
      <point x="156" y="293"/>
      <point x="174" y="293" type="qcurve" smooth="yes"/>
      <point x="192" y="293"/>
      <point x="224" y="276"/>
      <point x="257" y="255"/>
      <point x="295" y="237"/>
      <point x="319" y="237" type="qcurve" smooth="yes"/>
      <point x="353" y="237"/>
      <point x="405" y="268"/>
      <point x="440" y="307"/>
      <point x="459" y="341"/>
      <point x="460" y="344" type="qcurve"/>
      <point x="409" y="344" type="line"/>
      <point x="409" y="342"/>
      <point x="399" y="325"/>
      <point x="379" y="307"/>
      <point x="351" y="292"/>
      <point x="332" y="292" type="qcurve" smooth="yes"/>
      <point x="312" y="292"/>
      <point x="279" y="310"/>
      <point x="246" y="331"/>
      <point x="209" y="349"/>
      <point x="186" y="349" type="qcurve" smooth="yes"/>
      <point x="155" y="349"/>
      <point x="105" y="319"/>
      <point x="70" y="280"/>
      <point x="51" y="243"/>
    </contour>
  </outline>
</glyph>
<glyph name="exclamdown" format="2">
  <advance width="262"/>
  <unicode hex="00A1"/>
  <outline>
    <contour>
      <point x="124" y="282" type="line"/>
      <point x="13" y="-195" type="line"/>
      <point x="97" y="-195" type="line"/>
      <point x="189" y="282" type="line"/>
    </contour>
    <contour>
      <point x="256" y="470" type="curve"/>
      <point x="263" y="504"/>
      <point x="242" y="532"/>
      <point x="209" y="532" type="curve" smooth="yes"/>
      <point x="177" y="532"/>
      <point x="144" y="504"/>
      <point x="137" y="470" type="curve"/>
      <point x="129" y="436"/>
      <point x="151" y="409"/>
      <point x="183" y="409" type="curve" smooth="yes"/>
      <point x="216" y="409"/>
      <point x="248" y="436"/>
    </contour>
  </outline>
</glyph>
<glyph name="cent" format="2">
  <advance width="548"/>
  <unicode hex="00A2"/>
  <outline>
    <contour>
      <point x="220" y="-120" type="line"/>
      <point x="243" y="-10" type="line"/>
      <point x="268" y="-10"/>
      <point x="332" y="6"/>
      <point x="396" y="39"/>
      <point x="454" y="88"/>
      <point x="473" y="121" type="qcurve"/>
      <point x="392" y="147" type="line"/>
      <point x="384" y="130"/>
      <point x="353" y="102"/>
      <point x="316" y="82"/>
      <point x="277" y="70"/>
      <point x="260" y="68" type="qcurve"/>
      <point x="341" y="452" type="line"/>
      <point x="376" y="450"/>
      <point x="427" y="413"/>
      <point x="438" y="377" type="qcurve"/>
      <point x="529" y="404" type="line"/>
      <point x="513" y="462"/>
      <point x="426" y="528"/>
      <point x="358" y="530" type="qcurve"/>
      <point x="382" y="645" type="line"/>
      <point x="339" y="645" type="line"/>
      <point x="314" y="530" type="line"/>
      <point x="251" y="523"/>
      <point x="146" y="463"/>
      <point x="70" y="375"/>
      <point x="28" y="267"/>
      <point x="28" y="211" type="qcurve" smooth="yes"/>
      <point x="28" y="171"/>
      <point x="51" y="95"/>
      <point x="95" y="34"/>
      <point x="159" y="-6"/>
      <point x="200" y="-9" type="qcurve"/>
      <point x="176" y="-120" type="line"/>
    </contour>
    <contour>
      <point x="119" y="221" type="qcurve" smooth="yes"/>
      <point x="119" y="258"/>
      <point x="146" y="335"/>
      <point x="194" y="400"/>
      <point x="259" y="444"/>
      <point x="297" y="449" type="qcurve"/>
      <point x="217" y="72" type="line"/>
      <point x="194" y="77"/>
      <point x="158" y="104"/>
      <point x="132" y="144"/>
      <point x="119" y="194"/>
    </contour>
  </outline>
</glyph>
<glyph name="sterling" format="2">
  <advance width="491"/>
  <unicode hex="00A3"/>
  <outline>
    <contour>
      <point x="55" y="307" type="line"/>
      <point x="389" y="307" type="line"/>
      <point x="404" y="375" type="line"/>
      <point x="69" y="375" type="line"/>
    </contour>
    <contour>
      <point x="9" y="-8" type="line"/>
      <point x="37" y="0"/>
      <point x="99" y="10"/>
      <point x="122" y="10" type="qcurve" smooth="yes"/>
      <point x="145" y="10"/>
      <point x="184" y="2"/>
      <point x="222" y="-7"/>
      <point x="261" y="-15"/>
      <point x="282" y="-15" type="qcurve" smooth="yes"/>
      <point x="308" y="-15"/>
      <point x="367" y="-1"/>
      <point x="393" y="12" type="qcurve"/>
      <point x="386" y="79" type="line"/>
      <point x="360" y="70"/>
      <point x="320" y="61"/>
      <point x="302" y="61" type="qcurve" smooth="yes"/>
      <point x="285" y="61"/>
      <point x="255" y="67"/>
      <point x="225" y="73"/>
      <point x="192" y="79"/>
      <point x="173" y="79" type="qcurve" smooth="yes"/>
      <point x="156" y="79"/>
      <point x="121" y="74"/>
      <point x="101" y="69" type="qcurve"/>
      <point x="145" y="110"/>
      <point x="200" y="173"/>
      <point x="230" y="227"/>
      <point x="240" y="278"/>
      <point x="240" y="307" type="qcurve" smooth="yes"/>
      <point x="240" y="337"/>
      <point x="228" y="392"/>
      <point x="215" y="442"/>
      <point x="203" y="489"/>
      <point x="203" y="512" type="qcurve" smooth="yes"/>
      <point x="203" y="539"/>
      <point x="224" y="586"/>
      <point x="258" y="622"/>
      <point x="304" y="642"/>
      <point x="328" y="642" type="qcurve" smooth="yes"/>
      <point x="366" y="642"/>
      <point x="430" y="595"/>
      <point x="444" y="556" type="qcurve"/>
      <point x="504" y="610" type="line"/>
      <point x="483" y="659"/>
      <point x="399" y="715"/>
      <point x="345" y="715" type="qcurve" smooth="yes"/>
      <point x="303" y="715"/>
      <point x="223" y="683"/>
      <point x="161" y="627"/>
      <point x="123" y="554"/>
      <point x="123" y="512" type="qcurve" smooth="yes"/>
      <point x="123" y="486"/>
      <point x="135" y="434"/>
      <point x="149" y="382"/>
      <point x="161" y="327"/>
      <point x="161" y="298" type="qcurve" smooth="yes"/>
      <point x="161" y="267"/>
      <point x="145" y="213"/>
      <point x="108" y="156"/>
      <point x="47" y="94"/>
      <point x="1" y="56" type="qcurve"/>
    </contour>
  </outline>
</glyph>
<glyph name="section" format="2">
  <advance width="498"/>
  <unicode hex="00A7"/>
  <outline>
    <contour>
      <point x="392" y="201" type="qcurve"/>
      <point x="401" y="209"/>
      <point x="418" y="234"/>
      <point x="432" y="265"/>
      <point x="441" y="300"/>
      <point x="441" y="319" type="qcurve" smooth="yes"/>
      <point x="441" y="355"/>
      <point x="412" y="404"/>
      <point x="365" y="435"/>
      <point x="306" y="449"/>
      <point x="275" y="449" type="qcurve"/>
      <point x="235" y="450"/>
      <point x="183" y="480"/>
      <point x="183" y="519" type="qcurve" smooth="yes"/>
      <point x="183" y="546"/>
      <point x="206" y="589"/>
      <point x="244" y="620"/>
      <point x="290" y="636"/>
      <point x="314" y="636" type="qcurve" smooth="yes"/>
      <point x="331" y="636"/>
      <point x="363" y="630"/>
      <point x="390" y="616"/>
      <point x="410" y="594"/>
      <point x="414" y="579" type="qcurve"/>
      <point x="489" y="611" type="line"/>
      <point x="481" y="629"/>
      <point x="457" y="666"/>
      <point x="418" y="696"/>
      <point x="364" y="715"/>
      <point x="326" y="715" type="qcurve" smooth="yes"/>
      <point x="284" y="715"/>
      <point x="201" y="683"/>
      <point x="135" y="628"/>
      <point x="93" y="551"/>
      <point x="93" y="506" type="qcurve" smooth="yes"/>
      <point x="93" y="479"/>
      <point x="106" y="434"/>
      <point x="117" y="423" type="qcurve"/>
      <point x="110" y="415"/>
      <point x="94" y="392"/>
      <point x="81" y="364"/>
      <point x="73" y="330"/>
      <point x="73" y="310" type="qcurve" smooth="yes"/>
      <point x="73" y="279"/>
      <point x="95" y="230"/>
      <point x="136" y="196"/>
      <point x="195" y="176"/>
      <point x="232" y="174" type="qcurve" smooth="yes"/>
      <point x="248" y="173"/>
      <point x="280" y="168"/>
      <point x="305" y="154"/>
      <point x="321" y="131"/>
      <point x="321" y="111" type="qcurve" smooth="yes"/>
      <point x="321" y="84"/>
      <point x="296" y="41"/>
      <point x="257" y="12"/>
      <point x="209" y="-4"/>
      <point x="186" y="-4" type="qcurve" smooth="yes"/>
      <point x="149" y="-4"/>
      <point x="91" y="27"/>
      <point x="65" y="61" type="qcurve"/>
      <point x="-3" y="7" type="line"/>
      <point x="7" y="-8"/>
      <point x="38" y="-42"/>
      <point x="81" y="-70"/>
      <point x="137" y="-88"/>
      <point x="172" y="-88" type="qcurve" smooth="yes"/>
      <point x="208" y="-88"/>
      <point x="293" y="-62"/>
      <point x="366" y="-8"/>
      <point x="415" y="75"/>
      <point x="415" y="132" type="qcurve" smooth="yes"/>
      <point x="415" y="155"/>
      <point x="403" y="191"/>
    </contour>
    <contour>
      <point x="158" y="310" type="qcurve" smooth="yes"/>
      <point x="158" y="335"/>
      <point x="180" y="378"/>
      <point x="194" y="390" type="qcurve"/>
      <point x="206" y="384"/>
      <point x="243" y="377"/>
      <point x="263" y="377" type="qcurve" smooth="yes"/>
      <point x="279" y="377"/>
      <point x="311" y="370"/>
      <point x="338" y="353"/>
      <point x="355" y="325"/>
      <point x="355" y="305" type="qcurve" smooth="yes"/>
      <point x="355" y="282"/>
      <point x="332" y="237"/>
      <point x="315" y="225" type="qcurve"/>
      <point x="298" y="233"/>
      <point x="245" y="237"/>
      <point x="194" y="248"/>
      <point x="158" y="277"/>
    </contour>
  </outline>
</glyph>
<glyph name="ordfeminine" format="2">
  <advance width="418"/>
  <unicode hex="00AA"/>
  <outline>
    <contour>
      <point x="165" y="344" type="qcurve" smooth="yes"/>
      <point x="203" y="344"/>
      <point x="278" y="377"/>
      <point x="308" y="409" type="qcurve"/>
      <point x="297" y="351" type="line"/>
      <point x="357" y="351" type="line"/>
      <point x="357" y="352"/>
      <point x="362" y="378"/>
      <point x="368" y="409"/>
      <point x="373" y="435"/>
      <point x="373" y="436" type="qcurve"/>
      <point x="401" y="567" type="line"/>
      <point x="403" y="578"/>
      <point x="406" y="598"/>
      <point x="406" y="608" type="qcurve" smooth="yes"/>
      <point x="406" y="659"/>
      <point x="342" y="711"/>
      <point x="284" y="711" type="qcurve" smooth="yes"/>
      <point x="249" y="711"/>
      <point x="177" y="688"/>
      <point x="139" y="665" type="qcurve"/>
      <point x="152" y="620" type="line"/>
      <point x="185" y="640"/>
      <point x="242" y="661"/>
      <point x="268" y="661" type="qcurve" smooth="yes"/>
      <point x="301" y="661"/>
      <point x="336" y="628"/>
      <point x="336" y="599" type="qcurve" smooth="yes"/>
      <point x="336" y="594"/>
      <point x="335" y="582"/>
      <point x="333" y="575" type="qcurve"/>
      <point x="328" y="550" type="line"/>
      <point x="311" y="558"/>
      <point x="266" y="567"/>
      <point x="241" y="567" type="qcurve" smooth="yes"/>
      <point x="206" y="567"/>
      <point x="145" y="547"/>
      <point x="99" y="512"/>
      <point x="73" y="464"/>
      <point x="73" y="435" type="qcurve" smooth="yes"/>
      <point x="73" y="396"/>
      <point x="123" y="344"/>
    </contour>
    <contour>
      <point x="196" y="397" type="qcurve" smooth="yes"/>
      <point x="171" y="397"/>
      <point x="141" y="427"/>
      <point x="141" y="450" type="qcurve" smooth="yes"/>
      <point x="141" y="483"/>
      <point x="200" y="524"/>
      <point x="244" y="524" type="qcurve" smooth="yes"/>
      <point x="264" y="524"/>
      <point x="303" y="517"/>
      <point x="318" y="509" type="qcurve"/>
      <point x="308" y="461" type="line"/>
      <point x="305" y="449"/>
      <point x="283" y="426"/>
      <point x="251" y="408"/>
      <point x="213" y="397"/>
    </contour>
  </outline>
</glyph>
<glyph name="registered" format="2">
  <advance width="849"/>
  <unicode hex="00AE"/>
  <outline>
    <contour>
      <point x="435" y="-7" type="qcurve" smooth="yes"/>
      <point x="515" y="-7"/>
      <point x="651" y="48"/>
      <point x="751" y="145"/>
      <point x="807" y="277"/>
      <point x="807" y="355" type="qcurve" smooth="yes"/>
      <point x="807" y="432"/>
      <point x="751" y="564"/>
      <point x="651" y="660"/>
      <point x="515" y="715"/>
      <point x="435" y="715" type="qcurve" smooth="yes"/>
      <point x="355" y="715"/>
      <point x="220" y="660"/>
      <point x="121" y="564"/>
      <point x="65" y="432"/>
      <point x="65" y="355" type="qcurve" smooth="yes"/>
      <point x="65" y="277"/>
      <point x="121" y="145"/>
      <point x="220" y="48"/>
      <point x="355" y="-7"/>
    </contour>
    <contour>
      <point x="435" y="30" type="qcurve" smooth="yes"/>
      <point x="364" y="30"/>
      <point x="243" y="80"/>
      <point x="156" y="167"/>
      <point x="107" y="286"/>
      <point x="107" y="355" type="qcurve" smooth="yes"/>
      <point x="107" y="423"/>
      <point x="156" y="541"/>
      <point x="243" y="628"/>
      <point x="364" y="677"/>
      <point x="435" y="677" type="qcurve" smooth="yes"/>
      <point x="506" y="677"/>
      <point x="627" y="628"/>
      <point x="715" y="541"/>
      <point x="765" y="423"/>
      <point x="765" y="354" type="qcurve" smooth="yes"/>
      <point x="765" y="282"/>
      <point x="714" y="163"/>
      <point x="625" y="77"/>
      <point x="505" y="30"/>
    </contour>
    <contour>
      <point x="280" y="130" type="line"/>
      <point x="345" y="130" type="line"/>
      <point x="345" y="292" type="line"/>
      <point x="446" y="292" type="line"/>
      <point x="548" y="130" type="line"/>
      <point x="621" y="130" type="line"/>
      <point x="512" y="302" type="line"/>
      <point x="533" y="307"/>
      <point x="569" y="333"/>
      <point x="594" y="368"/>
      <point x="608" y="412"/>
      <point x="608" y="435" type="qcurve" smooth="yes"/>
      <point x="608" y="461"/>
      <point x="588" y="513"/>
      <point x="552" y="554"/>
      <point x="502" y="579"/>
      <point x="472" y="579" type="qcurve" smooth="yes"/>
      <point x="280" y="579" type="line"/>
    </contour>
    <contour>
      <point x="345" y="349" type="line"/>
      <point x="345" y="520" type="line"/>
      <point x="466" y="520" type="line" smooth="yes"/>
      <point x="483" y="520"/>
      <point x="511" y="508"/>
      <point x="532" y="485"/>
      <point x="544" y="454"/>
      <point x="544" y="435" type="qcurve" smooth="yes"/>
      <point x="544" y="416"/>
      <point x="534" y="385"/>
      <point x="515" y="362"/>
      <point x="487" y="349"/>
      <point x="469" y="349" type="qcurve" smooth="yes"/>
    </contour>
  </outline>
</glyph>
<glyph name="twosuperior" format="2">
  <advance width="383"/>
  <unicode hex="00B2"/>
  <outline>
    <contour>
      <point x="366" y="400" type="line"/>
      <point x="378" y="454" type="line"/>
      <point x="153" y="454" type="line"/>
      <point x="156" y="467"/>
      <point x="170" y="494"/>
      <point x="197" y="520"/>
      <point x="239" y="544"/>
      <point x="270" y="554" type="qcurve" smooth="yes"/>
      <point x="311" y="568"/>
      <point x="372" y="598"/>
      <point x="411" y="636"/>
      <point x="430" y="683"/>
      <point x="430" y="712" type="qcurve" smooth="yes"/>
      <point x="430" y="756"/>
      <point x="370" y="811"/>
      <point x="308" y="811" type="qcurve" smooth="yes"/>
      <point x="273" y="811"/>
      <point x="213" y="795"/>
      <point x="168" y="773"/>
      <point x="137" y="750"/>
      <point x="131" y="743" type="qcurve"/>
      <point x="158" y="701" type="line"/>
      <point x="167" y="710"/>
      <point x="196" y="729"/>
      <point x="231" y="746"/>
      <point x="273" y="757"/>
      <point x="296" y="757" type="qcurve" smooth="yes"/>
      <point x="335" y="757"/>
      <point x="367" y="725"/>
      <point x="367" y="700" type="qcurve" smooth="yes"/>
      <point x="367" y="675"/>
      <point x="339" y="641"/>
      <point x="296" y="617"/>
      <point x="242" y="598"/>
      <point x="216" y="588" type="qcurve" smooth="yes"/>
      <point x="181" y="575"/>
      <point x="128" y="542"/>
      <point x="89" y="498"/>
      <point x="62" y="439"/>
      <point x="54" y="400" type="qcurve"/>
    </contour>
  </outline>
</glyph>
<glyph name="threesuperior" format="2">
  <advance width="379"/>
  <unicode hex="00B3"/>
  <outline>
    <contour>
      <point x="202" y="395" type="qcurve" smooth="yes"/>
      <point x="237" y="395"/>
      <point x="304" y="412"/>
      <point x="357" y="445"/>
      <point x="389" y="494"/>
      <point x="389" y="525" type="qcurve" smooth="yes"/>
      <point x="389" y="557"/>
      <point x="348" y="605"/>
      <point x="310" y="611" type="qcurve"/>
      <point x="362" y="622"/>
      <point x="419" y="674"/>
      <point x="419" y="715" type="qcurve" smooth="yes"/>
      <point x="419" y="757"/>
      <point x="348" y="811"/>
      <point x="288" y="811" type="qcurve" smooth="yes"/>
      <point x="265" y="811"/>
      <point x="219" y="803"/>
      <point x="178" y="787"/>
      <point x="142" y="764"/>
      <point x="130" y="749" type="qcurve"/>
      <point x="157" y="706" type="line"/>
      <point x="177" y="730"/>
      <point x="239" y="760"/>
      <point x="278" y="760" type="qcurve" smooth="yes"/>
      <point x="310" y="760"/>
      <point x="359" y="731"/>
      <point x="359" y="705" type="qcurve" smooth="yes"/>
      <point x="359" y="687"/>
      <point x="339" y="660"/>
      <point x="301" y="643"/>
      <point x="248" y="634"/>
      <point x="216" y="634" type="qcurve" smooth="yes"/>
      <point x="194" y="634" type="line"/>
      <point x="184" y="584" type="line"/>
      <point x="206" y="584" type="line" smooth="yes"/>
      <point x="266" y="584"/>
      <point x="333" y="552"/>
      <point x="333" y="523" type="qcurve" smooth="yes"/>
      <point x="333" y="507"/>
      <point x="313" y="477"/>
      <point x="280" y="456"/>
      <point x="236" y="443"/>
      <point x="212" y="443" type="qcurve" smooth="yes"/>
      <point x="186" y="443"/>
      <point x="147" y="456"/>
      <point x="121" y="477"/>
      <point x="108" y="501"/>
      <point x="108" y="511" type="qcurve"/>
      <point x="70" y="481" type="line"/>
      <point x="71" y="440"/>
      <point x="143" y="395"/>
    </contour>
  </outline>
</glyph>
<glyph name="micro" format="2">
  <advance width="606"/>
  <unicode hex="00B5"/>
  <outline>
    <contour>
      <point x="-32" y="-212" type="line"/>
      <point x="56" y="-212" type="line"/>
      <point x="110" y="67" type="line"/>
      <point x="114" y="35"/>
      <point x="156" y="-10"/>
      <point x="199" y="-10" type="qcurve" smooth="yes"/>
      <point x="227" y="-10"/>
      <point x="285" y="10"/>
      <point x="339" y="44"/>
      <point x="385" y="88"/>
      <point x="401" y="112" type="qcurve"/>
      <point x="397" y="0" type="line"/>
      <point x="456" y="0" type="line"/>
      <point x="564" y="522" type="line"/>
      <point x="476" y="522" type="line"/>
      <point x="406" y="195" type="line"/>
      <point x="389" y="165"/>
      <point x="345" y="117"/>
      <point x="296" y="84"/>
      <point x="244" y="66"/>
      <point x="220" y="66" type="qcurve" smooth="yes"/>
      <point x="180" y="66"/>
      <point x="140" y="111"/>
      <point x="140" y="157" type="qcurve" smooth="yes"/>
      <point x="140" y="172"/>
      <point x="144" y="206"/>
      <point x="149" y="226" type="qcurve"/>
      <point x="212" y="522" type="line"/>
      <point x="124" y="522" type="line"/>
    </contour>
  </outline>
</glyph>
<glyph name="paragraph" format="2">
  <advance width="595"/>
  <unicode hex="00B6"/>
  <outline>
    <contour>
      <point x="64" y="412" type="qcurve" smooth="yes"/>
      <point x="64" y="369"/>
      <point x="90" y="300"/>
      <point x="139" y="252"/>
      <point x="210" y="225"/>
      <point x="255" y="224" type="qcurve"/>
      <point x="190" y="-80" type="line"/>
      <point x="266" y="-80" type="line"/>
      <point x="331" y="224" type="line"/>
      <point x="393" y="224" type="line"/>
      <point x="328" y="-80" type="line"/>
      <point x="404" y="-80" type="line"/>
      <point x="558" y="642" type="line"/>
      <point x="624" y="642" type="line"/>
      <point x="639" y="710" type="line"/>
      <point x="391" y="710" type="line" smooth="yes"/>
      <point x="316" y="710"/>
      <point x="195" y="667"/>
      <point x="110" y="589"/>
      <point x="64" y="479"/>
    </contour>
    <contour>
      <point x="141" y="428" type="qcurve" smooth="yes"/>
      <point x="141" y="473"/>
      <point x="169" y="551"/>
      <point x="221" y="608"/>
      <point x="296" y="641"/>
      <point x="344" y="642" type="qcurve"/>
      <point x="269" y="292" type="line"/>
      <point x="242" y="294"/>
      <point x="195" y="312"/>
      <point x="160" y="346"/>
      <point x="141" y="395"/>
    </contour>
    <contour>
      <point x="407" y="292" type="line"/>
      <point x="345" y="292" type="line"/>
      <point x="420" y="642" type="line"/>
      <point x="482" y="642" type="line"/>
    </contour>
  </outline>
</glyph>
<glyph name="onesuperior" format="2">
  <advance width="269"/>
  <unicode hex="00B9"/>
  <outline>
    <contour>
      <point x="212" y="455" type="line"/>
      <point x="288" y="811" type="line"/>
      <point x="232" y="811" type="line"/>
      <point x="232" y="810"/>
      <point x="211" y="792"/>
      <point x="180" y="772"/>
      <point x="145" y="755"/>
      <point x="130" y="755" type="qcurve"/>
      <point x="118" y="700" type="line"/>
      <point x="130" y="700"/>
      <point x="159" y="711"/>
      <point x="188" y="726"/>
      <point x="213" y="743"/>
      <point x="219" y="749" type="qcurve"/>
      <point x="157" y="455" type="line"/>
      <point x="81" y="455" type="line"/>
      <point x="69" y="400" type="line"/>
      <point x="270" y="400" type="line"/>
      <point x="282" y="455" type="line"/>
    </contour>
  </outline>
</glyph>
<glyph name="ordmasculine" format="2">
  <advance width="431"/>
  <unicode hex="00BA"/>
  <outline>
    <contour>
      <point x="223" y="344" type="qcurve" smooth="yes"/>
      <point x="268" y="344"/>
      <point x="348" y="381"/>
      <point x="406" y="442"/>
      <point x="440" y="521"/>
      <point x="440" y="563" type="qcurve" smooth="yes"/>
      <point x="440" y="594"/>
      <point x="422" y="648"/>
      <point x="386" y="688"/>
      <point x="334" y="711"/>
      <point x="301" y="711" type="qcurve" smooth="yes"/>
      <point x="256" y="711"/>
      <point x="177" y="675"/>
      <point x="118" y="614"/>
      <point x="84" y="535"/>
      <point x="84" y="492" type="qcurve" smooth="yes"/>
      <point x="84" y="462"/>
      <point x="102" y="408"/>
      <point x="137" y="368"/>
      <point x="189" y="344"/>
    </contour>
    <contour>
      <point x="236" y="405" type="qcurve" smooth="yes"/>
      <point x="218" y="405"/>
      <point x="189" y="420"/>
      <point x="168" y="445"/>
      <point x="156" y="480"/>
      <point x="156" y="501" type="qcurve" smooth="yes"/>
      <point x="156" y="531"/>
      <point x="179" y="585"/>
      <point x="216" y="626"/>
      <point x="263" y="649"/>
      <point x="288" y="649" type="qcurve" smooth="yes"/>
      <point x="306" y="649"/>
      <point x="336" y="634"/>
      <point x="357" y="609"/>
      <point x="368" y="574"/>
      <point x="368" y="553" type="qcurve" smooth="yes"/>
      <point x="368" y="523"/>
      <point x="345" y="469"/>
      <point x="308" y="429"/>
      <point x="261" y="405"/>
    </contour>
  </outline>
</glyph>
<glyph name="onehalf" format="2">
  <advance width="809"/>
  <unicode hex="00BD"/>
  <outline>
    <contour>
      <point x="195" y="375" type="line"/>
      <point x="271" y="731" type="line"/>
      <point x="215" y="731" type="line"/>
      <point x="215" y="730"/>
      <point x="194" y="712"/>
      <point x="163" y="692"/>
      <point x="128" y="675"/>
      <point x="113" y="675" type="qcurve"/>
      <point x="101" y="620" type="line"/>
      <point x="113" y="620"/>
      <point x="142" y="631"/>
      <point x="171" y="646"/>
      <point x="196" y="663"/>
      <point x="202" y="669" type="qcurve"/>
      <point x="140" y="375" type="line"/>
      <point x="64" y="375" type="line"/>
      <point x="52" y="320" type="line"/>
      <point x="253" y="320" type="line"/>
      <point x="265" y="375" type="line"/>
    </contour>
    <contour>
      <point x="49" y="-5" type="line"/>
      <point x="381" y="343" type="line"/>
      <point x="715" y="678" type="line"/>
      <point x="680" y="715" type="line"/>
      <point x="353" y="370" type="line"/>
      <point x="15" y="33" type="line"/>
    </contour>
    <contour>
      <point x="710" y="0" type="line"/>
      <point x="721" y="54" type="line"/>
      <point x="504" y="54" type="line"/>
      <point x="507" y="67"/>
      <point x="521" y="94"/>
      <point x="547" y="120"/>
      <point x="587" y="144"/>
      <point x="617" y="154" type="qcurve" smooth="yes"/>
      <point x="657" y="168"/>
      <point x="715" y="198"/>
      <point x="753" y="236"/>
      <point x="772" y="283"/>
      <point x="772" y="312" type="qcurve" smooth="yes"/>
      <point x="772" y="356"/>
      <point x="714" y="411"/>
      <point x="654" y="411" type="qcurve" smooth="yes"/>
      <point x="620" y="411"/>
      <point x="563" y="395"/>
      <point x="519" y="373"/>
      <point x="489" y="350"/>
      <point x="483" y="343" type="qcurve"/>
      <point x="509" y="301" type="line"/>
      <point x="518" y="310"/>
      <point x="546" y="329"/>
      <point x="580" y="346"/>
      <point x="620" y="357"/>
      <point x="642" y="357" type="qcurve" smooth="yes"/>
      <point x="680" y="357"/>
      <point x="711" y="325"/>
      <point x="711" y="300" type="qcurve" smooth="yes"/>
      <point x="711" y="275"/>
      <point x="684" y="241"/>
      <point x="642" y="217"/>
      <point x="590" y="198"/>
      <point x="565" y="188" type="qcurve" smooth="yes"/>
      <point x="532" y="175"/>
      <point x="480" y="142"/>
      <point x="443" y="98"/>
      <point x="417" y="39"/>
      <point x="409" y="0" type="qcurve"/>
    </contour>
  </outline>
</glyph>
<glyph name="questiondown" format="2">
  <advance width="462"/>
  <unicode hex="00BF"/>
  <outline>
    <contour>
      <point x="286" y="308" type="line"/>
      <point x="272" y="281"/>
      <point x="220" y="252"/>
      <point x="161" y="213" type="curve" smooth="yes"/>
      <point x="127" y="191"/>
      <point x="91" y="165"/>
      <point x="59" y="135" type="curve" smooth="yes"/>
      <point x="23" y="101"/>
      <point x="-8" y="60"/>
      <point x="-23" y="12" type="curve" smooth="yes"/>
      <point x="-30" y="-9"/>
      <point x="-33" y="-31"/>
      <point x="-33" y="-55" type="curve" smooth="yes"/>
      <point x="-33" y="-150"/>
      <point x="36" y="-200"/>
      <point x="126" y="-200" type="curve" smooth="yes"/>
      <point x="219" y="-200"/>
      <point x="308" y="-148"/>
      <point x="358" y="-71" type="curve"/>
      <point x="309" y="-32" type="line"/>
      <point x="271" y="-84"/>
      <point x="210" y="-127"/>
      <point x="144" y="-127" type="curve" smooth="yes"/>
      <point x="90" y="-127"/>
      <point x="45" y="-95"/>
      <point x="45" y="-38" type="curve" smooth="yes"/>
      <point x="45" y="-19"/>
      <point x="49" y="-2"/>
      <point x="55" y="14" type="curve" smooth="yes"/>
      <point x="68" y="47"/>
      <point x="93" y="76"/>
      <point x="122" y="101" type="curve" smooth="yes"/>
      <point x="201" y="171"/>
      <point x="312" y="221"/>
      <point x="312" y="283" type="curve" smooth="yes"/>
      <point x="312" y="292"/>
      <point x="309" y="300"/>
      <point x="304" y="308" type="curve"/>
    </contour>
    <contour>
      <point x="385" y="485" type="curve" smooth="yes"/>
      <point x="385" y="511"/>
      <point x="366" y="529"/>
      <point x="341" y="529" type="curve" smooth="yes"/>
      <point x="306" y="529"/>
      <point x="273" y="496"/>
      <point x="273" y="461" type="curve" smooth="yes"/>
      <point x="273" y="435"/>
      <point x="292" y="417"/>
      <point x="317" y="417" type="curve" smooth="yes"/>
      <point x="352" y="417"/>
      <point x="385" y="450"/>
    </contour>
  </outline>
</glyph>
<glyph name="Idieresis" format="2">
  <advance width="258"/>
  <unicode hex="00CF"/>
  <anchor x="216" y="710" name="_top"/>
  <anchor x="260" y="914" name="top"/>
  <outline>
    <component base="I"/>
    <contour>
      <point x="268" y="862" type="curve"/>
      <point x="262" y="831"/>
      <point x="277" y="806"/>
      <point x="303" y="806" type="curve" smooth="yes"/>
      <point x="329" y="806"/>
      <point x="355" y="831"/>
      <point x="361" y="862" type="curve"/>
      <point x="368" y="893"/>
      <point x="353" y="918"/>
      <point x="327" y="918" type="curve" smooth="yes"/>
      <point x="301" y="918"/>
      <point x="275" y="893"/>
    </contour>
    <contour>
      <point x="134" y="862" type="curve"/>
      <point x="127" y="831"/>
      <point x="142" y="806"/>
      <point x="168" y="806" type="curve" smooth="yes"/>
      <point x="194" y="806"/>
      <point x="220" y="831"/>
      <point x="227" y="862" type="curve"/>
      <point x="233" y="893"/>
      <point x="218" y="918"/>
      <point x="192" y="918" type="curve" smooth="yes"/>
      <point x="166" y="918"/>
      <point x="140" y="893"/>
    </contour>
  </outline>
</glyph>
<glyph name="Thorn" format="2">
  <advance width="581"/>
  <unicode hex="00DE"/>
  <outline>
    <contour>
      <point x="20" y="0" type="line"/>
      <point x="110" y="0" type="line"/>
      <point x="135" y="118" type="line"/>
      <point x="315" y="118" type="line" smooth="yes"/>
      <point x="367" y="118"/>
      <point x="459" y="165"/>
      <point x="528" y="241"/>
      <point x="569" y="336"/>
      <point x="569" y="385" type="qcurve" smooth="yes"/>
      <point x="569" y="421"/>
      <point x="547" y="489"/>
      <point x="505" y="541"/>
      <point x="445" y="573"/>
      <point x="406" y="573" type="qcurve" smooth="yes"/>
      <point x="232" y="573" type="line"/>
      <point x="261" y="710" type="line"/>
      <point x="171" y="710" type="line"/>
    </contour>
    <contour>
      <point x="152" y="198" type="line"/>
      <point x="215" y="493" type="line"/>
      <point x="385" y="493" type="line" smooth="yes"/>
      <point x="406" y="493"/>
      <point x="440" y="475"/>
      <point x="464" y="443"/>
      <point x="477" y="400"/>
      <point x="477" y="376" type="qcurve" smooth="yes"/>
      <point x="477" y="344"/>
      <point x="454" y="280"/>
      <point x="413" y="229"/>
      <point x="359" y="198"/>
      <point x="328" y="198" type="qcurve" smooth="yes"/>
    </contour>
  </outline>
</glyph>
<glyph name="ae" format="2">
  <advance width="949"/>
  <unicode hex="00E6"/>
  <anchor x="780" y="0" name="bottom"/>
  <anchor x="850" y="0" name="ogonek"/>
  <anchor x="526" y="522" name="top"/>
  <outline>
    <contour>
      <point x="207" y="-10" type="curve" smooth="yes"/>
      <point x="284" y="-10"/>
      <point x="353" y="33"/>
      <point x="402" y="99" type="curve"/>
      <point x="381" y="0" type="line"/>
      <point x="469" y="0" type="line"/>
      <point x="493" y="115" type="line"/>
      <point x="472" y="252" type="line"/>
      <point x="551" y="386" type="line"/>
      <point x="579" y="517" type="line"/>
      <point x="491" y="517" type="line"/>
      <point x="469" y="417" type="line"/>
      <point x="449" y="484"/>
      <point x="393" y="531"/>
      <point x="314" y="531" type="curve" smooth="yes"/>
      <point x="166" y="531"/>
      <point x="22" y="378"/>
      <point x="22" y="206" type="curve" smooth="yes"/>
      <point x="22" y="88"/>
      <point x="90" y="-10"/>
    </contour>
    <contour>
      <point x="244" y="66" type="curve" smooth="yes"/>
      <point x="163" y="66"/>
      <point x="115" y="135"/>
      <point x="115" y="220" type="curve" smooth="yes"/>
      <point x="115" y="331"/>
      <point x="213" y="455"/>
      <point x="323" y="455" type="curve" smooth="yes"/>
      <point x="391" y="455"/>
      <point x="440" y="402"/>
      <point x="451" y="330" type="curve"/>
      <point x="419" y="182" type="line"/>
      <point x="378" y="116"/>
      <point x="314" y="66"/>
    </contour>
    <contour>
      <point x="638" y="-10" type="curve" smooth="yes"/>
      <point x="736" y="-10"/>
      <point x="833" y="45"/>
      <point x="882" y="122" type="curve"/>
      <point x="811" y="143" type="line"/>
      <point x="778" y="90"/>
      <point x="713" y="56"/>
      <point x="652" y="56" type="curve" smooth="yes"/>
      <point x="563" y="56"/>
      <point x="522" y="128"/>
      <point x="522" y="211" type="curve" smooth="yes"/>
      <point x="522" y="317"/>
      <point x="590" y="465"/>
      <point x="743" y="465" type="curve" smooth="yes"/>
      <point x="804" y="465"/>
      <point x="844" y="442"/>
      <point x="844" y="391" type="curve" smooth="yes"/>
      <point x="844" y="333"/>
      <point x="792" y="290"/>
      <point x="641" y="290" type="curve" smooth="yes"/>
      <point x="608" y="290"/>
      <point x="570" y="292"/>
      <point x="526" y="296" type="curve"/>
      <point x="502" y="236" type="line"/>
      <point x="554" y="231"/>
      <point x="601" y="229"/>
      <point x="638" y="229" type="curve" smooth="yes"/>
      <point x="831" y="229"/>
      <point x="923" y="284"/>
      <point x="923" y="390" type="curve" smooth="yes"/>
      <point x="923" y="483"/>
      <point x="851" y="531"/>
      <point x="749" y="531" type="curve" smooth="yes"/>
      <point x="568" y="531"/>
      <point x="433" y="378"/>
      <point x="433" y="211" type="curve" smooth="yes"/>
      <point x="433" y="87"/>
      <point x="507" y="-10"/>
    </contour>
  </outline>
</glyph>
<glyph name="idieresis" format="2">
  <advance width="230"/>
  <unicode hex="00EF"/>
  <outline>
    <contour>
      <point x="85" y="674" type="qcurve" smooth="yes"/>
      <point x="80" y="651"/>
      <point x="99" y="618"/>
      <point x="118" y="618" type="qcurve" smooth="yes"/>
      <point x="137" y="618"/>
      <point x="170" y="651"/>
      <point x="175" y="674" type="qcurve" smooth="yes"/>
      <point x="180" y="697"/>
      <point x="161" y="730"/>
      <point x="142" y="730" type="qcurve" smooth="yes"/>
      <point x="123" y="730"/>
      <point x="90" y="697"/>
    </contour>
    <contour>
      <point x="214" y="674" type="qcurve" smooth="yes"/>
      <point x="209" y="651"/>
      <point x="228" y="618"/>
      <point x="247" y="618" type="qcurve" smooth="yes"/>
      <point x="266" y="618"/>
      <point x="299" y="651"/>
      <point x="304" y="674" type="qcurve" smooth="yes"/>
      <point x="309" y="697"/>
      <point x="290" y="730"/>
      <point x="271" y="730" type="qcurve" smooth="yes"/>
      <point x="252" y="730"/>
      <point x="219" y="697"/>
    </contour>
    <contour>
      <point x="5" y="0" type="line"/>
      <point x="93" y="0" type="line"/>
      <point x="204" y="522" type="line"/>
      <point x="116" y="522" type="line"/>
    </contour>
  </outline>
</glyph>
<glyph name="eth" format="2">
  <advance width="583"/>
  <unicode hex="00F0"/>
  <outline>
    <contour>
      <point x="549" y="372" type="qcurve" smooth="yes"/>
      <point x="549" y="415"/>
      <point x="532" y="512"/>
      <point x="492" y="608"/>
      <point x="428" y="696"/>
      <point x="380" y="730" type="qcurve"/>
      <point x="258" y="730" type="line"/>
      <point x="312" y="694"/>
      <point x="385" y="621"/>
      <point x="432" y="546"/>
      <point x="457" y="471"/>
      <point x="461" y="432" type="qcurve" smooth="yes"/>
      <point x="463" y="416"/>
      <point x="465" y="385"/>
      <point x="465" y="368" type="qcurve"/>
      <point x="449" y="416"/>
      <point x="365" y="473"/>
      <point x="306" y="473" type="qcurve" smooth="yes"/>
      <point x="252" y="473"/>
      <point x="148" y="427"/>
      <point x="67" y="349"/>
      <point x="18" y="247"/>
      <point x="18" y="191" type="qcurve" smooth="yes"/>
      <point x="18" y="149"/>
      <point x="47" y="75"/>
      <point x="100" y="21"/>
      <point x="174" y="-10"/>
      <point x="218" y="-10" type="qcurve" smooth="yes"/>
      <point x="280" y="-10"/>
      <point x="398" y="44"/>
      <point x="492" y="143"/>
      <point x="549" y="284"/>
    </contour>
    <contour>
      <point x="109" y="202" type="qcurve" smooth="yes"/>
      <point x="109" y="242"/>
      <point x="143" y="314"/>
      <point x="200" y="369"/>
      <point x="273" y="401"/>
      <point x="312" y="401" type="qcurve" smooth="yes"/>
      <point x="341" y="401"/>
      <point x="388" y="381"/>
      <point x="422" y="345"/>
      <point x="441" y="297"/>
      <point x="441" y="268" type="qcurve" smooth="yes"/>
      <point x="441" y="229"/>
      <point x="407" y="156"/>
      <point x="350" y="100"/>
      <point x="276" y="66"/>
      <point x="237" y="66" type="qcurve" smooth="yes"/>
      <point x="209" y="66"/>
      <point x="161" y="87"/>
      <point x="128" y="124"/>
      <point x="109" y="174"/>
    </contour>
    <contour>
      <point x="544" y="713" type="line"/>
      <point x="426" y="647" type="line"/>
      <point x="398" y="639" type="line"/>
      <point x="273" y="569" type="line"/>
      <point x="292" y="532" type="line"/>
      <point x="420" y="604" type="line"/>
      <point x="450" y="614" type="line"/>
      <point x="563" y="676" type="line"/>
    </contour>
  </outline>
</glyph>
<glyph name="divide" format="2">
  <advance width="533"/>
  <unicode hex="00F7"/>
  <outline>
    <contour>
      <point x="468" y="251" type="line"/>
      <point x="468" y="323" type="line"/>
      <point x="65" y="323" type="line"/>
      <point x="65" y="251" type="line"/>
    </contour>
    <contour>
      <point x="210" y="112" type="curve" smooth="yes"/>
      <point x="210" y="81"/>
      <point x="235" y="56"/>
      <point x="266" y="56" type="curve" smooth="yes"/>
      <point x="297" y="56"/>
      <point x="322" y="81"/>
      <point x="322" y="112" type="curve" smooth="yes"/>
      <point x="322" y="143"/>
      <point x="297" y="168"/>
      <point x="266" y="168" type="curve" smooth="yes"/>
      <point x="235" y="168"/>
      <point x="210" y="143"/>
    </contour>
    <contour>
      <point x="211" y="463" type="curve" smooth="yes"/>
      <point x="211" y="432"/>
      <point x="236" y="406"/>
      <point x="267" y="406" type="curve" smooth="yes"/>
      <point x="298" y="406"/>
      <point x="323" y="432"/>
      <point x="323" y="463" type="curve" smooth="yes"/>
      <point x="323" y="494"/>
      <point x="298" y="519"/>
      <point x="267" y="519" type="curve" smooth="yes"/>
      <point x="236" y="519"/>
      <point x="211" y="494"/>
    </contour>
  </outline>
</glyph>
<glyph name="oslash" format="2">
  <advance width="578"/>
  <unicode hex="00F8"/>
  <outline>
    <contour>
      <point x="223" y="-10" type="qcurve" smooth="yes"/>
      <point x="288" y="-10"/>
      <point x="403" y="44"/>
      <point x="489" y="134"/>
      <point x="539" y="250"/>
      <point x="539" y="312" type="qcurve" smooth="yes"/>
      <point x="539" y="357"/>
      <point x="512" y="437"/>
      <point x="460" y="496"/>
      <point x="386" y="531"/>
      <point x="338" y="531" type="qcurve" smooth="yes"/>
      <point x="274" y="531"/>
      <point x="159" y="477"/>
      <point x="73" y="387"/>
      <point x="22" y="271"/>
      <point x="22" y="208" type="qcurve" smooth="yes"/>
      <point x="22" y="163"/>
      <point x="49" y="84"/>
      <point x="100" y="25"/>
      <point x="175" y="-10"/>
    </contour>
    <contour>
      <point x="239" y="66" type="qcurve" smooth="yes"/>
      <point x="211" y="66"/>
      <point x="164" y="89"/>
      <point x="131" y="130"/>
      <point x="113" y="186"/>
      <point x="113" y="219" type="qcurve" smooth="yes"/>
      <point x="113" y="266"/>
      <point x="149" y="352"/>
      <point x="208" y="417"/>
      <point x="283" y="455"/>
      <point x="321" y="455" type="qcurve" smooth="yes"/>
      <point x="350" y="455"/>
      <point x="396" y="431"/>
      <point x="429" y="390"/>
      <point x="447" y="334"/>
      <point x="447" y="301" type="qcurve" smooth="yes"/>
      <point x="447" y="253"/>
      <point x="411" y="168"/>
      <point x="352" y="104"/>
      <point x="278" y="66"/>
    </contour>
    <contour>
      <point x="13" y="-2" type="line"/>
      <point x="67" y="-2" type="line"/>
      <point x="133" y="64" type="line"/>
      <point x="109" y="94" type="line"/>
    </contour>
    <contour>
      <point x="139" y="71" type="line"/>
      <point x="452" y="432" type="line"/>
      <point x="424" y="455" type="line"/>
      <point x="116" y="98" type="line"/>
    </contour>
    <contour>
      <point x="460" y="437" type="line"/>
      <point x="546" y="524" type="line"/>
      <point x="491" y="524" type="line"/>
      <point x="429" y="461" type="line"/>
    </contour>
  </outline>
</glyph>
<glyph name="thorn" format="2">
  <advance width="578"/>
  <unicode hex="00FE"/>
  <outline>
    <contour>
      <point x="48" y="-213" type="line"/>
      <point x="115" y="103" type="line"/>
      <point x="124" y="79"/>
      <point x="152" y="37"/>
      <point x="192" y="7"/>
      <point x="243" y="-10"/>
      <point x="273" y="-10" type="qcurve" smooth="yes"/>
      <point x="331" y="-10"/>
      <point x="435" y="44"/>
      <point x="514" y="134"/>
      <point x="560" y="251"/>
      <point x="560" y="313" type="qcurve" smooth="yes"/>
      <point x="560" y="357"/>
      <point x="535" y="436"/>
      <point x="487" y="496"/>
      <point x="419" y="531"/>
      <point x="376" y="531" type="qcurve" smooth="yes"/>
      <point x="350" y="531"/>
      <point x="298" y="518"/>
      <point x="249" y="493"/>
      <point x="205" y="459"/>
      <point x="187" y="438" type="qcurve"/>
      <point x="246" y="710" type="line"/>
      <point x="156" y="710" type="line"/>
      <point x="-40" y="-213" type="line"/>
    </contour>
    <contour>
      <point x="262" y="66" type="qcurve" smooth="yes"/>
      <point x="237" y="66"/>
      <point x="194" y="85"/>
      <point x="161" y="118"/>
      <point x="138" y="163"/>
      <point x="133" y="189" type="qcurve"/>
      <point x="165" y="338" type="line"/>
      <point x="175" y="362"/>
      <point x="215" y="405"/>
      <point x="263" y="436"/>
      <point x="315" y="455"/>
      <point x="337" y="455" type="qcurve" smooth="yes"/>
      <point x="367" y="455"/>
      <point x="415" y="430"/>
      <point x="450" y="388"/>
      <point x="468" y="331"/>
      <point x="468" y="299" type="qcurve" smooth="yes"/>
      <point x="468" y="257"/>
      <point x="435" y="174"/>
      <point x="378" y="107"/>
      <point x="304" y="66"/>
    </contour>
  </outline>
</glyph>
<glyph name="dcroat" format="2">
  <advance width="606"/>
  <unicode hex="0111"/>
  <outline>
    <contour>
      <point x="415" y="601" type="line"/>
      <point x="671" y="601" type="line"/>
      <point x="683" y="657" type="line"/>
      <point x="427" y="657" type="line"/>
    </contour>
    <contour>
      <point x="208" y="-10" type="qcurve" smooth="yes"/>
      <point x="235" y="-10"/>
      <point x="287" y="4"/>
      <point x="336" y="31"/>
      <point x="380" y="69"/>
      <point x="398" y="92" type="qcurve"/>
      <point x="379" y="0" type="line"/>
      <point x="467" y="0" type="line"/>
      <point x="622" y="730" type="line"/>
      <point x="534" y="730" type="line"/>
      <point x="467" y="418" type="line"/>
      <point x="458" y="442"/>
      <point x="429" y="483"/>
      <point x="390" y="513"/>
      <point x="340" y="531"/>
      <point x="310" y="531" type="qcurve" smooth="yes"/>
      <point x="254" y="531"/>
      <point x="150" y="477"/>
      <point x="70" y="387"/>
      <point x="22" y="270"/>
      <point x="22" y="207" type="qcurve" smooth="yes"/>
      <point x="22" y="163"/>
      <point x="47" y="84"/>
      <point x="95" y="25"/>
      <point x="164" y="-10"/>
    </contour>
    <contour>
      <point x="245" y="66" type="qcurve" smooth="yes"/>
      <point x="215" y="66"/>
      <point x="167" y="90"/>
      <point x="133" y="132"/>
      <point x="115" y="189"/>
      <point x="115" y="221" type="qcurve" smooth="yes"/>
      <point x="115" y="263"/>
      <point x="148" y="347"/>
      <point x="204" y="413"/>
      <point x="279" y="455"/>
      <point x="320" y="455" type="qcurve" smooth="yes"/>
      <point x="343" y="455"/>
      <point x="387" y="436"/>
      <point x="423" y="403"/>
      <point x="446" y="359"/>
      <point x="449" y="333" type="qcurve"/>
      <point x="418" y="183" type="line"/>
      <point x="409" y="159"/>
      <point x="369" y="116"/>
      <point x="320" y="84"/>
      <point x="268" y="66"/>
    </contour>
  </outline>
</glyph>
<glyph name="hbar" format="2">
  <advance width="567"/>
  <unicode hex="0127"/>
  <outline>
    <component base="h"/>
    <contour>
      <point x="63" y="601" type="line"/>
      <point x="319" y="601" type="line"/>
      <point x="331" y="657" type="line"/>
      <point x="75" y="657" type="line"/>
    </contour>
  </outline>
</glyph>
<glyph name="Lslash" format="2">
  <advance width="565"/>
  <unicode hex="0141"/>
  <outline>
    <contour>
      <point x="24" y="233" type="line"/>
      <point x="374" y="474" type="line"/>
      <point x="360" y="523" type="line"/>
      <point x="9" y="283" type="line"/>
    </contour>
    <contour>
      <point x="20" y="0" type="line"/>
      <point x="483" y="0" type="line"/>
      <point x="500" y="80" type="line"/>
      <point x="127" y="80" type="line"/>
      <point x="261" y="710" type="line"/>
      <point x="171" y="710" type="line"/>
    </contour>
  </outline>
</glyph>
<glyph name="lslash" format="2">
  <advance width="301"/>
  <unicode hex="0142"/>
  <outline>
    <contour>
      <point x="30" y="283" type="line"/>
      <point x="324" y="473" type="line"/>
      <point x="308" y="522" type="line"/>
      <point x="15" y="332" type="line"/>
    </contour>
    <contour>
      <point x="131" y="-7" type="qcurve" smooth="yes"/>
      <point x="154" y="-7"/>
      <point x="215" y="5"/>
      <point x="238" y="14" type="qcurve"/>
      <point x="241" y="85" type="line"/>
      <point x="227" y="80"/>
      <point x="196" y="73"/>
      <point x="185" y="73" type="qcurve" smooth="yes"/>
      <point x="163" y="73"/>
      <point x="141" y="96"/>
      <point x="141" y="116" type="qcurve" smooth="yes"/>
      <point x="141" y="124"/>
      <point x="144" y="142"/>
      <point x="147" y="155" type="qcurve" smooth="yes"/>
      <point x="269" y="730" type="line"/>
      <point x="181" y="730" type="line"/>
      <point x="48" y="103" type="line"/>
      <point x="46" y="95"/>
      <point x="44" y="79"/>
      <point x="44" y="71" type="qcurve" smooth="yes"/>
      <point x="44" y="34"/>
      <point x="89" y="-7"/>
    </contour>
  </outline>
</glyph>
<glyph name="eng" format="2">
  <advance width="567"/>
  <unicode hex="014B"/>
  <outline>
    <contour>
      <point x="243" y="-186" type="qcurve" smooth="yes"/>
      <point x="274" y="-186"/>
      <point x="336" y="-161"/>
      <point x="388" y="-116"/>
      <point x="427" y="-54"/>
      <point x="435" y="-17" type="qcurve" smooth="yes"/>
      <point x="505" y="312" type="line" smooth="yes"/>
      <point x="510" y="338"/>
      <point x="517" y="386"/>
      <point x="517" y="408" type="qcurve" smooth="yes"/>
      <point x="517" y="436"/>
      <point x="505" y="481"/>
      <point x="478" y="513"/>
      <point x="435" y="531"/>
      <point x="403" y="531" type="qcurve" smooth="yes"/>
      <point x="370" y="531"/>
      <point x="305" y="514"/>
      <point x="245" y="482"/>
      <point x="192" y="437"/>
      <point x="172" y="410" type="qcurve"/>
      <point x="196" y="522" type="line"/>
      <point x="116" y="522" type="line"/>
      <point x="5" y="0" type="line"/>
      <point x="93" y="0" type="line"/>
      <point x="160" y="315" type="line"/>
      <point x="175" y="345"/>
      <point x="219" y="395"/>
      <point x="271" y="431"/>
      <point x="326" y="452"/>
      <point x="351" y="452" type="qcurve" smooth="yes"/>
      <point x="386" y="452"/>
      <point x="422" y="411"/>
      <point x="422" y="367" type="qcurve" smooth="yes"/>
      <point x="422" y="351"/>
      <point x="418" y="314"/>
      <point x="413" y="292" type="qcurve" smooth="yes"/>
      <point x="346" y="-23" type="line" smooth="yes"/>
      <point x="342" y="-41"/>
      <point x="322" y="-73"/>
      <point x="295" y="-95"/>
      <point x="265" y="-108"/>
      <point x="250" y="-108" type="qcurve" smooth="yes"/>
      <point x="233" y="-108"/>
      <point x="201" y="-98"/>
      <point x="190" y="-85" type="qcurve"/>
      <point x="137" y="-144" type="line"/>
      <point x="156" y="-166"/>
      <point x="210" y="-186"/>
    </contour>
  </outline>
</glyph>
<glyph name="tbar" format="2">
  <advance width="338"/>
  <unicode hex="0167"/>
  <outline>
    <contour>
      <point x="22" y="293" type="line"/>
      <point x="288" y="293" type="line"/>
      <point x="300" y="349" type="line"/>
      <point x="34" y="349" type="line"/>
    </contour>
    <contour>
      <point x="48" y="73" type="qcurve" smooth="yes"/>
      <point x="48" y="32"/>
      <point x="102" y="-7"/>
      <point x="142" y="-7" type="qcurve" smooth="yes"/>
      <point x="162" y="-7"/>
      <point x="200" y="-1"/>
      <point x="234" y="8"/>
      <point x="262" y="20"/>
      <point x="271" y="26" type="qcurve"/>
      <point x="266" y="96" type="line"/>
      <point x="262" y="94"/>
      <point x="245" y="86"/>
      <point x="224" y="79"/>
      <point x="200" y="74"/>
      <point x="188" y="74" type="qcurve" smooth="yes"/>
      <point x="169" y="74"/>
      <point x="143" y="93"/>
      <point x="143" y="114" type="qcurve" smooth="yes"/>
      <point x="143" y="118"/>
      <point x="144" y="125"/>
      <point x="145" y="129" type="qcurve"/>
      <point x="214" y="453" type="line"/>
      <point x="324" y="453" type="line"/>
      <point x="339" y="522" type="line"/>
      <point x="228" y="522" type="line"/>
      <point x="265" y="696" type="line"/>
      <point x="177" y="696" type="line"/>
      <point x="140" y="522" type="line"/>
      <point x="73" y="522" type="line"/>
      <point x="58" y="453" type="line"/>
      <point x="126" y="453" type="line"/>
      <point x="51" y="102" type="line"/>
      <point x="49" y="94"/>
      <point x="48" y="80"/>
    </contour>
  </outline>
</glyph>
<glyph name="Aringacute" format="2">
  <advance width="652"/>
  <unicode hex="01FA"/>
  <outline>
    <contour>
      <point x="-47" y="0" type="line"/>
      <point x="49" y="0" type="line"/>
      <point x="170" y="208" type="line"/>
      <point x="448" y="208" type="line"/>
      <point x="482" y="0" type="line"/>
      <point x="578" y="0" type="line"/>
      <point x="455" y="710" type="line"/>
      <point x="378" y="710" type="line"/>
    </contour>
    <contour>
      <point x="202" y="278" type="line"/>
      <point x="395" y="606" type="line"/>
      <point x="444" y="278" type="line"/>
    </contour>
    <contour>
      <point x="601" y="964" type="line"/>
      <point x="508" y="964" type="line"/>
      <point x="412" y="812" type="line"/>
      <point x="466" y="812" type="line"/>
    </contour>
    <contour>
      <point x="349" y="761" type="qcurve" smooth="yes"/>
      <point x="349" y="735"/>
      <point x="384" y="705"/>
      <point x="414" y="705" type="qcurve" smooth="yes"/>
      <point x="455" y="705"/>
      <point x="509" y="751"/>
      <point x="509" y="787" type="qcurve" smooth="yes"/>
      <point x="509" y="813"/>
      <point x="475" y="843"/>
      <point x="444" y="843" type="qcurve" smooth="yes"/>
      <point x="405" y="843"/>
      <point x="349" y="798"/>
    </contour>
    <contour>
      <point x="437" y="812" type="qcurve" smooth="yes"/>
      <point x="451" y="812"/>
      <point x="469" y="795"/>
      <point x="469" y="781" type="qcurve" smooth="yes"/>
      <point x="469" y="761"/>
      <point x="438" y="736"/>
      <point x="421" y="736" type="qcurve" smooth="yes"/>
      <point x="407" y="736"/>
      <point x="390" y="754"/>
      <point x="390" y="767" type="qcurve" smooth="yes"/>
      <point x="390" y="787"/>
      <point x="419" y="812"/>
    </contour>
  </outline>
</glyph>
<glyph name="dotlessj" format="2">
  <advance width="226"/>
  <unicode hex="0237"/>
  <outline>
    <contour>
      <point x="-103" y="-186" type="qcurve" smooth="yes"/>
      <point x="-72" y="-186"/>
      <point x="-10" y="-161"/>
      <point x="43" y="-116"/>
      <point x="81" y="-54"/>
      <point x="89" y="-17" type="qcurve" smooth="yes"/>
      <point x="204" y="522" type="line"/>
      <point x="116" y="522" type="line"/>
      <point x="0" y="-23" type="line" smooth="yes"/>
      <point x="-4" y="-41"/>
      <point x="-23" y="-73"/>
      <point x="-50" y="-95"/>
      <point x="-81" y="-108"/>
      <point x="-96" y="-108" type="qcurve" smooth="yes"/>
      <point x="-113" y="-108"/>
      <point x="-145" y="-98"/>
      <point x="-156" y="-85" type="qcurve"/>
      <point x="-209" y="-144" type="line"/>
      <point x="-190" y="-166"/>
      <point x="-136" y="-186"/>
    </contour>
  </outline>
</glyph>
<glyph name="uni0259" format="2">
  <advance width="567"/>
  <unicode hex="0259"/>
  <outline>
    <contour>
      <point x="213" y="-10" type="qcurve" smooth="yes"/>
      <point x="278" y="-10"/>
      <point x="393" y="43"/>
      <point x="478" y="132"/>
      <point x="528" y="248"/>
      <point x="528" y="311" type="qcurve" smooth="yes"/>
      <point x="528" y="357"/>
      <point x="501" y="437"/>
      <point x="449" y="497"/>
      <point x="374" y="531"/>
      <point x="326" y="531" type="qcurve" smooth="yes"/>
      <point x="288" y="531"/>
      <point x="215" y="511"/>
      <point x="150" y="476"/>
      <point x="97" y="428"/>
      <point x="79" y="399" type="qcurve"/>
      <point x="150" y="378" type="line"/>
      <point x="162" y="397"/>
      <point x="198" y="429"/>
      <point x="240" y="451"/>
      <point x="286" y="464"/>
      <point x="308" y="464" type="qcurve" smooth="yes"/>
      <point x="336" y="464"/>
      <point x="383" y="444"/>
      <point x="417" y="406"/>
      <point x="436" y="354"/>
      <point x="436" y="322" type="qcurve" smooth="yes"/>
      <point x="436" y="314"/>
      <point x="435" y="298"/>
      <point x="434" y="290" type="qcurve"/>
      <point x="26" y="290" type="line"/>
      <point x="17" y="269"/>
      <point x="10" y="219"/>
      <point x="10" y="197" type="qcurve" smooth="yes"/>
      <point x="10" y="153"/>
      <point x="37" y="77"/>
      <point x="89" y="22"/>
      <point x="165" y="-10"/>
    </contour>
    <contour>
      <point x="228" y="56" type="qcurve" smooth="yes"/>
      <point x="199" y="56"/>
      <point x="150" y="77"/>
      <point x="115" y="115"/>
      <point x="95" y="168"/>
      <point x="95" y="200" type="qcurve" smooth="yes"/>
      <point x="95" y="208"/>
      <point x="95" y="224"/>
      <point x="97" y="232" type="qcurve"/>
      <point x="424" y="232" type="line"/>
      <point x="414" y="194"/>
      <point x="374" y="129"/>
      <point x="322" y="82"/>
      <point x="260" y="56"/>
    </contour>
  </outline>
</glyph>
<glyph name="uni02BC" format="2">
  <advance width="206"/>
  <unicode hex="02BC"/>
  <outline>
    <contour>
      <point x="284" y="730" type="line"/>
      <point x="191" y="730" type="line"/>
      <point x="95" y="570" type="line"/>
      <point x="149" y="570" type="line"/>
    </contour>
  </outline>
</glyph>
<glyph name="ringhalfrightmod" format="2">
  <advance width="134"/>
  <unicode hex="02BE"/>
  <outline>
    <contour>
      <point x="99" y="579" type="line"/>
      <point x="117" y="579"/>
      <point x="151" y="595"/>
      <point x="176" y="625"/>
      <point x="191" y="666"/>
      <point x="191" y="690" type="qcurve" smooth="yes"/>
      <point x="191" y="719"/>
      <point x="168" y="753"/>
      <point x="146" y="753" type="qcurve"/>
      <point x="135" y="713" type="line"/>
      <point x="143" y="713"/>
      <point x="153" y="697"/>
      <point x="153" y="682" type="qcurve" smooth="yes"/>
      <point x="153" y="653"/>
      <point x="124" y="618"/>
      <point x="110" y="618" type="qcurve"/>
    </contour>
  </outline>
</glyph>
<glyph name="uni02BF" format="2">
  <advance width="133"/>
  <unicode hex="02BF"/>
  <outline>
    <contour>
      <point x="171" y="618" type="line"/>
      <point x="163" y="618"/>
      <point x="154" y="636"/>
      <point x="154" y="650" type="qcurve" smooth="yes"/>
      <point x="154" y="679"/>
      <point x="180" y="713"/>
      <point x="195" y="713" type="qcurve"/>
      <point x="207" y="753" type="line"/>
      <point x="189" y="753"/>
      <point x="155" y="736"/>
      <point x="130" y="706"/>
      <point x="115" y="665"/>
      <point x="115" y="641" type="qcurve" smooth="yes"/>
      <point x="115" y="613"/>
      <point x="139" y="579"/>
      <point x="160" y="579" type="qcurve"/>
    </contour>
  </outline>
</glyph>
<glyph name="gravemod" format="2">
  <advance width="203"/>
  <unicode hex="02CB"/>
  <outline>
    <contour>
      <point x="174" y="501" type="line"/>
      <point x="233" y="718" type="line"/>
      <point x="164" y="718" type="line"/>
      <point x="127" y="501" type="line"/>
    </contour>
  </outline>
</glyph>
<glyph name="hungarumlaut" format="2">
  <advance width="338"/>
  <unicode hex="02DD"/>
  <outline>
    <contour>
      <point x="419" y="730" type="line"/>
      <point x="331" y="730" type="line"/>
      <point x="232" y="590" type="line"/>
      <point x="281" y="590" type="line"/>
    </contour>
    <contour>
      <point x="283" y="730" type="line"/>
      <point x="195" y="730" type="line"/>
      <point x="96" y="590" type="line"/>
      <point x="145" y="590" type="line"/>
    </contour>
  </outline>
</glyph>
<glyph name="gravecomb" format="2">
  <advance width="241"/>
  <unicode hex="0300"/>
  <outline>
    <contour>
      <point x="77" y="760" type="line"/>
      <point x="181" y="600" type="line"/>
      <point x="237" y="600" type="line"/>
      <point x="179" y="760" type="line"/>
    </contour>
  </outline>
</glyph>
<glyph name="acutecomb" format="2">
  <advance width="232"/>
  <unicode hex="0301"/>
  <anchor x="75" y="522" name="_top"/>
  <anchor x="158" y="730" name="top"/>
  <outline>
    <contour>
      <point x="248.879" y="760" type="line"/>
      <point x="155.879" y="760" type="line"/>
      <point x="60.0625" y="600" type="line"/>
      <point x="114.063" y="600" type="line"/>
    </contour>
  </outline>
</glyph>
<glyph name="circumflexcomb" format="2">
  <advance width="342"/>
  <unicode hex="0302"/>
  <anchor x="218" y="523" name="_top"/>
  <anchor x="249" y="730" name="top"/>
  <outline>
    <contour>
      <point x="281" y="730" type="line"/>
      <point x="193" y="730" type="line"/>
      <point x="74" y="590" type="line"/>
      <point x="123" y="590" type="line"/>
    </contour>
    <contour>
      <point x="214" y="730" type="line"/>
      <point x="312" y="590" type="line"/>
      <point x="361" y="590" type="line"/>
      <point x="302" y="730" type="line"/>
    </contour>
  </outline>
</glyph>
<glyph name="uni0302" format="2">
  <advance width="352"/>
  <unicode hex="0302"/>
  <outline>
    <contour>
      <point x="70" y="600" type="line"/>
      <point x="127" y="600" type="line"/>
      <point x="238" y="688" type="line"/>
      <point x="312" y="600" type="line"/>
      <point x="368" y="600" type="line"/>
      <point x="301" y="743" type="line"/>
      <point x="198" y="743" type="line"/>
    </contour>
  </outline>
</glyph>
<glyph name="tildecomb" format="2">
  <advance width="423"/>
  <unicode hex="0303"/>
  <outline>
    <contour>
      <point x="349" y="627" type="qcurve" smooth="yes"/>
      <point x="380" y="627"/>
      <point x="425" y="655"/>
      <point x="456" y="691"/>
      <point x="472" y="724"/>
      <point x="473" y="730" type="qcurve"/>
      <point x="422" y="730" type="line"/>
      <point x="422" y="729"/>
      <point x="415" y="713"/>
      <point x="400" y="695"/>
      <point x="376" y="681"/>
      <point x="358" y="681" type="qcurve" smooth="yes"/>
      <point x="341" y="681"/>
      <point x="316" y="694"/>
      <point x="293" y="711"/>
      <point x="265" y="724"/>
      <point x="245" y="724" type="qcurve" smooth="yes"/>
      <point x="217" y="724"/>
      <point x="174" y="697"/>
      <point x="144" y="661"/>
      <point x="129" y="627"/>
      <point x="127" y="621" type="qcurve"/>
      <point x="179" y="621" type="line"/>
      <point x="179" y="623"/>
      <point x="185" y="638"/>
      <point x="198" y="655"/>
      <point x="219" y="669"/>
      <point x="235" y="669" type="qcurve" smooth="yes"/>
      <point x="250" y="669"/>
      <point x="274" y="656"/>
      <point x="298" y="640"/>
      <point x="328" y="627"/>
    </contour>
  </outline>
</glyph>
<glyph name="uni0304" format="2">
  <advance width="379"/>
  <unicode hex="0304"/>
  <outline>
    <contour>
      <point x="411" y="652" type="line"/>
      <point x="424" y="710" type="line"/>
      <point x="145" y="710" type="line"/>
      <point x="133" y="652" type="line"/>
    </contour>
  </outline>
</glyph>
<glyph name="brevecomb" format="2">
  <advance width="310"/>
  <unicode hex="0306"/>
  <outline>
    <contour>
      <point x="241" y="662" type="qcurve" smooth="yes"/>
      <point x="222" y="662"/>
      <point x="199" y="692"/>
      <point x="199" y="713" type="qcurve" smooth="yes"/>
      <point x="199" y="718"/>
      <point x="200" y="725"/>
      <point x="201" y="730" type="qcurve"/>
      <point x="150" y="730" type="line"/>
      <point x="148" y="723"/>
      <point x="147" y="711"/>
      <point x="147" y="704" type="qcurve" smooth="yes"/>
      <point x="147" y="666"/>
      <point x="193" y="619"/>
      <point x="232" y="619" type="qcurve" smooth="yes"/>
      <point x="254" y="619"/>
      <point x="296" y="636"/>
      <point x="331" y="666"/>
      <point x="355" y="706"/>
      <point x="360" y="730" type="qcurve"/>
      <point x="310" y="730" type="line"/>
      <point x="301" y="701"/>
      <point x="261" y="662"/>
    </contour>
  </outline>
</glyph>
<glyph name="dotaccentcomb" format="2">
  <advance width="180"/>
  <unicode hex="0307"/>
  <anchor x="123" y="522" name="_top"/>
  <anchor x="168" y="730" name="top"/>
  <outline>
    <contour>
      <point x="99" y="674" type="curve"/>
      <point x="93" y="643"/>
      <point x="112" y="618"/>
      <point x="143" y="618" type="curve" smooth="yes"/>
      <point x="174" y="618"/>
      <point x="205" y="643"/>
      <point x="211" y="674" type="curve"/>
      <point x="218" y="705"/>
      <point x="198" y="730"/>
      <point x="167" y="730" type="curve" smooth="yes"/>
      <point x="136" y="730"/>
      <point x="106" y="705"/>
    </contour>
  </outline>
</glyph>
<glyph name="uni0307" format="2">
  <advance width="180"/>
  <unicode hex="0307"/>
  <outline>
    <contour>
      <point x="99" y="674" type="qcurve"/>
      <point x="94" y="651"/>
      <point x="120" y="618"/>
      <point x="143" y="618" type="qcurve" smooth="yes"/>
      <point x="155" y="618"/>
      <point x="177" y="627"/>
      <point x="196" y="642"/>
      <point x="209" y="662"/>
      <point x="211" y="674" type="qcurve"/>
      <point x="216" y="697"/>
      <point x="190" y="730"/>
      <point x="167" y="730" type="qcurve" smooth="yes"/>
      <point x="155" y="730"/>
      <point x="133" y="721"/>
      <point x="115" y="706"/>
      <point x="102" y="686"/>
    </contour>
  </outline>
</glyph>
<glyph name="dieresiscomb" format="2">
  <advance width="368"/>
  <unicode hex="0308"/>
  <anchor x="217" y="521" name="_top"/>
  <anchor x="259" y="720" name="top"/>
  <outline>
    <contour>
      <point x="137" y="618" type="curve" smooth="yes"/>
      <point x="168" y="618"/>
      <point x="199" y="643"/>
      <point x="205" y="674" type="curve"/>
      <point x="212" y="705"/>
      <point x="192" y="730"/>
      <point x="161" y="730" type="curve" smooth="yes"/>
      <point x="130" y="730"/>
      <point x="100" y="705"/>
      <point x="93" y="674" type="curve"/>
      <point x="87" y="643"/>
      <point x="106" y="618"/>
    </contour>
    <contour>
      <point x="338" y="618" type="curve" smooth="yes"/>
      <point x="369" y="618"/>
      <point x="400" y="643"/>
      <point x="406" y="674" type="curve"/>
      <point x="413" y="705"/>
      <point x="393" y="730"/>
      <point x="362" y="730" type="curve" smooth="yes"/>
      <point x="331" y="730"/>
      <point x="301" y="705"/>
      <point x="294" y="674" type="curve"/>
      <point x="288" y="643"/>
      <point x="307" y="618"/>
    </contour>
  </outline>
</glyph>
<glyph name="uni0308" format="2">
  <advance width="368"/>
  <unicode hex="0308"/>
  <outline>
    <contour>
      <point x="137" y="618" type="qcurve" smooth="yes"/>
      <point x="149" y="618"/>
      <point x="171" y="627"/>
      <point x="190" y="642"/>
      <point x="203" y="662"/>
      <point x="205" y="674" type="qcurve"/>
      <point x="210" y="697"/>
      <point x="184" y="730"/>
      <point x="161" y="730" type="qcurve" smooth="yes"/>
      <point x="149" y="730"/>
      <point x="127" y="721"/>
      <point x="109" y="706"/>
      <point x="96" y="686"/>
      <point x="93" y="674" type="qcurve"/>
      <point x="88" y="651"/>
      <point x="114" y="618"/>
    </contour>
    <contour>
      <point x="338" y="618" type="qcurve" smooth="yes"/>
      <point x="350" y="618"/>
      <point x="372" y="627"/>
      <point x="391" y="642"/>
      <point x="404" y="662"/>
      <point x="406" y="674" type="qcurve"/>
      <point x="411" y="697"/>
      <point x="385" y="730"/>
      <point x="362" y="730" type="qcurve" smooth="yes"/>
      <point x="350" y="730"/>
      <point x="328" y="721"/>
      <point x="310" y="706"/>
      <point x="297" y="686"/>
      <point x="294" y="674" type="qcurve"/>
      <point x="289" y="651"/>
      <point x="315" y="618"/>
    </contour>
  </outline>
</glyph>
<glyph name="hookabovecomb" format="2">
  <advance width="253"/>
  <unicode hex="0309"/>
  <outline>
    <contour>
      <point x="169" y="696" type="line"/>
      <point x="189" y="709"/>
      <point x="211" y="718"/>
      <point x="224" y="718" type="qcurve" smooth="yes"/>
      <point x="236" y="718"/>
      <point x="245" y="702"/>
      <point x="240" y="691" type="qcurve"/>
      <point x="235" y="679"/>
      <point x="215" y="656"/>
      <point x="191" y="640" type="qcurve"/>
      <point x="205" y="611" type="line"/>
      <point x="244" y="635"/>
      <point x="288" y="679"/>
      <point x="295" y="699" type="qcurve" smooth="yes"/>
      <point x="304" y="724"/>
      <point x="286" y="765"/>
      <point x="250" y="765" type="qcurve" smooth="yes"/>
      <point x="224" y="765"/>
      <point x="174" y="746"/>
      <point x="149" y="729" type="qcurve"/>
    </contour>
  </outline>
</glyph>
<glyph name="ringcomb" format="2">
  <advance width="258"/>
  <unicode hex="030A"/>
  <outline>
    <contour>
      <point x="134" y="648" type="qcurve" smooth="yes"/>
      <point x="134" y="622"/>
      <point x="169" y="592"/>
      <point x="199" y="592" type="qcurve" smooth="yes"/>
      <point x="240" y="592"/>
      <point x="294" y="638"/>
      <point x="294" y="674" type="qcurve" smooth="yes"/>
      <point x="294" y="700"/>
      <point x="260" y="730"/>
      <point x="229" y="730" type="qcurve" smooth="yes"/>
      <point x="190" y="730"/>
      <point x="134" y="685"/>
    </contour>
    <contour>
      <point x="222" y="699" type="qcurve" smooth="yes"/>
      <point x="236" y="699"/>
      <point x="254" y="682"/>
      <point x="254" y="668" type="qcurve" smooth="yes"/>
      <point x="254" y="648"/>
      <point x="223" y="623"/>
      <point x="206" y="623" type="qcurve" smooth="yes"/>
      <point x="192" y="623"/>
      <point x="175" y="641"/>
      <point x="175" y="654" type="qcurve" smooth="yes"/>
      <point x="175" y="674"/>
      <point x="204" y="699"/>
    </contour>
  </outline>
</glyph>
<glyph name="hungarumlautcomb" format="2">
  <advance width="338"/>
  <unicode hex="030B"/>
  <anchor x="135" y="521" name="_top"/>
  <outline>
    <contour>
      <point x="40" y="590" type="line"/>
      <point x="98" y="590" type="line"/>
      <point x="206" y="730" type="line"/>
      <point x="109" y="730" type="line"/>
    </contour>
    <contour>
      <point x="176" y="590" type="line"/>
      <point x="234" y="590" type="line"/>
      <point x="342" y="730" type="line"/>
      <point x="245" y="730" type="line"/>
    </contour>
  </outline>
</glyph>
<glyph name="uni030B" format="2">
  <advance width="338"/>
  <unicode hex="030B"/>
  <outline>
    <contour>
      <point x="463" y="760" type="line"/>
      <point x="370" y="760" type="line"/>
      <point x="257" y="600" type="line"/>
      <point x="311" y="600" type="line"/>
    </contour>
    <contour>
      <point x="288" y="760" type="line"/>
      <point x="195" y="760" type="line"/>
      <point x="82" y="600" type="line"/>
      <point x="136" y="600" type="line"/>
    </contour>
  </outline>
</glyph>
<glyph name="caroncomb" format="2">
  <advance width="342"/>
  <unicode hex="030C"/>
  <anchor x="219" y="522" name="_top"/>
  <anchor x="269" y="730" name="top"/>
  <outline>
    <contour>
      <point x="163" y="590" type="line"/>
      <point x="251" y="590" type="line"/>
      <point x="153" y="730" type="line"/>
      <point x="104" y="730" type="line"/>
    </contour>
    <contour>
      <point x="184" y="590" type="line"/>
      <point x="272" y="590" type="line"/>
      <point x="391" y="730" type="line"/>
      <point x="342" y="730" type="line"/>
    </contour>
  </outline>
</glyph>
<glyph name="uni030C" format="2">
  <advance width="342"/>
  <unicode hex="030C"/>
  <outline>
    <contour>
      <point x="102" y="740" type="line"/>
      <point x="171" y="600" type="line"/>
      <point x="260" y="600" type="line"/>
      <point x="389" y="740" type="line"/>
      <point x="340" y="740" type="line"/>
      <point x="227" y="650" type="line"/>
      <point x="151" y="740" type="line"/>
    </contour>
  </outline>
</glyph>
<glyph name="uni030F" format="2">
  <advance width="338"/>
  <unicode hex="030F"/>
  <outline>
    <contour>
      <point x="210" y="760" type="line"/>
      <point x="294" y="600" type="line"/>
      <point x="343" y="600" type="line"/>
      <point x="298" y="760" type="line"/>
    </contour>
    <contour>
      <point x="35" y="760" type="line"/>
      <point x="119" y="600" type="line"/>
      <point x="168" y="600" type="line"/>
      <point x="123" y="760" type="line"/>
    </contour>
  </outline>
</glyph>
<glyph name="breveinvertedcomb" format="2">
  <advance width="309"/>
  <unicode hex="0311"/>
  <outline>
    <contour>
      <point x="126" y="619" type="qcurve"/>
      <point x="176" y="619" type="line"/>
      <point x="183" y="648"/>
      <point x="215" y="687"/>
      <point x="247" y="687" type="qcurve" smooth="yes"/>
      <point x="269" y="687"/>
      <point x="288" y="666"/>
      <point x="288" y="644" type="qcurve" smooth="yes"/>
      <point x="288" y="638"/>
      <point x="287" y="626"/>
      <point x="286" y="619" type="qcurve"/>
      <point x="335" y="619" type="line"/>
      <point x="337" y="625"/>
      <point x="338" y="637"/>
      <point x="338" y="643" type="qcurve" smooth="yes"/>
      <point x="338" y="679"/>
      <point x="291" y="730"/>
      <point x="253" y="730" type="qcurve" smooth="yes"/>
      <point x="231" y="730"/>
      <point x="190" y="713"/>
      <point x="155" y="683"/>
      <point x="131" y="643"/>
    </contour>
  </outline>
</glyph>
<glyph name="commaturnedabovecomb" format="2">
  <advance width="168"/>
  <unicode hex="0312"/>
  <anchor x="105" y="522" name="_top"/>
  <anchor x="149" y="730" name="top"/>
  <outline>
    <contour>
      <point x="72" y="588" type="line"/>
      <point x="160" y="588" type="line"/>
      <point x="259" y="728" type="line"/>
      <point x="210" y="728" type="line"/>
    </contour>
  </outline>
</glyph>
<glyph name="uni0312" format="2">
  <advance width="168"/>
  <unicode hex="0312"/>
  <outline>
    <contour>
      <point x="72" y="588" type="line"/>
      <point x="160" y="588" type="line"/>
      <point x="259" y="728" type="line"/>
      <point x="210" y="728" type="line"/>
    </contour>
  </outline>
</glyph>
<glyph name="horncomb" format="2">
  <advance width="267"/>
  <unicode hex="031B"/>
  <outline>
    <contour>
      <point x="99" y="493" type="line"/>
      <point x="121" y="493"/>
      <point x="163" y="499"/>
      <point x="200" y="510"/>
      <point x="232" y="527"/>
      <point x="244" y="539" type="qcurve"/>
      <point x="256" y="550"/>
      <point x="273" y="575"/>
      <point x="285" y="600"/>
      <point x="294" y="627"/>
      <point x="298" y="641" type="qcurve"/>
      <point x="226" y="641" type="line"/>
      <point x="221" y="621"/>
      <point x="210" y="593"/>
      <point x="198" y="580" type="qcurve" smooth="yes"/>
      <point x="187" y="568"/>
      <point x="148" y="557"/>
      <point x="113" y="557" type="qcurve"/>
    </contour>
  </outline>
</glyph>
<glyph name="dotbelowcomb" format="2">
  <advance width="180"/>
  <unicode hex="0323"/>
  <outline>
    <contour>
      <point x="14" y="-136" type="qcurve"/>
      <point x="9" y="-159"/>
      <point x="35" y="-192"/>
      <point x="58" y="-192" type="qcurve" smooth="yes"/>
      <point x="70" y="-192"/>
      <point x="92" y="-183"/>
      <point x="111" y="-168"/>
      <point x="124" y="-148"/>
      <point x="126" y="-136" type="qcurve"/>
      <point x="131" y="-113"/>
      <point x="105" y="-80"/>
      <point x="82" y="-80" type="qcurve" smooth="yes"/>
      <point x="70" y="-80"/>
      <point x="48" y="-89"/>
      <point x="30" y="-104"/>
      <point x="17" y="-124"/>
    </contour>
  </outline>
</glyph>
<glyph name="dieresisbelowcomb" format="2">
  <advance width="368"/>
  <unicode hex="0324"/>
  <anchor x="173" y="0" name="_bottom"/>
  <anchor x="153" y="-187" name="bottom"/>
  <outline>
    <contour>
      <point x="51" y="-192" type="curve" smooth="yes"/>
      <point x="82" y="-192"/>
      <point x="113" y="-167"/>
      <point x="119" y="-136" type="curve"/>
      <point x="126" y="-105"/>
      <point x="106" y="-80"/>
      <point x="75" y="-80" type="curve" smooth="yes"/>
      <point x="44" y="-80"/>
      <point x="14" y="-105"/>
      <point x="7" y="-136" type="curve"/>
      <point x="1" y="-167"/>
      <point x="20" y="-192"/>
    </contour>
    <contour>
      <point x="252" y="-192" type="curve" smooth="yes"/>
      <point x="283" y="-192"/>
      <point x="314" y="-167"/>
      <point x="320" y="-136" type="curve"/>
      <point x="327" y="-105"/>
      <point x="307" y="-80"/>
      <point x="276" y="-80" type="curve" smooth="yes"/>
      <point x="245" y="-80"/>
      <point x="215" y="-105"/>
      <point x="208" y="-136" type="curve"/>
      <point x="202" y="-167"/>
      <point x="221" y="-192"/>
    </contour>
  </outline>
</glyph>
<glyph name="uni0324" format="2">
  <advance width="368"/>
  <unicode hex="0324"/>
  <outline>
    <contour>
      <point x="51" y="-192" type="qcurve" smooth="yes"/>
      <point x="63" y="-192"/>
      <point x="85" y="-183"/>
      <point x="104" y="-168"/>
      <point x="117" y="-148"/>
      <point x="119" y="-136" type="qcurve"/>
      <point x="124" y="-113"/>
      <point x="98" y="-80"/>
      <point x="75" y="-80" type="qcurve" smooth="yes"/>
      <point x="63" y="-80"/>
      <point x="41" y="-89"/>
      <point x="23" y="-104"/>
      <point x="10" y="-124"/>
      <point x="7" y="-136" type="qcurve"/>
      <point x="2" y="-159"/>
      <point x="28" y="-192"/>
    </contour>
    <contour>
      <point x="252" y="-192" type="qcurve" smooth="yes"/>
      <point x="264" y="-192"/>
      <point x="286" y="-183"/>
      <point x="305" y="-168"/>
      <point x="318" y="-148"/>
      <point x="320" y="-136" type="qcurve"/>
      <point x="325" y="-113"/>
      <point x="299" y="-80"/>
      <point x="276" y="-80" type="qcurve" smooth="yes"/>
      <point x="264" y="-80"/>
      <point x="242" y="-89"/>
      <point x="224" y="-104"/>
      <point x="211" y="-124"/>
      <point x="208" y="-136" type="qcurve"/>
      <point x="203" y="-159"/>
      <point x="229" y="-192"/>
    </contour>
  </outline>
</glyph>
<glyph name="commaaccentcomb" format="2">
  <advance width="168"/>
  <unicode hex="0326"/>
  <anchor x="131" y="0" name="_bottom"/>
  <outline>
    <contour>
      <point x="56" y="-241" type="line"/>
      <point x="167" y="-48" type="line"/>
      <point x="84" y="-48" type="line"/>
      <point x="13" y="-241" type="line"/>
    </contour>
  </outline>
</glyph>
<glyph name="uni0326" format="2">
  <advance width="168"/>
  <unicode hex="0326"/>
  <outline>
    <contour>
      <point x="56" y="-241" type="line"/>
      <point x="167" y="-48" type="line"/>
      <point x="84" y="-48" type="line"/>
      <point x="13" y="-241" type="line"/>
    </contour>
  </outline>
</glyph>
<glyph name="cedillacomb" format="2">
  <advance width="307"/>
  <unicode hex="0327"/>
  <outline>
    <contour>
      <point x="-115" y="-201" type="line"/>
      <point x="-52" y="-152"/>
      <point x="-4" y="-102"/>
      <point x="35" y="-42" type="curve"/>
      <point x="-77" y="-31" type="line"/>
      <point x="-99" y="-87"/>
      <point x="-136" y="-147"/>
      <point x="-178" y="-189" type="curve"/>
    </contour>
  </outline>
</glyph>
<glyph name="uni0327" format="2">
  <advance width="283"/>
  <unicode hex="0327"/>
  <outline>
    <contour>
      <point x="-44" y="-166" type="qcurve"/>
      <point x="-21" y="-177"/>
      <point x="23" y="-185"/>
      <point x="48" y="-185" type="qcurve" smooth="yes"/>
      <point x="69" y="-185"/>
      <point x="113" y="-177"/>
      <point x="149" y="-156"/>
      <point x="172" y="-123"/>
      <point x="172" y="-97" type="qcurve" smooth="yes"/>
      <point x="172" y="-68"/>
      <point x="135" y="-46"/>
      <point x="109" y="-46" type="qcurve" smooth="yes"/>
      <point x="100" y="-46"/>
      <point x="82" y="-48"/>
      <point x="74" y="-51" type="qcurve"/>
      <point x="119" y="4" type="line"/>
      <point x="83" y="18" type="line"/>
      <point x="5" y="-91" type="line"/>
      <point x="25" y="-85"/>
      <point x="64" y="-78"/>
      <point x="84" y="-78" type="qcurve" smooth="yes"/>
      <point x="92" y="-78"/>
      <point x="107" y="-80"/>
      <point x="119" y="-86"/>
      <point x="126" y="-97"/>
      <point x="126" y="-106" type="qcurve" smooth="yes"/>
      <point x="126" y="-119"/>
      <point x="114" y="-136"/>
      <point x="96" y="-145"/>
      <point x="74" y="-148"/>
      <point x="63" y="-148" type="qcurve" smooth="yes"/>
      <point x="54" y="-148"/>
      <point x="33" y="-146"/>
      <point x="12" y="-141"/>
      <point x="-8" y="-134"/>
      <point x="-16" y="-129" type="qcurve"/>
      <point x="-24" y="-138"/>
      <point x="-37" y="-156"/>
    </contour>
  </outline>
</glyph>
<glyph name="ogonekcomb" format="2">
  <advance width="213"/>
  <unicode hex="0328"/>
  <outline>
    <contour>
      <point x="-29" y="-123" type="qcurve" smooth="yes"/>
      <point x="-29" y="-145"/>
      <point x="0" y="-184"/>
      <point x="41" y="-189" type="qcurve"/>
      <point x="74" y="-133" type="line"/>
      <point x="53" y="-131"/>
      <point x="29" y="-118"/>
      <point x="29" y="-103" type="qcurve" smooth="yes"/>
      <point x="29" y="-83"/>
      <point x="66" y="-36"/>
      <point x="108" y="0" type="qcurve"/>
      <point x="100" y="18" type="line"/>
      <point x="75" y="18" type="line"/>
      <point x="21" y="-19"/>
      <point x="-29" y="-87"/>
    </contour>
  </outline>
</glyph>
<glyph name="uni032E" format="2">
  <advance width="271"/>
  <unicode hex="032E"/>
  <outline>
    <contour>
      <point x="41" y="-166" type="qcurve" smooth="yes"/>
      <point x="61" y="-166"/>
      <point x="100" y="-149"/>
      <point x="133" y="-119"/>
      <point x="158" y="-79"/>
      <point x="164" y="-55" type="qcurve"/>
      <point x="117" y="-55" type="line"/>
      <point x="107" y="-84"/>
      <point x="70" y="-123"/>
      <point x="52" y="-123" type="qcurve" smooth="yes"/>
      <point x="33" y="-123"/>
      <point x="14" y="-82"/>
      <point x="21" y="-55" type="qcurve"/>
      <point x="-27" y="-55" type="line"/>
      <point x="-39" y="-103"/>
      <point x="0" y="-166"/>
    </contour>
  </outline>
</glyph>
<glyph name="macronbelowcomb" format="2">
  <advance width="367"/>
  <unicode hex="0331"/>
  <outline>
    <contour>
      <point x="229" y="-143" type="line"/>
      <point x="243" y="-85" type="line"/>
      <point x="-22" y="-85" type="line"/>
      <point x="-36" y="-143" type="line"/>
    </contour>
  </outline>
</glyph>
<glyph name="uni0335" format="2">
  <advance width="328"/>
  <unicode hex="0335"/>
  <outline>
    <contour>
      <point x="278" y="272" type="line"/>
      <point x="292" y="328" type="line"/>
      <point x="66" y="328" type="line"/>
      <point x="52" y="272" type="line"/>
    </contour>
  </outline>
</glyph>
<glyph name="tonos" format="2">
  <advance width="182"/>
  <unicode hex="0384"/>
  <anchor x="131" y="519" name="_top"/>
  <outline>
    <contour>
      <point x="190" y="804" type="line"/>
      <point x="114" y="579" type="line"/>
      <point x="170" y="570" type="line"/>
      <point x="261" y="789" type="line"/>
    </contour>
  </outline>
</glyph>
<glyph name="dieresistonos" format="2">
  <advance width="449"/>
  <unicode hex="0385"/>
  <anchor x="277" y="531" name="_top"/>
  <outline>
    <component base="tonos" xOffset="146" yOffset="12"/>
    <contour>
      <point x="110" y="656" type="curve"/>
      <point x="100" y="617"/>
      <point x="123" y="583"/>
      <point x="163" y="583" type="curve" smooth="yes"/>
      <point x="198" y="583"/>
      <point x="227" y="608"/>
      <point x="234" y="640" type="curve" smooth="yes"/>
      <point x="243" y="681"/>
      <point x="221" y="712"/>
      <point x="182" y="712" type="curve" smooth="yes"/>
      <point x="147" y="712"/>
      <point x="117" y="691"/>
    </contour>
    <contour>
      <point x="392" y="656" type="curve"/>
      <point x="383" y="617"/>
      <point x="407" y="583"/>
      <point x="446" y="583" type="curve" smooth="yes"/>
      <point x="480" y="583"/>
      <point x="510" y="608"/>
      <point x="517" y="640" type="curve" smooth="yes"/>
      <point x="526" y="681"/>
      <point x="503" y="712"/>
      <point x="464" y="712" type="curve" smooth="yes"/>
      <point x="431" y="712"/>
      <point x="399" y="691"/>
    </contour>
  </outline>
</glyph>
<glyph name="uni0394" format="2">
  <advance width="643"/>
  <unicode hex="0394"/>
  <outline>
    <contour>
      <point x="-44" y="0" type="line"/>
      <point x="570" y="0" type="line"/>
      <point x="573" y="21" type="line"/>
      <point x="484" y="714" type="line"/>
      <point x="363" y="714" type="line"/>
      <point x="-40" y="21" type="line"/>
    </contour>
    <contour>
      <point x="90" y="82" type="line"/>
      <point x="281" y="400" type="line"/>
      <point x="404" y="625" type="line"/>
      <point x="408" y="625" type="line"/>
      <point x="431" y="400" type="line"/>
      <point x="471" y="82" type="line"/>
    </contour>
  </outline>
</glyph>
<glyph name="Eta" format="2">
  <advance width="713"/>
  <unicode hex="0397"/>
  <outline>
    <contour>
      <point x="-7" y="0" type="line"/>
      <point x="82" y="0" type="line"/>
      <point x="150" y="320" type="line"/>
      <point x="512" y="320" type="line"/>
      <point x="444" y="0" type="line"/>
      <point x="533" y="0" type="line"/>
      <point x="683" y="704" type="line"/>
      <point x="594" y="704" type="line"/>
      <point x="529" y="400" type="line"/>
      <point x="167" y="400" type="line"/>
      <point x="232" y="704" type="line"/>
      <point x="143" y="704" type="line"/>
    </contour>
  </outline>
</glyph>
<glyph name="Theta" format="2">
  <advance width="721"/>
  <unicode hex="0398"/>
  <outline>
    <contour>
      <point x="188" y="313" type="line"/>
      <point x="535" y="313" type="line"/>
      <point x="554" y="403" type="line"/>
      <point x="208" y="403" type="line"/>
    </contour>
    <contour>
      <point x="293" y="-5" type="qcurve" smooth="yes"/>
      <point x="370" y="-5"/>
      <point x="515" y="67"/>
      <point x="626" y="185"/>
      <point x="693" y="337"/>
      <point x="693" y="416" type="qcurve" smooth="yes"/>
      <point x="693" y="473"/>
      <point x="661" y="578"/>
      <point x="598" y="660"/>
      <point x="506" y="709"/>
      <point x="446" y="709" type="qcurve" smooth="yes"/>
      <point x="369" y="709"/>
      <point x="223" y="637"/>
      <point x="111" y="519"/>
      <point x="44" y="366"/>
      <point x="44" y="286" type="qcurve" smooth="yes"/>
      <point x="44" y="229"/>
      <point x="77" y="124"/>
      <point x="140" y="43"/>
      <point x="233" y="-5"/>
    </contour>
    <contour>
      <point x="310" y="75" type="qcurve" smooth="yes"/>
      <point x="268" y="75"/>
      <point x="202" y="111"/>
      <point x="158" y="170"/>
      <point x="135" y="250"/>
      <point x="135" y="294" type="qcurve" smooth="yes"/>
      <point x="135" y="353"/>
      <point x="181" y="472"/>
      <point x="260" y="568"/>
      <point x="366" y="628"/>
      <point x="427" y="628" type="qcurve" smooth="yes"/>
      <point x="469" y="628"/>
      <point x="534" y="592"/>
      <point x="579" y="533"/>
      <point x="602" y="453"/>
      <point x="602" y="410" type="qcurve" smooth="yes"/>
      <point x="602" y="351"/>
      <point x="557" y="232"/>
      <point x="478" y="136"/>
      <point x="371" y="75"/>
    </contour>
  </outline>
</glyph>
<glyph name="Lambda" format="2">
  <advance width="671"/>
  <unicode hex="039B"/>
  <outline>
    <contour>
      <point x="-40" y="0" type="line"/>
      <point x="63" y="0" type="line"/>
      <point x="289" y="392" type="line"/>
      <point x="418" y="621" type="line"/>
      <point x="422" y="621" type="line"/>
      <point x="449" y="392" type="line"/>
      <point x="494" y="0" type="line"/>
      <point x="593" y="0" type="line"/>
      <point x="503" y="714" type="line"/>
      <point x="377" y="714" type="line"/>
    </contour>
  </outline>
</glyph>
<glyph name="Xi" format="2">
  <advance width="639"/>
  <unicode hex="039E"/>
  <outline>
    <contour>
      <point x="11" y="0" type="line"/>
      <point x="510" y="0" type="line"/>
      <point x="529" y="82" type="line"/>
      <point x="30" y="82" type="line"/>
    </contour>
    <contour>
      <point x="153" y="319" type="line"/>
      <point x="511" y="319" type="line"/>
      <point x="530" y="400" type="line"/>
      <point x="172" y="400" type="line"/>
    </contour>
    <contour>
      <point x="155" y="632" type="line"/>
      <point x="654" y="632" type="line"/>
      <point x="672" y="715" type="line"/>
      <point x="172" y="715" type="line"/>
    </contour>
  </outline>
</glyph>
<glyph name="Pi" format="2">
  <advance width="651"/>
  <unicode hex="03A0"/>
  <outline>
    <contour>
      <point x="23" y="0" type="line"/>
      <point x="121" y="0" type="line"/>
      <point x="265" y="632" type="line"/>
      <point x="558" y="632" type="line"/>
      <point x="414" y="0" type="line"/>
      <point x="511" y="0" type="line"/>
      <point x="673" y="715" type="line"/>
      <point x="185" y="715" type="line"/>
    </contour>
  </outline>
</glyph>
<glyph name="Sigma" format="2">
  <advance width="558"/>
  <unicode hex="03A3"/>
  <outline>
    <contour>
      <point x="-9" y="0" type="line"/>
      <point x="456" y="0" type="line"/>
      <point x="475" y="82" type="line"/>
      <point x="145" y="82" type="line"/>
      <point x="423" y="365" type="line"/>
      <point x="271" y="632" type="line"/>
      <point x="575" y="632" type="line"/>
      <point x="593" y="715" type="line"/>
      <point x="157" y="715" type="line"/>
      <point x="146" y="657" type="line"/>
      <point x="317" y="363" type="line"/>
      <point x="3" y="58" type="line"/>
    </contour>
  </outline>
</glyph>
<glyph name="Upsilon" format="2">
  <advance width="629"/>
  <unicode hex="03A5"/>
  <anchor x="254" y="-24" name="bottom"/>
  <anchor x="424" y="739" name="top"/>
  <anchor x="53" y="631" name="topleft"/>
  <outline>
    <contour>
      <point x="207.244" y="0" type="line"/>
      <point x="304.421" y="0" type="line"/>
      <point x="357.968" y="235.009" type="line" smooth="yes"/>
      <point x="399.615" y="417.464"/>
      <point x="539.43" y="540.422"/>
      <point x="683.212" y="658.422" type="curve"/>
      <point x="620.742" y="718.91" type="line"/>
      <point x="476.96" y="600.91"/>
      <point x="410.522" y="539.43"/>
      <point x="352.018" y="419.447" type="curve"/>
      <point x="345.077" y="410.522" type="line"/>
      <point x="339.127" y="529.514"/>
      <point x="305.413" y="594.96"/>
      <point x="211.211" y="711.969" type="curve"/>
      <point x="131.883" y="663.38" type="line"/>
      <point x="217.16" y="555.296"/>
      <point x="306.404" y="435.312"/>
      <point x="262.774" y="244.925" type="curve" smooth="yes"/>
    </contour>
  </outline>
</glyph>
<glyph name="Phi" format="2">
  <advance width="732"/>
  <unicode hex="03A6"/>
  <outline>
    <contour>
      <point x="322" y="158" type="line"/>
      <point x="277" y="158"/>
      <point x="207" y="187"/>
      <point x="164" y="238"/>
      <point x="149" y="308"/>
      <point x="158" y="350" type="qcurve"/>
      <point x="169" y="395"/>
      <point x="219" y="472"/>
      <point x="289" y="528"/>
      <point x="374" y="559"/>
      <point x="419" y="559" type="qcurve"/>
      <point x="432" y="640" type="line"/>
      <point x="366" y="640"/>
      <point x="246" y="600"/>
      <point x="151" y="528"/>
      <point x="84" y="427"/>
      <point x="70" y="366" type="qcurve" smooth="yes"/>
      <point x="56" y="303"/>
      <point x="78" y="197"/>
      <point x="141" y="120"/>
      <point x="243" y="77"/>
      <point x="309" y="77" type="qcurve"/>
    </contour>
    <contour>
      <point x="347" y="-30" type="line"/>
      <point x="523" y="745" type="line"/>
      <point x="431" y="745" type="line"/>
      <point x="256" y="-30" type="line"/>
    </contour>
    <contour>
      <point x="350" y="77" type="line"/>
      <point x="416" y="77"/>
      <point x="535" y="117"/>
      <point x="629" y="190"/>
      <point x="695" y="290"/>
      <point x="709" y="350" type="qcurve" smooth="yes"/>
      <point x="723" y="413"/>
      <point x="703" y="520"/>
      <point x="640" y="597"/>
      <point x="539" y="640"/>
      <point x="473" y="640" type="qcurve"/>
      <point x="460" y="559" type="line"/>
      <point x="505" y="559"/>
      <point x="574" y="531"/>
      <point x="616" y="480"/>
      <point x="630" y="409"/>
      <point x="620" y="366" type="qcurve" smooth="yes"/>
      <point x="610" y="322"/>
      <point x="562" y="246"/>
      <point x="493" y="190"/>
      <point x="408" y="158"/>
      <point x="363" y="158" type="qcurve"/>
    </contour>
  </outline>
</glyph>
<glyph name="Psi" format="2">
  <advance width="757"/>
  <unicode hex="03A8"/>
  <outline>
    <contour>
      <point x="275" y="0" type="line"/>
      <point x="367" y="0" type="line"/>
      <point x="530" y="714" type="line"/>
      <point x="437" y="714" type="line"/>
    </contour>
    <contour>
      <point x="121" y="442" type="line" smooth="yes"/>
      <point x="86" y="290"/>
      <point x="148" y="181"/>
      <point x="337" y="180" type="curve"/>
      <point x="345" y="257" type="line"/>
      <point x="219" y="257"/>
      <point x="184" y="324"/>
      <point x="206" y="423" type="curve"/>
      <point x="216" y="462"/>
      <point x="234" y="527"/>
      <point x="245" y="583" type="curve"/>
      <point x="257" y="634"/>
      <point x="266" y="679"/>
      <point x="261" y="709" type="curve"/>
      <point x="173" y="719" type="line"/>
      <point x="172" y="659"/>
      <point x="161" y="613"/>
      <point x="151" y="571" type="curve" smooth="yes"/>
    </contour>
    <contour>
      <point x="744" y="562" type="line" smooth="yes"/>
      <point x="755" y="607"/>
      <point x="766" y="650"/>
      <point x="792" y="709" type="curve"/>
      <point x="699" y="719" type="line"/>
      <point x="682" y="689"/>
      <point x="671" y="642"/>
      <point x="663" y="600" type="curve"/>
      <point x="649" y="536"/>
      <point x="637" y="472"/>
      <point x="630" y="440" type="curve"/>
      <point x="604" y="335"/>
      <point x="532" y="257"/>
      <point x="408" y="257" type="curve"/>
      <point x="392" y="180" type="line"/>
      <point x="580" y="181"/>
      <point x="682" y="283"/>
      <point x="715" y="432" type="curve" smooth="yes"/>
    </contour>
  </outline>
</glyph>
<glyph name="Omega" format="2">
  <advance width="713"/>
  <unicode hex="03A9"/>
  <anchor x="299" y="0" name="bottom"/>
  <anchor x="117" y="632" name="topleft"/>
  <outline>
    <contour>
      <point x="-9.9928" y="0" type="line"/>
      <point x="254.816" y="0" type="line"/>
      <point x="296.786" y="182.868" type="line"/>
      <point x="195.859" y="213.846"/>
      <point x="157.886" y="298.785"/>
      <point x="181.869" y="406.707" type="curve" smooth="yes"/>
      <point x="210.848" y="533.616"/>
      <point x="314.773" y="632.544"/>
      <point x="438.684" y="632.544" type="curve" smooth="yes"/>
      <point x="560.596" y="632.544"/>
      <point x="628.547" y="534.615"/>
      <point x="601.567" y="413.702" type="curve"/>
      <point x="575.585" y="300.783"/>
      <point x="479.654" y="207.85"/>
      <point x="379.726" y="182.868" type="curve"/>
      <point x="336.757" y="0" type="line"/>
      <point x="604.564" y="0" type="line"/>
      <point x="624.55" y="85.9381" type="line"/>
      <point x="390.718" y="85.9381" type="line"/>
      <point x="432.688" y="37.9726" type="line"/>
      <point x="463.666" y="171.876" type="line"/>
      <point x="412.703" y="105.924" type="line"/>
      <point x="554.6" y="139.899"/>
      <point x="669.518" y="270.805"/>
      <point x="700.495" y="412.703" type="curve" smooth="yes"/>
      <point x="738.468" y="589.575"/>
      <point x="625.549" y="722.479"/>
      <point x="448.677" y="722.479" type="curve" smooth="yes"/>
      <point x="275.801" y="722.479"/>
      <point x="121.912" y="593.572"/>
      <point x="83.9395" y="415.7" type="curve" smooth="yes"/>
      <point x="51.9626" y="269.806"/>
      <point x="115.916" y="158.886"/>
      <point x="243.824" y="110.92" type="curve"/>
      <point x="210.848" y="171.876" type="line"/>
      <point x="180.87" y="37.9726" type="line"/>
      <point x="246.822" y="85.9381" type="line"/>
      <point x="12.9906" y="85.9381" type="line"/>
    </contour>
  </outline>
</glyph>
<glyph name="uni03A9" format="2">
  <advance width="713"/>
  <unicode hex="03A9"/>
  <outline>
    <contour>
      <point x="-10" y="0" type="line"/>
      <point x="255" y="0" type="line"/>
      <point x="297" y="183" type="line"/>
      <point x="259" y="194"/>
      <point x="207" y="237"/>
      <point x="178" y="295"/>
      <point x="173" y="366"/>
      <point x="182" y="407" type="qcurve" smooth="yes"/>
      <point x="193" y="454"/>
      <point x="241" y="537"/>
      <point x="308" y="598"/>
      <point x="392" y="633"/>
      <point x="439" y="633" type="qcurve" smooth="yes"/>
      <point x="484" y="633"/>
      <point x="554" y="598"/>
      <point x="598" y="539"/>
      <point x="612" y="459"/>
      <point x="602" y="414" type="qcurve" smooth="yes"/>
      <point x="592" y="371"/>
      <point x="548" y="296"/>
      <point x="489" y="235"/>
      <point x="417" y="192"/>
      <point x="380" y="183" type="qcurve"/>
      <point x="337" y="0" type="line"/>
      <point x="605" y="0" type="line"/>
      <point x="625" y="86" type="line"/>
      <point x="391" y="86" type="line"/>
      <point x="433" y="38" type="line"/>
      <point x="464" y="172" type="line"/>
      <point x="413" y="106" type="line"/>
      <point x="466" y="119"/>
      <point x="560" y="178"/>
      <point x="636" y="260"/>
      <point x="689" y="359"/>
      <point x="700" y="413" type="qcurve"/>
      <point x="715" y="479"/>
      <point x="689" y="592"/>
      <point x="621" y="675"/>
      <point x="515" y="722"/>
      <point x="449" y="722" type="qcurve" smooth="yes"/>
      <point x="384" y="722"/>
      <point x="264" y="677"/>
      <point x="167" y="595"/>
      <point x="98" y="482"/>
      <point x="84" y="416" type="qcurve" smooth="yes"/>
      <point x="72" y="361"/>
      <point x="83" y="266"/>
      <point x="125" y="188"/>
      <point x="196" y="129"/>
      <point x="244" y="111" type="qcurve"/>
      <point x="211" y="172" type="line"/>
      <point x="181" y="38" type="line"/>
      <point x="247" y="86" type="line"/>
      <point x="13" y="86" type="line"/>
    </contour>
  </outline>
</glyph>
<glyph name="alphatonos" format="2">
  <advance width="650"/>
  <unicode hex="03AC"/>
  <outline>
    <contour>
      <point x="415" y="250" type="line" smooth="yes"/>
      <point x="403" y="227"/>
      <point x="371" y="167"/>
      <point x="325" y="115"/>
      <point x="265" y="79"/>
      <point x="225" y="79" type="qcurve" smooth="yes"/>
      <point x="197" y="79"/>
      <point x="151" y="99"/>
      <point x="121" y="142"/>
      <point x="114" y="207"/>
      <point x="124" y="253" type="qcurve" smooth="yes"/>
      <point x="135" y="303"/>
      <point x="176" y="375"/>
      <point x="226" y="421"/>
      <point x="279" y="444"/>
      <point x="303" y="444" type="qcurve" smooth="yes"/>
      <point x="328" y="444"/>
      <point x="363" y="422"/>
      <point x="386" y="385"/>
      <point x="399" y="336"/>
      <point x="405" y="282"/>
      <point x="405" y="228"/>
      <point x="403" y="203" type="qcurve"/>
      <point x="469" y="281" type="line"/>
      <point x="472" y="328"/>
      <point x="459" y="417"/>
      <point x="422" y="486"/>
      <point x="359" y="528"/>
      <point x="311" y="528" type="qcurve" smooth="yes"/>
      <point x="266" y="528"/>
      <point x="180" y="487"/>
      <point x="109" y="416"/>
      <point x="56" y="317"/>
      <point x="43" y="259" type="qcurve" smooth="yes"/>
      <point x="30" y="201"/>
      <point x="40" y="103"/>
      <point x="82" y="32"/>
      <point x="153" y="-8"/>
      <point x="199" y="-8" type="qcurve" smooth="yes"/>
      <point x="239" y="-8"/>
      <point x="314" y="20"/>
      <point x="382" y="71"/>
      <point x="439" y="141"/>
      <point x="462" y="182" type="qcurve" smooth="yes"/>
      <point x="646" y="520" type="line"/>
      <point x="559" y="520" type="line"/>
    </contour>
    <contour>
      <point x="551" y="71" type="line"/>
      <point x="528" y="84" type="line" smooth="yes"/>
      <point x="519" y="89"/>
      <point x="501" y="106"/>
      <point x="484" y="135"/>
      <point x="470" y="175"/>
      <point x="466" y="201" type="qcurve"/>
      <point x="404" y="143" type="line"/>
      <point x="402" y="115"/>
      <point x="410" y="70"/>
      <point x="428" y="36"/>
      <point x="455" y="10"/>
      <point x="471" y="1" type="qcurve"/>
      <point x="489" y="-8" type="line"/>
    </contour>
    <contour>
      <point x="405" y="809" type="line"/>
      <point x="329" y="582" type="line"/>
      <point x="385" y="573" type="line"/>
      <point x="476" y="793" type="line"/>
    </contour>
  </outline>
</glyph>
<glyph name="upsilondieresistonos" format="2">
  <advance width="565"/>
  <unicode hex="03B0"/>
  <outline>
    <contour>
      <point x="58" y="186" type="qcurve"/>
      <point x="46" y="136"/>
      <point x="63" y="62"/>
      <point x="111" y="15"/>
      <point x="182" y="-8"/>
      <point x="224" y="-8" type="qcurve" smooth="yes"/>
      <point x="276" y="-8"/>
      <point x="365" y="24"/>
      <point x="437" y="92"/>
      <point x="491" y="197"/>
      <point x="507" y="270" type="qcurve" smooth="yes"/>
      <point x="513" y="297"/>
      <point x="526" y="361"/>
      <point x="537" y="428"/>
      <point x="544" y="492"/>
      <point x="544" y="518" type="qcurve"/>
      <point x="454" y="527" type="line"/>
      <point x="453" y="492"/>
      <point x="446" y="424"/>
      <point x="436" y="362"/>
      <point x="425" y="309"/>
      <point x="420" y="289" type="qcurve"/>
      <point x="396" y="179"/>
      <point x="302" y="81"/>
      <point x="234" y="80" type="qcurve"/>
      <point x="211" y="81"/>
      <point x="173" y="91"/>
      <point x="149" y="114"/>
      <point x="140" y="152"/>
      <point x="146" y="181" type="qcurve"/>
      <point x="149" y="193"/>
      <point x="159" y="226"/>
      <point x="169" y="265"/>
      <point x="180" y="308"/>
      <point x="185" y="329" type="qcurve" smooth="yes"/>
      <point x="193" y="362"/>
      <point x="201" y="414"/>
      <point x="205" y="458"/>
      <point x="205" y="497"/>
      <point x="204" y="518" type="qcurve"/>
      <point x="117" y="527" type="line"/>
      <point x="118" y="488"/>
      <point x="113" y="400"/>
      <point x="101" y="344" type="qcurve"/>
      <point x="95" y="321"/>
      <point x="82" y="273"/>
      <point x="70" y="231"/>
      <point x="61" y="197"/>
    </contour>
    <contour>
      <point x="148" y="660" type="qcurve"/>
      <point x="140" y="630"/>
      <point x="171" y="586"/>
      <point x="201" y="586" type="qcurve" smooth="yes"/>
      <point x="227" y="586"/>
      <point x="267" y="619"/>
      <point x="272" y="644" type="qcurve" smooth="yes"/>
      <point x="279" y="675"/>
      <point x="250" y="716"/>
      <point x="220" y="716" type="qcurve" smooth="yes"/>
      <point x="193" y="716"/>
      <point x="153" y="686"/>
    </contour>
    <contour>
      <point x="431" y="660" type="qcurve" smooth="yes"/>
      <point x="424" y="630"/>
      <point x="456" y="586"/>
      <point x="486" y="586" type="qcurve" smooth="yes"/>
      <point x="511" y="586"/>
      <point x="552" y="619"/>
      <point x="557" y="644" type="qcurve" smooth="yes"/>
      <point x="564" y="675"/>
      <point x="533" y="716"/>
      <point x="504" y="716" type="qcurve" smooth="yes"/>
      <point x="479" y="716"/>
      <point x="437" y="686"/>
    </contour>
    <contour>
      <point x="375" y="821" type="line"/>
      <point x="298" y="594" type="line"/>
      <point x="355" y="585" type="line"/>
      <point x="446" y="806" type="line"/>
    </contour>
  </outline>
</glyph>
<glyph name="alpha" format="2">
  <advance width="618"/>
  <unicode hex="03B1"/>
  <anchor x="207" y="0" name="bottom"/>
  <anchor x="340" y="520" name="top"/>
  <outline>
    <contour>
      <point x="415.484" y="250.291" type="line"/>
      <point x="383.446" y="187.218"/>
      <point x="331.386" y="79.0921"/>
      <point x="225.262" y="79.0921" type="curve" smooth="yes"/>
      <point x="150.175" y="79.0921"/>
      <point x="96.1119" y="131.153"/>
      <point x="124.145" y="253.295" type="curve" smooth="yes"/>
      <point x="154.18" y="385.449"/>
      <point x="239.279" y="443.516"/>
      <point x="303.353" y="443.516" type="curve" smooth="yes"/>
      <point x="401.467" y="443.516"/>
      <point x="409.477" y="301.351"/>
      <point x="403.47" y="203.237" type="curve"/>
      <point x="468.546" y="281.328" type="line"/>
      <point x="476.555" y="406.473"/>
      <point x="438.511" y="527.614"/>
      <point x="311.363" y="527.614" type="curve" smooth="yes"/>
      <point x="189.22" y="527.614"/>
      <point x="77.0898" y="414.483"/>
      <point x="43.0501" y="259.302" type="curve"/>
      <point x="7.00816" y="104.121"/>
      <point x="75.0874" y="-8.00933"/>
      <point x="199.232" y="-8.00933" type="curve" smooth="yes"/>
      <point x="305.356" y="-8.00933"/>
      <point x="402.469" y="71.0828"/>
      <point x="461.537" y="182.212" type="curve"/>
      <point x="645.752" y="519.605" type="line"/>
      <point x="558.65" y="519.605" type="line"/>
    </contour>
    <contour>
      <point x="550.641" y="71.0828" type="line"/>
      <point x="527.614" y="84.0979" type="line" smooth="yes"/>
      <point x="505.589" y="96.1119"/>
      <point x="476.555" y="130.152"/>
      <point x="465.542" y="201.234" type="curve"/>
      <point x="404.471" y="143.167" type="line"/>
      <point x="398.464" y="68.0793"/>
      <point x="428.499" y="25.0291"/>
      <point x="470.548" y="1.00117" type="curve"/>
      <point x="488.569" y="-8.00933" type="line"/>
    </contour>
  </outline>
</glyph>
<glyph name="beta" format="2">
  <advance width="656"/>
  <unicode hex="03B2"/>
  <outline>
    <contour>
      <point x="115" y="57" type="line"/>
      <point x="132" y="40"/>
      <point x="176" y="15"/>
      <point x="225" y="-1"/>
      <point x="276" y="-8"/>
      <point x="301" y="-8" type="qcurve" smooth="yes"/>
      <point x="352" y="-8"/>
      <point x="447" y="28"/>
      <point x="523" y="88"/>
      <point x="576" y="168"/>
      <point x="585" y="212" type="qcurve"/>
      <point x="595" y="250"/>
      <point x="587" y="319"/>
      <point x="552" y="374"/>
      <point x="492" y="410"/>
      <point x="449" y="416" type="qcurve"/>
      <point x="455" y="420" type="line"/>
      <point x="483" y="434"/>
      <point x="530" y="471"/>
      <point x="566" y="514"/>
      <point x="591" y="563"/>
      <point x="596" y="588" type="qcurve" smooth="yes"/>
      <point x="604" y="624"/>
      <point x="590" y="689"/>
      <point x="546" y="738"/>
      <point x="476" y="767"/>
      <point x="428" y="766" type="qcurve"/>
      <point x="371" y="767"/>
      <point x="275" y="724"/>
      <point x="201" y="647"/>
      <point x="149" y="541"/>
      <point x="135" y="478" type="qcurve" smooth="yes"/>
      <point x="-20" y="-207" type="line"/>
      <point x="72" y="-212" type="line"/>
      <point x="89" y="-127"/>
      <point x="113" y="8"/>
      <point x="120" y="54" type="qcurve"/>
      <point x="137" y="121" type="line" smooth="yes"/>
      <point x="148" y="161"/>
      <point x="165" y="232"/>
      <point x="183" y="310"/>
      <point x="205" y="403"/>
      <point x="219" y="465" type="qcurve" smooth="yes"/>
      <point x="230" y="513"/>
      <point x="266" y="593"/>
      <point x="316" y="651"/>
      <point x="378" y="682"/>
      <point x="415" y="682" type="qcurve" smooth="yes"/>
      <point x="444" y="682"/>
      <point x="483" y="667"/>
      <point x="506" y="640"/>
      <point x="512" y="604"/>
      <point x="507" y="585" type="qcurve" smooth="yes"/>
      <point x="501" y="560"/>
      <point x="469" y="512"/>
      <point x="418" y="471"/>
      <point x="350" y="441"/>
      <point x="310" y="433" type="qcurve"/>
      <point x="300" y="365" type="line"/>
      <point x="302" y="366"/>
      <point x="317" y="368"/>
      <point x="338" y="370"/>
      <point x="361" y="371"/>
      <point x="371" y="370" type="qcurve"/>
      <point x="409" y="371"/>
      <point x="466" y="351"/>
      <point x="502" y="314"/>
      <point x="515" y="264"/>
      <point x="509" y="235" type="qcurve" smooth="yes"/>
      <point x="502" y="202"/>
      <point x="461" y="144"/>
      <point x="403" y="100"/>
      <point x="334" y="74"/>
      <point x="298" y="73" type="qcurve"/>
      <point x="280" y="74"/>
      <point x="236" y="81"/>
      <point x="191" y="98"/>
      <point x="148" y="124"/>
      <point x="131" y="144" type="qcurve"/>
    </contour>
  </outline>
</glyph>
<glyph name="gamma" format="2">
  <advance width="564"/>
  <unicode hex="03B3"/>
  <outline>
    <contour>
      <point x="182" y="-212" type="line"/>
      <point x="278" y="86"/>
      <point x="344" y="385"/>
      <point x="167" y="537" type="curve"/>
      <point x="100" y="466" type="line"/>
      <point x="247" y="348"/>
      <point x="175" y="47"/>
      <point x="96" y="-202" type="curve"/>
    </contour>
    <contour>
      <point x="225" y="-5" type="line"/>
      <point x="423" y="199"/>
      <point x="512" y="337"/>
      <point x="595" y="517" type="curve"/>
      <point x="498" y="527" type="line"/>
      <point x="445" y="379"/>
      <point x="336" y="227"/>
      <point x="232" y="120" type="curve"/>
    </contour>
  </outline>
</glyph>
<glyph name="delta" format="2">
  <advance width="610"/>
  <unicode hex="03B4"/>
  <outline>
    <contour>
      <point x="254" y="-8" type="qcurve" smooth="yes"/>
      <point x="307" y="-8"/>
      <point x="406" y="30"/>
      <point x="487" y="99"/>
      <point x="546" y="194"/>
      <point x="559" y="250" type="qcurve" smooth="yes"/>
      <point x="572" y="309"/>
      <point x="555" y="396"/>
      <point x="514" y="462"/>
      <point x="460" y="509"/>
      <point x="436" y="527" type="qcurve"/>
      <point x="415" y="541"/>
      <point x="374" y="569"/>
      <point x="342" y="596"/>
      <point x="325" y="625"/>
      <point x="328" y="640" type="qcurve"/>
      <point x="333" y="657"/>
      <point x="371" y="678"/>
      <point x="403" y="678" type="qcurve" smooth="yes"/>
      <point x="427" y="678"/>
      <point x="484" y="665"/>
      <point x="541" y="643"/>
      <point x="593" y="611"/>
      <point x="612" y="591" type="qcurve"/>
      <point x="669" y="664" type="line"/>
      <point x="652" y="681"/>
      <point x="597" y="717"/>
      <point x="530" y="746"/>
      <point x="452" y="764"/>
      <point x="411" y="763" type="qcurve"/>
      <point x="339" y="763"/>
      <point x="244" y="705"/>
      <point x="232" y="653" type="qcurve" smooth="yes"/>
      <point x="225" y="620"/>
      <point x="246" y="569"/>
      <point x="287" y="527"/>
      <point x="340" y="493"/>
      <point x="364" y="476" type="qcurve" smooth="yes"/>
      <point x="390" y="458"/>
      <point x="438" y="416"/>
      <point x="473" y="363"/>
      <point x="486" y="296"/>
      <point x="476" y="254" type="qcurve"/>
      <point x="468" y="215"/>
      <point x="428" y="151"/>
      <point x="372" y="105"/>
      <point x="305" y="79"/>
      <point x="269" y="79" type="qcurve" smooth="yes"/>
      <point x="233" y="79"/>
      <point x="176" y="104"/>
      <point x="140" y="149"/>
      <point x="127" y="212"/>
      <point x="136" y="250" type="qcurve" smooth="yes"/>
      <point x="145" y="288"/>
      <point x="188" y="354"/>
      <point x="247" y="404"/>
      <point x="318" y="432"/>
      <point x="355" y="432" type="qcurve" smooth="yes"/>
      <point x="386" y="432"/>
      <point x="444" y="413"/>
      <point x="463" y="393" type="qcurve"/>
      <point x="434" y="476" type="line"/>
      <point x="418" y="487"/>
      <point x="366" y="499"/>
      <point x="339" y="501" type="qcurve"/>
      <point x="290" y="502"/>
      <point x="198" y="464"/>
      <point x="123" y="398"/>
      <point x="68" y="308"/>
      <point x="57" y="255" type="qcurve"/>
      <point x="44" y="201"/>
      <point x="60" y="106"/>
      <point x="112" y="34"/>
      <point x="197" y="-8"/>
    </contour>
  </outline>
</glyph>
<glyph name="epsilon" format="2">
  <advance width="474"/>
  <unicode hex="03B5"/>
  <anchor x="220" y="-24" name="bottom"/>
  <anchor x="343" y="563" name="top"/>
  <outline>
    <contour>
      <point x="381.444" y="99.1154" type="line"/>
      <point x="319.372" y="83.0968"/>
      <point x="278.324" y="77.0898"/>
      <point x="234.273" y="77.0898" type="curve" smooth="yes"/>
      <point x="148.173" y="77.0898"/>
      <point x="107.125" y="106.124"/>
      <point x="117.136" y="156.182" type="curve"/>
      <point x="130.152" y="210.245"/>
      <point x="197.23" y="225.262"/>
      <point x="273.318" y="225.262" type="curve"/>
      <point x="321.374" y="225.262" type="line"/>
      <point x="340.396" y="310.361" type="line"/>
      <point x="286.333" y="310.361" type="line" smooth="yes"/>
      <point x="220.256" y="310.361"/>
      <point x="176.205" y="332.387"/>
      <point x="186.217" y="374.436" type="curve" smooth="yes"/>
      <point x="195.227" y="410.478"/>
      <point x="232.27" y="441.514"/>
      <point x="321.374" y="441.514" type="curve" smooth="yes"/>
      <point x="365.425" y="441.514"/>
      <point x="416.485" y="433.505"/>
      <point x="442.515" y="421.491" type="curve"/>
      <point x="485.565" y="504.588" type="line"/>
      <point x="444.518" y="527.614"/>
      <point x="386.45" y="527.614"/>
      <point x="340.396" y="527.614" type="curve" smooth="yes"/>
      <point x="204.238" y="527.614"/>
      <point x="123.143" y="467.544"/>
      <point x="105.122" y="393.458" type="curve"/>
      <point x="93.1084" y="337.393"/>
      <point x="122.142" y="288.336"/>
      <point x="151.176" y="276.322" type="curve"/>
      <point x="148.173" y="274.319" type="line"/>
      <point x="103.12" y="257.3"/>
      <point x="43.0501" y="209.244"/>
      <point x="29.0338" y="143.167" type="curve"/>
      <point x="5.00583" y="48.056"/>
      <point x="94.1096" y="-8.00933"/>
      <point x="218.254" y="-8.00933" type="curve" smooth="yes"/>
      <point x="275.321" y="-8.00933"/>
      <point x="347.405" y="2.00233"/>
      <point x="381.444" y="12.014" type="curve"/>
    </contour>
  </outline>
</glyph>
<glyph name="zeta" format="2">
  <advance width="491"/>
  <unicode hex="03B6"/>
  <outline>
    <contour>
      <point x="235" y="-179" type="curve"/>
      <point x="327" y="-179"/>
      <point x="418" y="-117"/>
      <point x="437" y="-34" type="curve" smooth="yes"/>
      <point x="453" y="34"/>
      <point x="413" y="83"/>
      <point x="338" y="83" type="curve" smooth="yes"/>
      <point x="319" y="83"/>
      <point x="268" y="79"/>
      <point x="233" y="79" type="curve" smooth="yes"/>
      <point x="181" y="79"/>
      <point x="109" y="86"/>
      <point x="136" y="194" type="curve" smooth="yes"/>
      <point x="172" y="349"/>
      <point x="377" y="558"/>
      <point x="545" y="658" type="curve"/>
      <point x="556" y="721" type="line"/>
      <point x="388" y="721" type="line" smooth="yes"/>
      <point x="353" y="721"/>
      <point x="327" y="726"/>
      <point x="333" y="751" type="curve"/>
      <point x="335" y="762"/>
      <point x="343" y="780"/>
      <point x="355" y="790" type="curve"/>
      <point x="285" y="824" type="line"/>
      <point x="263" y="799"/>
      <point x="252" y="778"/>
      <point x="246" y="755" type="curve"/>
      <point x="233" y="691"/>
      <point x="273" y="645"/>
      <point x="363" y="645" type="curve"/>
      <point x="453" y="645" type="line"/>
      <point x="439" y="683" type="line"/>
      <point x="293" y="589"/>
      <point x="90" y="388"/>
      <point x="45" y="189" type="curve" smooth="yes"/>
      <point x="7" y="24"/>
      <point x="108" y="-8"/>
      <point x="205" y="-8" type="curve" smooth="yes"/>
      <point x="250" y="-8"/>
      <point x="288" y="-2"/>
      <point x="312" y="-2" type="curve" smooth="yes"/>
      <point x="345" y="-2"/>
      <point x="351" y="-24"/>
      <point x="350" y="-35" type="curve"/>
      <point x="342" y="-66"/>
      <point x="293" y="-91"/>
      <point x="231" y="-91" type="curve" smooth="yes"/>
      <point x="209" y="-91"/>
      <point x="178" y="-87"/>
      <point x="159" y="-82" type="curve"/>
      <point x="143" y="-169" type="line"/>
      <point x="173" y="-175"/>
      <point x="209" y="-181"/>
    </contour>
  </outline>
</glyph>
<glyph name="eta" format="2">
  <advance width="557"/>
  <unicode hex="03B7"/>
  <anchor x="62" y="0" name="bottom"/>
  <anchor x="362" y="520" name="top"/>
  <outline>
    <contour>
      <point x="87.1014" y="-2.00233" type="line"/>
      <point x="129.15" y="124.145"/>
      <point x="163.19" y="231.269"/>
      <point x="187.218" y="336.392" type="curve" smooth="yes"/>
      <point x="209.244" y="431.502"/>
      <point x="198.231" y="491.572"/>
      <point x="131.153" y="527.614" type="curve"/>
      <point x="69.0804" y="450.525" type="line"/>
      <point x="105.122" y="430.501"/>
      <point x="112.131" y="399.465"/>
      <point x="89.1038" y="293.342" type="curve"/>
      <point x="67.0781" y="208.242"/>
      <point x="35.0408" y="103.12"/>
      <point x="0" y="2.00233" type="curve"/>
    </contour>
    <contour>
      <point x="344.401" y="-208.242" type="line"/>
      <point x="396.462" y="-92.1072"/>
      <point x="470.548" y="118.138"/>
      <point x="500.583" y="255.297" type="curve"/>
      <point x="544.634" y="445.519"/>
      <point x="513.598" y="527.614"/>
      <point x="405.472" y="527.614" type="curve" smooth="yes"/>
      <point x="314.366" y="527.614"/>
      <point x="205.239" y="458.534"/>
      <point x="168.196" y="369.43" type="curve"/>
      <point x="151.176" y="200.233" type="line"/>
      <point x="185.216" y="327.381"/>
      <point x="272.317" y="435.507"/>
      <point x="359.419" y="435.507" type="curve" smooth="yes"/>
      <point x="424.494" y="435.507"/>
      <point x="439.512" y="378.441"/>
      <point x="408.476" y="233.272" type="curve"/>
      <point x="384.448" y="128.149"/>
      <point x="333.388" y="-24.028"/>
      <point x="256.298" y="-204.238" type="curve"/>
    </contour>
  </outline>
</glyph>
<glyph name="theta" format="2">
  <advance width="647"/>
  <unicode hex="03B8"/>
  <outline>
    <contour>
      <point x="269" y="-8" type="curve" smooth="yes"/>
      <point x="421" y="-8"/>
      <point x="555" y="149"/>
      <point x="606" y="372" type="curve" smooth="yes"/>
      <point x="660" y="609"/>
      <point x="590" y="768"/>
      <point x="436" y="766" type="curve"/>
      <point x="291" y="768"/>
      <point x="148" y="617"/>
      <point x="96" y="389" type="curve" smooth="yes"/>
      <point x="41" y="145"/>
      <point x="116" y="-8"/>
    </contour>
    <contour>
      <point x="268" y="76" type="curve"/>
      <point x="169" y="77"/>
      <point x="138" y="211"/>
      <point x="175" y="366" type="curve"/>
      <point x="222" y="552"/>
      <point x="337" y="679"/>
      <point x="433" y="679" type="curve" smooth="yes"/>
      <point x="533" y="679"/>
      <point x="566" y="556"/>
      <point x="526" y="393" type="curve"/>
      <point x="483" y="214"/>
      <point x="370" y="77"/>
    </contour>
    <contour>
      <point x="548" y="347" type="line"/>
      <point x="564" y="414" type="line"/>
      <point x="155" y="414" type="line"/>
      <point x="139" y="347" type="line"/>
    </contour>
  </outline>
</glyph>
<glyph name="iota" format="2">
  <advance width="300"/>
  <unicode hex="03B9"/>
  <anchor x="68" y="-22" name="bottom"/>
  <anchor x="90" y="-2" name="ogonek"/>
  <anchor x="188" y="531" name="top"/>
  <outline>
    <contour>
      <point x="125.706" y="-8.04517" type="curve" smooth="yes"/>
      <point x="144.813" y="-8.04517"/>
      <point x="173.977" y="-7.03952"/>
      <point x="199.118" y="4.02258" type="curve"/>
      <point x="196.101" y="93.5251" type="line"/>
      <point x="183.028" y="88.4968"/>
      <point x="167.943" y="81.4573"/>
      <point x="153.864" y="80.4517" type="curve"/>
      <point x="130.734" y="81.4573"/>
      <point x="127.717" y="93.5251"/>
      <point x="141.796" y="158.892" type="curve"/>
      <point x="157.886" y="226.27"/>
      <point x="205.152" y="403.264"/>
      <point x="235.321" y="517.908" type="curve"/>
      <point x="140.79" y="526.958" type="line"/>
      <point x="104.587" y="381.14"/>
      <point x="74.4178" y="254.428"/>
      <point x="48.271" y="133.751" type="curve"/>
      <point x="25.1411" y="35.1976"/>
      <point x="59.3331" y="-8.04517"/>
    </contour>
  </outline>
</glyph>
<glyph name="kappa" format="2">
  <advance width="578"/>
  <unicode hex="03BA"/>
  <outline>
    <contour>
      <point x="101.118" y="-2.00233" type="line"/>
      <point x="220.256" y="234.273"/>
      <point x="433.505" y="418.487"/>
      <point x="566.66" y="435.507" type="curve"/>
      <point x="585.682" y="527.614" type="line"/>
      <point x="471.549" y="511.596"/>
      <point x="276.322" y="416.485"/>
      <point x="129.15" y="165.192" type="curve"/>
      <point x="143.167" y="163.19" type="line"/>
      <point x="168.196" y="240.28"/>
      <point x="186.217" y="297.346"/>
      <point x="196.228" y="345.402" type="curve"/>
      <point x="221.258" y="451.526"/>
      <point x="197.23" y="505.589"/>
      <point x="150.175" y="527.614" type="curve"/>
      <point x="91.1061" y="452.527" type="line"/>
      <point x="135.157" y="432.504"/>
      <point x="132.154" y="377.439"/>
      <point x="113.132" y="294.343" type="curve"/>
      <point x="91.1061" y="204.238"/>
      <point x="53.0618" y="103.12"/>
      <point x="14.0163" y="2.00233" type="curve"/>
    </contour>
    <contour>
      <point x="482.562" y="64.0746" type="line"/>
      <point x="390.455" y="111.129"/>
      <point x="337.393" y="227.265"/>
      <point x="340.396" y="328.382" type="curve"/>
      <point x="270.315" y="277.323" type="line"/>
      <point x="262.305" y="169.197"/>
      <point x="333.388" y="35.0408"/>
      <point x="424.494" y="-8.00933" type="curve"/>
    </contour>
  </outline>
</glyph>
<glyph name="lambda" format="2">
  <advance width="615"/>
  <unicode hex="03BB"/>
  <outline>
    <contour>
      <point x="459" y="-8" type="qcurve" smooth="yes"/>
      <point x="476" y="-8"/>
      <point x="519" y="-1"/>
      <point x="532" y="5" type="qcurve"/>
      <point x="527" y="94" type="line"/>
      <point x="516" y="90"/>
      <point x="496" y="82"/>
      <point x="487" y="81" type="qcurve"/>
      <point x="477" y="81"/>
      <point x="461" y="96"/>
      <point x="447" y="136"/>
      <point x="436" y="207"/>
      <point x="431" y="263" type="qcurve" smooth="yes"/>
      <point x="405" y="530" type="line"/>
      <point x="402" y="584"/>
      <point x="384" y="672"/>
      <point x="350" y="734"/>
      <point x="296" y="767"/>
      <point x="255" y="766" type="qcurve"/>
      <point x="226" y="768"/>
      <point x="175" y="755"/>
      <point x="155" y="747" type="qcurve"/>
      <point x="165" y="662" type="line"/>
      <point x="179" y="668"/>
      <point x="212" y="680"/>
      <point x="235" y="680" type="qcurve" smooth="yes"/>
      <point x="254" y="680"/>
      <point x="281" y="663"/>
      <point x="299" y="629"/>
      <point x="309" y="580"/>
      <point x="311" y="548" type="qcurve"/>
      <point x="318" y="479" type="line"/>
      <point x="337" y="560" type="line"/>
      <point x="-44" y="0" type="line"/>
      <point x="62" y="0" type="line"/>
      <point x="326" y="404" type="line"/>
      <point x="330" y="404" type="line"/>
      <point x="349" y="211" type="line"/>
      <point x="353" y="155"/>
      <point x="366" y="72"/>
      <point x="391" y="18"/>
      <point x="430" y="-8"/>
    </contour>
  </outline>
</glyph>
<glyph name="mu" format="2">
  <advance width="609"/>
  <unicode hex="03BC"/>
  <anchor x="261" y="0" name="bottom"/>
  <anchor x="523" y="522" name="horn"/>
  <anchor x="401" y="0" name="ogonek"/>
  <anchor x="360" y="522" name="top"/>
  <outline>
    <contour>
      <point x="75" y="-206" type="line"/>
      <point x="78" y="-117"/>
      <point x="98" y="-30"/>
      <point x="118" y="68" type="curve"/>
      <point x="97" y="69" type="line"/>
      <point x="110" y="21"/>
      <point x="154" y="-8"/>
      <point x="221" y="-8" type="curve" smooth="yes"/>
      <point x="309" y="-8"/>
      <point x="369" y="42"/>
      <point x="418" y="105" type="curve"/>
      <point x="417" y="201" type="line"/>
      <point x="376" y="146"/>
      <point x="313" y="82"/>
      <point x="229" y="81" type="curve"/>
      <point x="135" y="82"/>
      <point x="146" y="173"/>
      <point x="163" y="241" type="curve"/>
      <point x="226" y="522" type="line"/>
      <point x="134" y="522" type="line"/>
      <point x="68" y="230" type="line" smooth="yes"/>
      <point x="37" y="96"/>
      <point x="-2" y="-71"/>
      <point x="-17" y="-206" type="curve"/>
    </contour>
    <contour>
      <point x="521" y="70" type="line"/>
      <point x="502" y="76" type="line"/>
      <point x="481" y="87"/>
      <point x="475" y="109"/>
      <point x="487" y="161" type="curve" smooth="yes"/>
      <point x="569" y="522" type="line"/>
      <point x="477" y="522" type="line"/>
      <point x="393" y="149" type="line"/>
      <point x="396" y="112" type="line"/>
      <point x="388" y="50"/>
      <point x="406" y="17"/>
      <point x="444" y="-2" type="curve"/>
      <point x="458" y="-8" type="line"/>
    </contour>
  </outline>
</glyph>
